SplineFontDB: 3.0
FontName: Exo-Medium
FullName: Exo Medium
FamilyName: Exo
Weight: Medium
Copyright: Copyright (c) 2011 Natanael Gama (exo@ndiscovered.com), with Reserved Font Name "Exo"
Version: 1.00
ItalicAngle: 0
UnderlinePosition: -50
UnderlineWidth: 50
Ascent: 800
Descent: 200
sfntRevision: 0x00010000
LayerCount: 2
Layer: 0 0 "Back"  1
Layer: 1 0 "Fore"  0
XUID: [1021 762 1116966003 1150422]
FSType: 8
OS2Version: 0
OS2_WeightWidthSlopeOnly: 0
OS2_UseTypoMetrics: 1
CreationTime: 1317847027
ModificationTime: 1325018854
PfmFamily: 33
TTFWeight: 500
TTFWidth: 5
LineGap: 90
VLineGap: 0
OS2TypoAscent: 0
OS2TypoAOffset: 1
OS2TypoDescent: 0
OS2TypoDOffset: 1
OS2TypoLinegap: 90
OS2WinAscent: 0
OS2WinAOffset: 1
OS2WinDescent: 0
OS2WinDOffset: 1
HheadAscent: 0
HheadAOffset: 1
HheadDescent: 0
HheadDOffset: 1
OS2Vendor: 'PfEd'
Lookup: 4 0 0 "'ordn' Ordinals lookup 21"  {"'ordn' Ordinals lookup 21-1"  } ['ordn' ('DFLT' <'dflt' > 'grek' <'dflt' > 'latn' <'dflt' > ) ]
Lookup: 1 0 0 "'smcp' Lowercase to Small Capitals lookup 16"  {"'smcp' Lowercase to Small Capitals lookup 16-1" ("smcp" ) } ['smcp' ('DFLT' <'dflt' > 'grek' <'dflt' > 'latn' <'FRA ' 'dflt' > ) ]
Lookup: 1 0 0 "'c2sc' Capitals to Small Capitals in Latin lookup 17"  {"'c2sc' Capitals to Small Capitals in Latin lookup 17 subtable" ("smcp" ) } ['c2sc' ('latn' <'dflt' > ) ]
Lookup: 4 0 0 "'dlig' Discretionary Ligatures lookup 14"  {"'dlig' Discretionary Ligatures lookup 14-1"  } ['dlig' ('DFLT' <'dflt' > 'grek' <'dflt' > 'latn' <'dflt' > ) ]
Lookup: 4 0 1 "'liga' Standard Ligatures lookup 15"  {"'liga' Standard Ligatures lookup 15-1"  } ['liga' ('DFLT' <'dflt' > 'grek' <'dflt' > 'latn' <'FRA ' 'dflt' > ) ]
Lookup: 1 0 0 "'frac' Diagonal Fractions lookup 13"  {"'frac' Diagonal Fractions lookup 13-1"  } ['frac' ('DFLT' <'dflt' > 'grek' <'dflt' > 'latn' <'FRA ' 'dflt' > ) ]

StartChar: a
Encoding: 97 97 0
Width: 519
VWidth: 0
Flags: HW
LayerCount: 2
Fore
SplineSet
37.3 128.55 m 10
 37.3 186.55 l 2
 37.3 265.8 85.05 323 176.45 323 c 2
 176.45 323 380.45 322 380.45 323 c 0
 380.45 323 381.45 380 380.45 381 c 2
 380.45 440.8 349.95 458.5 301.45 458.5 c 1
 236.5 458.5 136.9 452.6 54.45 446.65 c 9
 54.45 509.5 l 17
 125.15 531.45 209.8 540.15 308.8 541 c 1
 400.35 541.85 472.45 498.35 472.45 382.5 c 2
 472.45 0 l 9
 402.3 0 l 25
 380.45 62.5 l 17
 377.4 59.35 263.25 -6.45 174.95 -6 c 1
 94 -5.25 37.3 47.9 37.3 128.55 c 10
129.3 137.6 m 2
 129.3 90.65 154 78.5 185.75 78.5 c 0
 259.9 78.5 380.45 126.8 380.45 126.8 c 9
 380.45 257.35 l 17
 183.95 243 l 1
 142.6 239.15 129.3 210.6 129.3 181 c 2
 129.3 137.6 l 2
EndSplineSet
AlternateSubs2: "'salt' Access All Alternates in Latin lookup 4-1" a.salt
Substitution2: "'smcp' Lowercase to Small Capitals lookup 16-1" a.smcp
EndChar

StartChar: z
Encoding: 122 122 1
Width: 460
VWidth: 0
Flags: HW
LayerCount: 2
Fore
SplineSet
28.05 445 m 17
 28.05 531 l 25
 433.05 531 l 25
 433.05 445 l 25
 164.5 87 l 17
 433.05 87 l 17
 434.05 86 433.05 1 433.05 1 c 25
 43.05 1 l 25
 43.05 86.7 l 25
 318.25 445 l 17
 28.05 445 l 17
EndSplineSet
Substitution2: "'smcp' Lowercase to Small Capitals lookup 16-1" z.smcp
EndChar

StartChar: e
Encoding: 101 101 2
Width: 525
VWidth: 0
Flags: W
HStem: -5 84.35<168.377 454.116> 220.5 80.5<138.7 388.922> 452 83<171.16 378.097>
VStem: 46.7 92<108.283 220.5 301 415.33> 395.7 92<309.054 434.552>
LayerCount: 2
Fore
SplineSet
46.7 268 m 0
 46.7 502.6 113.5 535 278.7 535 c 3
 411.5 535 487.7 521.5 487.7 345.5 c 0
 487.7 263.7 443.7 220.5 347.7 220.5 c 2
 138.7 220.5 l 1
 138.7 103.45 165.3 79.35 242.7 79.35 c 3
 331.7 79.35 402.7 78.5 477.7 89.5 c 1
 477.7 23 l 17
 398.35 -1.35 304.7 -5 221.7 -5 c 0
 86.7 -5 46.7 63.6 46.7 268 c 0
138.7 301 m 1
 337.8 301 l 2
 377.75 301 395.7 316.55 395.7 347.45 c 0
 395.7 442.1 378.55 452 281.65 452 c 3
 179.3 452 138.4 450.1 138.7 301 c 1
EndSplineSet
Substitution2: "'smcp' Lowercase to Small Capitals lookup 16-1" e.smcp
EndChar

StartChar: o
Encoding: 111 111 3
Width: 565
VWidth: 0
Flags: W
HStem: -5 84.5<182.019 384.987> 451.5 84.5<182.377 385.224>
VStem: 46.7 92<129.509 402.321> 427.2 92<126.559 404.116>
LayerCount: 2
Fore
SplineSet
46.7 258 m 3
 46.7 475 107.45 536 282.95 536 c 3
 463 536 519.2 469 519.2 258 c 3
 519.2 61 463.75 -5 282.95 -5 c 3
 102.75 -5 46.7 68 46.7 258 c 3
138.7 258 m 3
 138.7 91.8 187.75 79.5 282.95 79.5 c 3
 383 79.5 427.2 92.6 427.2 258 c 3
 427.2 436.75 390.8 451.5 282.95 451.5 c 3
 178.9 451.5 138.7 437.45 138.7 258 c 3
EndSplineSet
Substitution2: "'smcp' Lowercase to Small Capitals lookup 16-1" o.smcp
EndChar

StartChar: c
Encoding: 99 99 5
Width: 498
VWidth: 0
Flags: HW
LayerCount: 2
Fore
SplineSet
46.7 266 m 0
 46.7 494.4 119.7 536 221.7 536 c 3
 273.7 536 379.4 525.7 454.2 508.5 c 1
 454.2 445.5 l 1
 454.2 445.5 327.05 451.5 238.05 451.5 c 3
 176.85 451.5 138.7 442.45 138.7 262.3 c 3
 138.7 113.95 166.05 79.5 238.05 79.5 c 3
 330.05 79.5 461.2 90.05 461.2 90.05 c 1
 461.2 25.35 l 17
 381.1 -2.15 304.7 -4 221.7 -5 c 0
 122.7 -5 46.7 36.75 46.7 266 c 0
EndSplineSet
Substitution2: "'smcp' Lowercase to Small Capitals lookup 16-1" c.smcp
EndChar

StartChar: d
Encoding: 100 100 6
Width: 554
VWidth: 0
Flags: HW
LayerCount: 2
Fore
SplineSet
46.7 263 m 0
 46.7 408.15 71.3 539 221.25 539 c 3
 266.25 539 347.85 525.45 407.65 500.5 c 1
 407.65 785 l 1
 498.8 785 l 1
 498.8 0 l 1
 428.85 0 l 1
 407.5 57.5 l 17
 379.55 36.4 287.9 -6 221.25 -6 c 3
 80.15 -6 46.7 129.15 46.7 263 c 0
138.7 264.5 m 0
 138.7 137.65 171.55 80.45 231.15 80.45 c 3
 302.95 80.45 360.1 101.6 407.5 122.85 c 1
 407.5 430.9 l 1
 347.35 447.85 300.35 455.25 231.15 455.25 c 1
 172.55 455.25 138.7 420 138.7 264.5 c 0
EndSplineSet
AlternateSubs2: "'salt' Access All Alternates in Latin lookup 4-1" d.salt
Substitution2: "'smcp' Lowercase to Small Capitals lookup 16-1" d.smcp
EndChar

StartChar: A
Encoding: 65 65 7
Width: 676
VWidth: 0
Flags: W
HStem: 0 21G<42 155.68 543.119 654> 0 21G<42 155.68 543.119 654> 192.6 87.65<241.15 461.4> 712 20G<297.814 409.128>
DStem2: 42 0 149.2 0 0.338128 0.9411<36.2473 238.602 331.081 669.398> 402.25 732 353.15 599.5 0.325224 -0.945637<109.328 446.428 538.404 538.404>
LayerCount: 2
Fore
SplineSet
42 0 m 1xb0
 305 732 l 1
 402.25 732 l 1
 654 0 l 1
 549.35 0 l 1
 489.35 192.6 l 1
 211.6 192.6 l 1
 149.2 0 l 1
 42 0 l 1xb0
241.15 280.25 m 1
 461.4 280.25 l 1
 353.15 599.5 l 1
 241.15 280.25 l 1
EndSplineSet
Substitution2: "'c2sc' Capitals to Small Capitals in Latin lookup 17 subtable" a.smcp
EndChar

StartChar: p
Encoding: 112 112 8
Width: 554
VWidth: 0
Flags: HW
LayerCount: 2
Fore
SplineSet
56.1 -270 m 1
 56.1 531 l 1
 126.05 531 l 1
 146.55 473.5 l 17
 174.5 494.6 267 537 333.65 537 c 3
 474.75 537 508.2 400.2 508.2 268 c 0
 508.2 127.2 483.6 -8 333.65 -8 c 3
 288.65 -8 206.2 5.55 146.4 30.5 c 1
 146.4 -270 l 1
 56.1 -270 l 1
146.55 100.1 m 1
 206.7 83.15 254.55 75.75 323.75 75.75 c 1
 382.35 75.75 416.2 111 416.2 266.5 c 0
 416.2 393.35 383.35 450.55 323.75 450.55 c 3
 251.95 450.55 193.95 429.4 146.55 408.15 c 1
 146.55 100.1 l 1
EndSplineSet
AlternateSubs2: "'salt' Access All Alternates in Latin lookup 4-1" p.salt
Substitution2: "'smcp' Lowercase to Small Capitals lookup 16-1" p.smcp
EndChar

StartChar: b
Encoding: 98 98 9
Width: 554
VWidth: 0
Flags: W
HStem: -6 86.45<232.257 375.832> 455.25 83.75<195.188 379.518>
VStem: 56.1 91.3<113.95 436.122 500.5 785> 416.2 92<130.664 413.124>
LayerCount: 2
Fore
SplineSet
56.1 0 m 1
 56.1 785 l 1
 146.4 785 l 1
 146.4 500.5 l 1
 206.2 525.45 288.65 539 333.65 539 c 3
 483.6 539 508.2 406.95 508.2 263 c 0
 508.2 130.35 474.75 -6 333.65 -6 c 3
 267 -6 175.35 36.4 147.4 57.5 c 9
 126.05 0 l 1
 56.1 0 l 1
147.4 122.85 m 1
 194.8 101.6 251.95 80.45 323.75 80.45 c 3
 383.35 80.45 416.2 137.65 416.2 264.5 c 0
 416.2 420 382.35 455.25 323.75 455.25 c 1
 254.55 455.25 207.55 447.85 147.4 430.9 c 1
 147.4 122.85 l 1
EndSplineSet
AlternateSubs2: "'salt' Access All Alternates in Latin lookup 4-1" b.salt
Substitution2: "'smcp' Lowercase to Small Capitals lookup 16-1" b.smcp
EndChar

StartChar: q
Encoding: 113 113 10
Width: 555
VWidth: 0
Flags: HW
LayerCount: 2
Fore
SplineSet
46.7 268 m 3
 46.7 440.8 108.55 537 233.55 537 c 3
 339.55 537 451 518.75 499.05 512.05 c 1
 499.05 -270 l 17
 407.05 -270 l 9
 407.05 29 l 1
 349.35 2.55 278.55 -10 233.55 -10 c 3
 80.55 -10 46.7 104.9 46.7 268 c 3
138.7 269.05 m 3
 138.7 178.3 136.05 73.9 240.75 73.9 c 3
 306.65 73.9 334.7 77.9 407.05 98 c 1
 407.05 454 l 2
 241.05 454 l 2
 141.4 454 138.7 331.6 138.7 269.05 c 3
EndSplineSet
Substitution2: "'smcp' Lowercase to Small Capitals lookup 16-1" q.smcp
EndChar

StartChar: n
Encoding: 110 110 11
Width: 545
VWidth: 0
Flags: W
HStem: 0 21G<56.1 148.1 407.1 499.1> 0 21G<56.1 148.1 407.1 499.1> 455.5 84.5<233.894 384.053> 511 20G<56.1 132.369>
VStem: 56.1 92<0 412.536> 407.1 92<0 431.409>
LayerCount: 2
Fore
SplineSet
56.1 0 m 1xac
 56.1 531 l 1
 124.6 531 l 1x9c
 148.1 470.5 l 1
 204.9 504.9 255.6 540 336.6 540 c 3
 447.4 540 499.1 457.1 499.1 365.5 c 2
 499.1 0 l 9
 407.1 0 l 17
 407.1 366.1 l 2
 407.1 428.5 372.3 455.5 325.65 455.5 c 3
 252.1 455.5 215.35 437 148.1 401.5 c 1
 148.1 0 l 1
 56.1 0 l 1xac
EndSplineSet
AlternateSubs2: "'salt' Access All Alternates in Latin lookup 4-1" n.salt
Substitution2: "'smcp' Lowercase to Small Capitals lookup 16-1" n.smcp
EndChar

StartChar: i
Encoding: 105 105 12
Width: 205
VWidth: 0
Flags: W
HStem: 0 21G<55.35 147.35> 0 21G<55.35 147.35> 511 20G<55.35 147.35> 592.05 111.45<46.8465 158.39>
VStem: 46.7 111.85<592.154 703.428> 55.35 92<0 531>
LayerCount: 2
Fore
SplineSet
46.7 615.05 m 2x38
 46.7 678.5 l 2
 46.7 693.5 54.7 703.5 70.7 703.5 c 2
 135.7 703.5 l 2
 150.7 703.5 158.55 692.5 158.55 678.5 c 2
 158.55 615.05 l 2
 158.55 600.05 149.7 592.05 135.7 592.05 c 2
 70.7 592.05 l 2
 56.7 592.05 46.7 601.05 46.7 615.05 c 2x38
55.35 0 m 1xb4
 55.35 531 l 1
 147.35 531 l 1
 147.35 0 l 1
 55.35 0 l 1xb4
EndSplineSet
Substitution2: "'smcp' Lowercase to Small Capitals lookup 16-1" i.smcp
EndChar

StartChar: h
Encoding: 104 104 13
Width: 545
VWidth: 0
Flags: HW
LayerCount: 2
Fore
SplineSet
56.1 0 m 1
 56.1 783.7 l 1
 147.95 783.7 l 1
 147.95 470.5 l 1
 204.3 504.6 255.6 540 336.6 540 c 3
 447.4 540 499.1 457.1 499.1 365.5 c 2
 499.1 0 l 9
 407.1 0 l 17
 407.1 366.1 l 2
 407.1 428.5 373.15 455.5 325.65 455.5 c 3
 252.1 455.5 215.35 437 148.1 401.5 c 1
 148.1 0 l 1
 56.1 0 l 1
EndSplineSet
Substitution2: "'smcp' Lowercase to Small Capitals lookup 16-1" h.smcp
EndChar

StartChar: u
Encoding: 117 117 14
Width: 545
VWidth: 0
Flags: HW
LayerCount: 2
Fore
SplineSet
46.7 165.5 m 2
 46.7 531 l 9
 138.7 531 l 17
 138.7 164.9 l 2
 138.7 102.5 173.5 75.5 220.15 75.5 c 3
 293.7 75.5 330.45 94 397.7 129.5 c 1
 397.7 531 l 1
 489.7 531 l 1
 489.7 0 l 1
 421.2 0 l 1
 397.7 60.5 l 1
 338.95 26.4 290.2 -9 209.2 -9 c 3
 98.4 -9 46.7 73.9 46.7 165.5 c 2
EndSplineSet
AlternateSubs2: "'salt' Access All Alternates in Latin lookup 4-1" u.salt
Substitution2: "'smcp' Lowercase to Small Capitals lookup 16-1" u.smcp
EndChar

StartChar: r
Encoding: 114 114 15
Width: 423
VWidth: 0
Flags: W
HStem: 0 21G<56.1 148.1> 0 21G<56.1 148.1> 444.45 92.4<235.117 402.996>
VStem: 56.1 92<0 398.618> 56.1 70<509.682 531>
LayerCount: 2
Fore
SplineSet
56.1 0 m 1xb0
 56.1 531 l 1
 126.1 531 l 1xa8
 148.1 464 l 1
 202.5 499.15 256 536.85 333.65 536.85 c 27
 361 536.85 391 535.15 403.6 529.3 c 1
 403.6 439.35 l 1
 391 441.9 358.15 444.45 328.85 444.45 c 27
 254.85 444.45 213.55 426.6 148.1 386.15 c 1
 148.1 0 l 1
 56.1 0 l 1xb0
EndSplineSet
AlternateSubs2: "'salt' Access All Alternates in Latin lookup 4-1" r.salt
Substitution2: "'smcp' Lowercase to Small Capitals lookup 16-1" r.smcp
EndChar

StartChar: m
Encoding: 109 109 16
Width: 891
VWidth: 0
Flags: HW
LayerCount: 2
Fore
SplineSet
56.1 0 m 1
 56.1 531 l 1
 124.6 531 l 1
 148.1 468.8 l 1
 205.35 503.5 251.35 537.45 330.65 537.45 c 1
 396.4 537.45 452.4 509.35 475.1 462 c 1
 525.9 502.75 595.6 537.45 682.8 537.45 c 1
 781.7 537.45 845.3 465.6 845.3 362.1 c 2
 845.3 0 l 1
 753.3 0 l 1
 753.3 362.7 l 2
 753.3 419.15 719.35 452.95 671.85 452.95 c 1
 599.75 452.95 552.05 440.7 493.85 400.85 c 1
 493.85 399.65 494 365.15 494 363.8 c 2
 494 0 l 1
 402 0 l 1
 402 362.7 l 2
 402 419.15 367.2 452.95 319.7 452.95 c 1
 248.7 452.95 215.35 435.3 148.1 399.8 c 1
 148.1 0 l 1
 56.1 0 l 1
EndSplineSet
AlternateSubs2: "'salt' Access All Alternates in Latin lookup 4-1" m.salt
Substitution2: "'smcp' Lowercase to Small Capitals lookup 16-1" m.smcp
EndChar

StartChar: f
Encoding: 102 102 17
Width: 401
VWidth: 0
Flags: HW
LayerCount: 2
Fore
SplineSet
18.65 448 m 1
 18.65 514 l 1
 111.9 531 l 1
 111.9 630 l 2
 111.9 694.05 124.05 786 244.05 786 c 0
 293.05 786 334.9 777.75 382.4 762 c 1
 382.4 703.7 l 1
 381.4 703.7 266.9 704.7 266.9 704.7 c 2
 205 705.7 203.9 671.1 203.9 621 c 2
 203.9 531 l 1
 344.4 531 l 1
 344.4 448 l 1
 203.9 448 l 9
 203.9 0 l 17
 111.9 0 l 1
 111.9 448 l 1
 18.65 448 l 1
EndSplineSet
AlternateSubs2: "'salt' Access All Alternates in Latin lookup 4-1" f.salt
Substitution2: "'smcp' Lowercase to Small Capitals lookup 16-1" f.smcp
EndChar

StartChar: l
Encoding: 108 108 18
Width: 303
VWidth: 0
Flags: W
HStem: 0 62<199.112 285.1> 763 20G<56.1 148.1>
VStem: 56.1 92<104.606 783>
LayerCount: 2
Fore
SplineSet
56.1 189 m 2
 56.1 783 l 1
 148.1 783 l 1
 148.1 195 l 2
 148.1 110.7 169.9 91.6 202.1 83 c 2
 202.1 83 278.1 62 285.1 62 c 1
 285.1 0 l 1
 189.6 0 l 2
 109.9 0 56.1 48 56.1 189 c 2
EndSplineSet
Substitution2: "'smcp' Lowercase to Small Capitals lookup 16-1" l.smcp
EndChar

StartChar: j
Encoding: 106 106 19
Width: 224
VWidth: 0
Flags: HW
LayerCount: 2
Fore
SplineSet
56.1 615.05 m 2
 56.1 678.5 l 2
 56.1 693.5 64.1 703.5 80.1 703.5 c 2
 145.1 703.5 l 2
 160.1 703.5 168.1 692.5 168.1 678.5 c 2
 168.1 615.05 l 2
 168.1 600.05 159.1 592.05 145.1 592.05 c 2
 80.1 592.05 l 2
 66.1 592.05 56.1 601.05 56.1 615.05 c 2
65.75 -270 m 1
 65.75 531 l 1
 157.75 531 l 1
 157.75 -4 l 2
 158.75 -90 156.75 -190.3 128.75 -270 c 1
 65.75 -270 l 1
EndSplineSet
Substitution2: "'smcp' Lowercase to Small Capitals lookup 16-1" j.smcp
EndChar

StartChar: t
Encoding: 116 116 20
Width: 379
VWidth: 0
Flags: W
HStem: 0.7 62<256.913 342.9> 449 83<206.05 351.15> 449 62<18.65 50.45>
VStem: 114.05 92<105.564 449> 133.55 72.5<626.872 680>
LayerCount: 2
Fore
SplineSet
18.65 449 m 1xb0
 18.65 511 l 1xb0
 114.05 532 l 1xd0
 133.55 680 l 1
 206.05 680 l 1
 206.05 532 l 1xc8
 351.15 532 l 1
 351.15 449 l 1
 206.05 449 l 1xd0
 206.05 196 l 2
 206.05 111.4 227.7 92.3 259.9 83.7 c 2
 259.9 83.7 335.9 62.7 342.9 62.7 c 1
 342.9 0.7 l 1
 245.6 0.7 l 2
 168.15 0.7 114.05 49 114.05 190 c 2
 114.05 449 l 1
 18.65 449 l 1xb0
EndSplineSet
AlternateSubs2: "'salt' Access All Alternates in Latin lookup 4-1" t.salt
Substitution2: "'smcp' Lowercase to Small Capitals lookup 16-1" t.smcp
EndChar

StartChar: s
Encoding: 115 115 21
Width: 506
VWidth: 0
Flags: W
HStem: -5 85.55<89.9713 369.187> 16.7 63.85<59.3 288.637> 220.85 86.9<134.182 371.772> 451.45 84.55<135.789 426.097> 451.45 65.55<211.708 442.45>
VStem: 37.3 92<315.696 443.908> 377.3 92<89.0762 213.532>
LayerCount: 2
Fore
SplineSet
37.3 355 m 10xa6
 37.3 401 l 18
 37.3 483 72.3 536 175.3 536 c 3xb6
 240.95 536 393.45 527.1 442.45 517 c 9
 442.45 451.45 l 17x2e
 187 451.45 l 2
 130.65 451.45 129.3 430.2 129.3 398.6 c 10
 129.3 358.6 l 18
 129.3 309.45 153.75 307.75 187 307.75 c 2
 336.3 307.75 l 2
 427.2 307.75 469.3 252.1 469.3 176.5 c 1
 469.3 126 l 2
 469.3 17 403.3 -5 339.3 -5 c 3xb6
 276.2 -5 97 7.15 59.3 16.7 c 9
 59.3 80.55 l 17x66
 327 80.55 l 18
 329.55 80.55 377.3 76.5 377.3 129 c 2
 377.3 171.4 l 2
 377.3 202.95 366.8 220.85 327 220.85 c 10
 178.3 220.85 l 2
 84.3 220.85 37.3 252 37.3 355 c 10xa6
EndSplineSet
Substitution2: "'smcp' Lowercase to Small Capitals lookup 16-1" s.smcp
EndChar

StartChar: k
Encoding: 107 107 22
Width: 515
VWidth: 0
Flags: HW
LayerCount: 2
Fore
SplineSet
56.1 0 m 1
 56.1 782 l 1
 148.1 782 l 1
 148.1 345 l 1
 185.1 345 l 1
 373.85 531 l 1
 497.1 531 l 1
 271.15 303.5 l 1
 497.1 0 l 1
 384.85 0 l 1
 185.1 262 l 1
 148.1 262 l 1
 148.1 0 l 1
 56.1 0 l 1
EndSplineSet
Substitution2: "'smcp' Lowercase to Small Capitals lookup 16-1" k.smcp
EndChar

StartChar: g
Encoding: 103 103 23
Width: 555
VWidth: 0
Flags: HW
LayerCount: 2
Fore
SplineSet
44.55 111.55 m 0
 44.55 146.95 62.7 188.2 104.3 197.7 c 1
 60.3 225.7 46.15 291 46.15 344 c 0
 46.15 471 111.7 533 222.15 533 c 2
 537.15 533 l 1
 537.15 469.5 l 1
 462.15 451.5 l 1
 472.7 430.2 490.15 409.95 490.15 339.5 c 0
 490.15 275 464.75 149 320.65 149 c 2
 173.65 149 l 2
 157.65 149 132.8 146.05 132.8 120.8 c 0
 132.8 95.55 151.463 88.75 173.65 88.75 c 2
 373 88.75 l 2
 459.26 88.75 509.65 35.1 509.65 -54.5 c 2
 509.65 -116 l 2
 509.65 -180.5 486.15 -270 355.15 -270 c 2
 205.15 -270 l 2
 111.15 -270 43.65 -220.3 43.65 -116 c 2
 43.65 -35.8 l 1
 85.45 24.7 l 1
 57.45 43.5 44.55 78.1 44.55 111.55 c 0
135.8 -111.35 m 2
 135.8 -178.8 180.5 -185.5 215.5 -185.5 c 2
 347.2 -185.5 l 2
 403.8 -185.5 417.8 -154.75 417.8 -112.1 c 2
 417.8 -59.35 l 2
 417.8 -17 406.87 3.98603 354.15 4.1 c 2
 180.05 4.1 l 2
 152.193 4.1 135.8 10.9 135.8 10.9 c 1
 135.8 -111.35 l 2
138.15 344 m 0
 138.15 295 153.15 233.5 222.65 233.5 c 2
 309.25 233.5 l 2
 381.9 233.5 399.85 296.7 398.15 344 c 0
 395.6 409.957 379.15 448.5 308.25 448.5 c 2
 228.15 448.5 l 2
 153.05 448.5 138.15 394.8 138.15 344 c 0
EndSplineSet
AlternateSubs2: "'salt' Access All Alternates in Latin lookup 4-1" g.salt
Substitution2: "'smcp' Lowercase to Small Capitals lookup 16-1" g.smcp
EndChar

StartChar: v
Encoding: 118 118 24
Width: 543
VWidth: 0
Flags: W
HStem: 0 21G<213.571 325.514> 0 21G<213.571 325.514> 511 20G<18.65 125.886 417.943 525.15>
DStem2: 118.4 531 18.65 531 0.356401 -0.934333<0 434.571> 270.75 124 317.7 0 0.363893 0.931441<0 435.427>
LayerCount: 2
Fore
SplineSet
18.65 531 m 25xa0
 118.4 531 l 17
 270.75 124 l 9
 425.55 531 l 25
 525.15 531 l 25
 317.7 0 l 25
 221.2 0 l 25
 18.65 531 l 25xa0
EndSplineSet
Substitution2: "'smcp' Lowercase to Small Capitals lookup 16-1" v.smcp
EndChar

StartChar: w
Encoding: 119 119 25
Width: 807
VWidth: 0
Flags: HW
LayerCount: 2
Fore
SplineSet
18.65 531 m 1
 118.4 531 l 1
 261.6 124 l 1
 387.9 531 l 1
 484.1 531 l 1
 434.75 368.35 l 1
 543.1 124 l 1
 689.5 531 l 1
 789.4 531 l 1
 594.95 0 l 1
 498.45 0 l 1
 390.95 241.55 l 1
 311.3 0 l 1
 209.7 0 l 1
 18.65 531 l 1
EndSplineSet
Substitution2: "'smcp' Lowercase to Small Capitals lookup 16-1" w.smcp
EndChar

StartChar: y
Encoding: 121 121 26
Width: 560
VWidth: 0
Flags: HW
LayerCount: 2
Fore
SplineSet
19.65 531 m 1
 118.65 531 l 1
 237.45 127.85 l 2
 253.65 74.75 298.45 89 300 88.85 c 9
 439.55 531 l 1
 539.65 531 l 9
 319.3 -168 l 17
 244.9 -270 l 1
 184.2 -270 l 1
 272.95 0 l 0
 237.55 0 173.65 11.6 142.6 116.9 c 2
 19.65 531 l 1
EndSplineSet
Substitution2: "'smcp' Lowercase to Small Capitals lookup 16-1" y.smcp
EndChar

StartChar: x
Encoding: 120 120 27
Width: 537
VWidth: 0
Flags: W
HStem: 0 21G<22.5 149.522 387.678 506.7> 0 21G<22.5 149.522 387.678 506.7> 511 20G<22.5 149.193 387.621 514.7>
DStem2: 135.5 531 22.5 531 0.581151 -0.813796<0 232.281 354.978 586.828> 22.5 0 135.5 0 0.581151 0.813796<65.6701 297.52 418.067 652.498>
LayerCount: 2
Fore
SplineSet
22.5 0 m 1xa0
 212.1 266 l 1
 22.5 531 l 1
 135.5 531 l 1
 266.75 339.3 l 1
 401.7 531 l 1
 514.7 531 l 1
 322.95 263 l 1
 506.7 0 l 1
 401.7 0 l 1
 268.6 189.85 l 1
 135.5 0 l 1
 22.5 0 l 1xa0
EndSplineSet
AlternateSubs2: "'salt' Access All Alternates in Latin lookup 4-1" x.salt
Substitution2: "'smcp' Lowercase to Small Capitals lookup 16-1" x.smcp
EndChar

StartChar: V
Encoding: 86 86 28
Width: 674
VWidth: 0
Flags: HW
LayerCount: 2
Fore
SplineSet
42 732 m 1
 141.45 732 l 1
 341.5 136 l 1
 551.55 732 l 1
 651 732 l 1
 389.5 0 l 1
 291.5 0 l 1
 42 732 l 1
EndSplineSet
Substitution2: "'c2sc' Capitals to Small Capitals in Latin lookup 17 subtable" v.smcp
EndChar

StartChar: W
Encoding: 87 87 29
Width: 970
VWidth: 0
Flags: HW
LayerCount: 2
Fore
SplineSet
42 732 m 1
 141.45 732 l 1
 340.65 145.35 l 1
 508.15 732 l 1
 610.15 732 l 1
 546.8 510.3 l 1
 675.15 140.25 l 1
 847.75 732 l 1
 947.2 732 l 1
 725.7 0 l 1
 627.7 0 l 1
 501.2 353.75 l 1
 389.5 0 l 1
 291.5 0 l 1
 42 732 l 1
EndSplineSet
Substitution2: "'c2sc' Capitals to Small Capitals in Latin lookup 17 subtable" w.smcp
EndChar

StartChar: C
Encoding: 67 67 30
Width: 576
VWidth: 0
Flags: HW
LayerCount: 2
Fore
SplineSet
51.4 368 m 0
 51.4 602 97.75 740 296.75 740 c 0
 362.55 740 471.35 728.6 543.75 712.75 c 1
 543.75 639.95 l 17
 542.75 639.95 399.4 651 305.75 651 c 3
 186.9 651 143.4 603.15 143.4 366 c 0
 143.4 202 177.7 83 305.9 83 c 3
 410.9 83 543.75 90.3 543.75 90.3 c 1
 543.75 17.5 l 1
 474.95 2.55 363.15 -6.45 296.75 -6 c 0
 111.75 -5.55 51.4 148.35 51.4 368 c 0
EndSplineSet
Substitution2: "'c2sc' Capitals to Small Capitals in Latin lookup 17 subtable" c.smcp
EndChar

StartChar: D
Encoding: 68 68 31
Width: 658
VWidth: 0
Flags: W
HStem: 0 90.05<166.75 430.207> 644.5 87.5<166.75 431.981>
VStem: 74.75 92<90.05 644.5> 523.75 92<212.635 533.869>
LayerCount: 2
Fore
SplineSet
74.75 0 m 1
 74.75 732 l 2
 357.4 732 l 0
 578.5 732 615.75 521.55 615.75 363 c 0
 615.75 183.5 546.5 0 357.4 0 c 0
 74.75 0 l 1
166.75 90.05 m 1
 354.4 90.05 l 2
 475.15 90.05 523.75 211.95 523.75 364 c 0
 523.75 573.05 460.05 644.5 354.4 644.5 c 2
 166.75 644.5 l 1
 166.75 90.05 l 1
EndSplineSet
Substitution2: "'c2sc' Capitals to Small Capitals in Latin lookup 17 subtable" d.smcp
EndChar

StartChar: O
Encoding: 79 79 32
Width: 674
VWidth: 0
Flags: W
HStem: -4 89<225.604 463.268> 648 89<224.273 472.291>
VStem: 60.8 92<172.936 556.47> 540.8 92<176.435 556.17>
LayerCount: 2
Fore
SplineSet
60.8 361 m 3
 60.8 704 179.65 737 347.65 737 c 3
 520.65 737 632.8 704 632.8 361 c 3
 632.8 38 527.65 -4 347.65 -4 c 3
 167.65 -4 60.8 28 60.8 361 c 3
152.8 361 m 3
 152.8 119.6 198.65 85 347.65 85 c 3
 493.15 85 540.8 126.1 540.8 361 c 3
 540.8 640.65 476.9 648 347.65 648 c 3
 221.4 648 152.8 642 152.8 361 c 3
EndSplineSet
Substitution2: "'c2sc' Capitals to Small Capitals in Latin lookup 17 subtable" o.smcp
EndChar

StartChar: S
Encoding: 83 83 33
Width: 585
VWidth: 0
Flags: HW
LayerCount: 2
Fore
SplineSet
60.8 491.75 m 10
 60.8 557 l 18
 60.8 702 146.8 737.55 258.8 738 c 0
 326.05 738.6 474.4 720.95 517.8 712.65 c 9
 517.8 639 l 17
 453.8 643.45 279.2 649 269.3 649 c 1
 201.7 651.55 152.8 645.3 152.8 554 c 10
 152.8 496.25 l 18
 152.8 414.25 189.4 405.75 248.5 405.75 c 2
 383.3 405.75 l 18
 519.15 405.75 543.95 309.45 543.95 227.75 c 2
 543.95 165 l 2
 543.95 16.4 440.8 -8 341.8 -8 c 3
 272.1 -8 137.05 6.45 82.95 18.35 c 9
 82.95 92 l 17
 122.95 88 241.3 81 334.3 81 c 0
 375.6 81 451.95 84.35 451.95 163.65 c 2
 451.95 223.85 l 2
 451.95 276.65 436.15 313.75 374.3 313.75 c 10
 241.8 313.75 l 2
 77.3 313.75 60.8 413.3 60.8 491.75 c 10
EndSplineSet
Substitution2: "'c2sc' Capitals to Small Capitals in Latin lookup 17 subtable" s.smcp
EndChar

StartChar: G
Encoding: 71 71 34
Width: 614
VWidth: 0
Flags: HW
LayerCount: 2
Fore
SplineSet
51.4 370 m 3
 51.4 573.45 87.75 740 286.75 740 c 0
 354.8 740 468.5 728.1 548.25 711.5 c 1
 548.25 639 l 1
 542.25 639 398.95 652.5 295.75 652.5 c 3
 169.6 652.5 143.4 564.15 143.4 368 c 0
 143.4 154.7 179.15 85.45 296.9 83.75 c 0
 370.8 82.9 470.9 129.75 470.9 129.75 c 9
 470.9 311 l 25
 320.75 311 l 25
 320.75 371.5 l 17
 361.5 384.45 416.15 396.5 494.9 396.5 c 0
 515.9 396.5 538.9 395.5 562.9 393.5 c 9
 562.9 0 l 17
 494.75 0 l 0
 472.9 49 l 1
 436.4 25.6 377.9 -4.25 289.4 -5 c 1
 82.4 -8.65 51.4 158.9 51.4 370 c 3
EndSplineSet
Substitution2: "'c2sc' Capitals to Small Capitals in Latin lookup 17 subtable" g.smcp
EndChar

StartChar: Q
Encoding: 81 81 35
Width: 674
VWidth: 0
Flags: W
HStem: -144.25 89<374.363 538.35> -4 89<224.287 461.919> 648 89<222.297 471.046>
VStem: 60.8 92<170.294 556.47> 540.8 92<176.454 556.17>
LayerCount: 2
Fore
SplineSet
60.8 361 m 3
 60.8 704 174.55 737 345.95 737 c 3
 518.95 737 632.8 704 632.8 361 c 1
 632.8 38 525.95 -3.7 345.95 -4 c 1
 165.95 -4 60.8 28 60.8 361 c 3
152.8 361 m 3
 152.8 119.6 196.95 85 345.95 85 c 3
 491.45 85 540.8 126.1 540.8 361 c 3
 540.8 640.65 475.2 648 345.95 648 c 3
 219.7 648 152.8 642 152.8 361 c 3
312.35 -33 m 9
 371.85 -33 l 17
 425.45 -79.55 480.05 -74.9 538.35 -55.25 c 1
 538.35 -144.25 l 1
 458.55 -169.9 326.1 -140.65 312.35 -33 c 9
EndSplineSet
Substitution2: "'c2sc' Capitals to Small Capitals in Latin lookup 17 subtable" q.smcp
EndChar

StartChar: M
Encoding: 77 77 36
Width: 813
VWidth: 0
Flags: W
HStem: 0 21G<51.4 144.39 352.207 462.197 669.34 762.5> 0 21G<51.4 144.39 352.207 462.197 669.34 762.5> 712 20G<102.466 237.144 570.812 704.674>
DStem2: 51.4 0 142.95 0 0.0715376 0.997438<6.54926 576.169> 231.1 732 183.85 568.15 0.289257 -0.957251<143.178 605.17> 406.15 152.7 456.25 0 0.282422 0.95929<0 460.402> 703.05 732 625.2 568.15 0.0809493 -0.996718<157.01 726.999>
LayerCount: 2
Fore
SplineSet
51.4 0 m 1xa0
 103.9 732 l 1
 231.1 732 l 1
 406.15 152.7 l 1
 576.7 732 l 1
 703.05 732 l 1
 762.5 0 l 1
 670.95 0 l 1
 625.2 568.15 l 1
 456.25 0 l 1
 358.35 0 l 1
 183.85 568.15 l 1
 142.95 0 l 1
 51.4 0 l 1xa0
EndSplineSet
AlternateSubs2: "'salt' Access All Alternates in Latin lookup 4-1" M.salt
Substitution2: "'c2sc' Capitals to Small Capitals in Latin lookup 17 subtable" m.smcp
EndChar

StartChar: I
Encoding: 73 73 37
Width: 222
VWidth: 0
Flags: W
HStem: 0 21G<74.75 166.75> 0 21G<74.75 166.75> 712 20G<74.75 166.75>
VStem: 74.75 92<0 732>
LayerCount: 2
Fore
SplineSet
74.75 0 m 1xb0
 74.75 732 l 1
 166.75 732 l 1
 166.75 0 l 1
 74.75 0 l 1xb0
EndSplineSet
Substitution2: "'c2sc' Capitals to Small Capitals in Latin lookup 17 subtable" i.smcp
EndChar

StartChar: J
Encoding: 74 74 38
Width: 358
VWidth: 0
Flags: HW
LayerCount: 2
Fore
SplineSet
32.75 21.6 m 1
 36.15 90.6 l 1
 114.8 75.3 209.6 51.95 210.45 181.65 c 1
 210.45 732 l 1
 302.45 732 l 1
 302.45 165 l 2
 302.45 118 300.15 50 250.15 18 c 0
 197.15 -16 84.75 -12.4 32.75 21.6 c 1
EndSplineSet
Substitution2: "'c2sc' Capitals to Small Capitals in Latin lookup 17 subtable" j.smcp
EndChar

StartChar: H
Encoding: 72 72 39
Width: 637
VWidth: 0
Flags: HW
LayerCount: 2
Fore
SplineSet
74.75 0 m 1
 74.75 732 l 1
 166.75 732 l 1
 166.75 398.5 l 1
 489.75 398.5 l 1
 489.75 732 l 1
 581.75 732 l 1
 581.75 0 l 1
 489.75 0 l 1
 489.75 309.5 l 1
 166.75 309.5 l 1
 166.75 0 l 1
 74.75 0 l 1
EndSplineSet
Substitution2: "'c2sc' Capitals to Small Capitals in Latin lookup 17 subtable" h.smcp
EndChar

StartChar: E
Encoding: 69 69 40
Width: 567
VWidth: 0
Flags: W
HStem: 14 72.75<287.242 526.65> 315.35 94.3<166 386.104> 325.2 74.3<265.046 485.15> 642.25 89.75<171.456 463.777> 642.25 73.75<291.717 526.65>
VStem: 74 92<93.2274 315.35 409.65 636.442>
LayerCount: 2
Fore
SplineSet
74 128.7 m 2xc4
 74 596 l 2
 74 701.916 141.445 734.55 209 732 c 0xd4
 209 732 509.1 718.4 526.65 716 c 1
 526.65 642.25 l 1x8c
 218 642.25 l 2
 166 642.25 166 613.25 166 586.25 c 2
 166 409.65 l 1xd4
 485.15 399.5 l 1
 485.15 325.2 l 1xa4
 166 315.35 l 1
 166 138.75 l 2
 166.85 85.75 199 86.75 228 86.75 c 2
 526.65 86.75 l 1
 526.65 14 l 1
 511.2 11.9 219 -3 219 -3 c 0
 153.195 -6.7 74 9.7 74 128.7 c 2xc4
EndSplineSet
Substitution2: "'c2sc' Capitals to Small Capitals in Latin lookup 17 subtable" e.smcp
EndChar

StartChar: L
Encoding: 76 76 41
Width: 552
VWidth: 0
Flags: W
HStem: 0 89<173.224 519.75> 712 20G<74.75 166.75>
VStem: 74.75 92<96.7472 732>
LayerCount: 2
Fore
SplineSet
74.75 130.5 m 2
 74.75 732 l 1
 166.75 732 l 1
 166.75 141 l 2
 166.75 88 199.75 89 228.75 89 c 2
 519.75 89 l 1
 519.75 0 l 1
 215.25 0 l 2
 145.5 0 74.75 17.5 74.75 130.5 c 2
EndSplineSet
Substitution2: "'c2sc' Capitals to Small Capitals in Latin lookup 17 subtable" l.smcp
EndChar

StartChar: F
Encoding: 70 70 42
Width: 567
VWidth: 0
Flags: HW
LayerCount: 2
Fore
SplineSet
74 0 m 17
 74 595.4 l 2
 74 699.25 139.345 734.7 209 732 c 0
 209 732 509.1 718.4 526.65 716 c 1
 526.65 642.25 l 1
 218 642.25 l 2
 166 642.25 166 613.25 166 586.25 c 2
 166 409.65 l 1
 485.15 399.5 l 1
 485.15 325.2 l 1
 166 315.35 l 1
 166 0 l 9
 74 0 l 17
EndSplineSet
Substitution2: "'c2sc' Capitals to Small Capitals in Latin lookup 17 subtable" f.smcp
EndChar

StartChar: K
Encoding: 75 75 43
Width: 601
VWidth: 0
Flags: HW
LayerCount: 2
Fore
SplineSet
74.75 0 m 1
 74.75 732 l 1
 165.25 732 l 1
 165.25 410 l 1
 240.95 410 l 1
 458.8 732 l 1
 568.75 732 l 1
 324.4 366.55 l 1
 568.75 0 l 1
 458.8 0 l 1
 240.95 322.5 l 1
 166.25 322.5 l 9
 166.25 0 l 17
 74.75 0 l 1
EndSplineSet
Substitution2: "'c2sc' Capitals to Small Capitals in Latin lookup 17 subtable" k.smcp
EndChar

StartChar: T
Encoding: 84 84 44
Width: 582
VWidth: 0
Flags: W
HStem: 0 21G<250.75 342.75> 0 21G<250.75 342.75> 643 89<41.25 250.75 342.75 558.25>
VStem: 250.75 92<0 643>
LayerCount: 2
Fore
SplineSet
41.25 643 m 1xb0
 41.25 732 l 1
 558.25 732 l 1
 558.25 643 l 1
 342.75 643 l 1
 342.75 0 l 1
 250.75 0 l 1
 250.75 643 l 1
 41.25 643 l 1xb0
EndSplineSet
Substitution2: "'c2sc' Capitals to Small Capitals in Latin lookup 17 subtable" t.smcp
EndChar

StartChar: P
Encoding: 80 80 45
Width: 586
VWidth: 0
Flags: W
HStem: 0 21G<57.6 149.6> 0 21G<57.6 149.6> 290.5 87.5<149.952 419.359> 310.5 67.5<149.6 380.798> 643.5 88.5<149.6 417.771>
VStem: 57.6 92<0 310.5 378 643.5> 452 93<409.615 606.451>
LayerCount: 2
Fore
SplineSet
57.6 0 m 1x9e
 57.6 732 l 1
 362.35 732 l 2
 444.8 732 545 700.2 545 516.25 c 0
 545 303.35 439.05 289.45 362.35 290.5 c 0xae
 322.35 290.95 154.6 307.5 149.6 310.5 c 1
 149.6 0 l 1
 57.6 0 l 1x9e
149.6 378 m 2x1e
 359.35 378 l 2x2e
 409.25 378 452 395.1 452 515.8 c 1
 450.3 634.65 394.35 643.5 359.35 643.5 c 2
 149.6 643.5 l 1
 149.6 378 l 2x1e
EndSplineSet
Substitution2: "'c2sc' Capitals to Small Capitals in Latin lookup 17 subtable" p.smcp
EndChar

StartChar: R
Encoding: 82 82 46
Width: 596
VWidth: 0
Flags: W
HStem: 0 21G<57.6 149.6 463.702 574.75> 0 21G<57.6 149.6 463.702 574.75> 307 78<149.75 239.1> 643.5 88.5<149.75 425.434>
VStem: 57.6 92<0 307 385 643.5> 456.1 93<409.107 611.597>
DStem2: 424.95 298.25 328.6 293 0.448831 -0.893617<0 288.357>
LayerCount: 2
Fore
SplineSet
57.6 0 m 1xbc
 57.6 732 l 1
 371.85 732 l 2
 472.1 732 549.1 678.15 549.1 509.75 c 0
 549.1 322.15 456.4 304.65 424.95 298.25 c 1
 574.75 0 l 1
 473.6 0 l 1
 328.6 293 l 1
 149.6 307 l 1
 149.6 0 l 1
 57.6 0 l 1xbc
149.75 385 m 1
 368.1 385 l 2
 414.85 385 456.1 388.9 456.1 509.75 c 0
 456.1 627.7 412.1 643.5 368.1 643.5 c 2
 149.75 643.5 l 1
 149.75 385 l 1
EndSplineSet
Substitution2: "'c2sc' Capitals to Small Capitals in Latin lookup 17 subtable" r.smcp
EndChar

StartChar: U
Encoding: 85 85 47
Width: 673
VWidth: 0
Flags: HW
LayerCount: 2
Fore
SplineSet
74.75 320 m 2
 74.75 732 l 1
 166.75 732 l 1
 166.75 320 l 2
 166.75 87.45 235.05 84 348.75 84 c 3
 446.25 84 524.75 94.85 524.75 320 c 2
 524.75 732 l 1
 617.75 732 l 1
 617.75 320 l 2
 617.75 -3 469.75 -5 348.75 -5 c 3
 212.75 -5 74.75 -13 74.75 320 c 2
EndSplineSet
Substitution2: "'c2sc' Capitals to Small Capitals in Latin lookup 17 subtable" u.smcp
EndChar

StartChar: B
Encoding: 66 66 48
Width: 598
VWidth: 0
Flags: HW
LayerCount: 2
Fore
SplineSet
74.75 0 m 1
 74.75 732 l 1
 362.15 732 l 2
 509.65 732 556.65 628.8 556.65 540.5 c 0
 556.65 468.3 533.55 399.6 462.4 380 c 1
 511.05 369.7 562.75 315.3 562.75 207 c 0
 562.75 95.7 516.9 0 362.9 0 c 2
 74.75 0 l 1
167.6 87.5 m 1
 361.4 87.5 l 2
 407.9 87.5 470.75 102.45 470.75 210.2 c 0
 470.75 278.65 438.65 340 361.4 340 c 9
 167.6 340 l 1
 167.6 87.5 l 1
167.6 426 m 1
 359.9 426 l 2
 428.15 426 465.25 463.45 465.25 537.35 c 0
 465.25 626.4 407.4 644.5 359.9 644.5 c 2
 167.6 644.5 l 1
 167.6 426 l 1
EndSplineSet
Substitution2: "'c2sc' Capitals to Small Capitals in Latin lookup 17 subtable" b.smcp
EndChar

StartChar: N
Encoding: 78 78 49
Width: 679
VWidth: 0
Flags: W
HStem: 0 21G<74.75 167.75 518.594 623.6> 0 21G<74.75 167.75 518.594 623.6> 712 20G<74.75 181.686 531.6 623.6>
VStem: 74.75 93<0 559.5> 531.6 92<171 732>
DStem2: 168.75 732 167.75 559.5 0.543093 -0.839673<144.3 668.118>
LayerCount: 2
Fore
SplineSet
74.75 0 m 1xb8
 74.75 732 l 1
 168.75 732 l 1
 531.6 171 l 1
 531.6 732 l 1
 623.6 732 l 1
 623.6 0 l 0
 531.6 0 l 1
 167.75 559.5 l 1
 167.75 0 l 1
 74.75 0 l 1xb8
EndSplineSet
AlternateSubs2: "'salt' Access All Alternates in Latin lookup 4-1" N.salt
Substitution2: "'c2sc' Capitals to Small Capitals in Latin lookup 17 subtable" n.smcp
EndChar

StartChar: X
Encoding: 88 88 50
Width: 608
VWidth: 0
Flags: W
HStem: 0 21G<45 157.484 467.52 580.1> 0 21G<45 157.484 467.52 580.1> 712 20G<42 154.682 472.185 585.1>
DStem2: 143.1 732 42 732 0.512597 -0.858629<0 336.705 464.985 800.698> 45 0 146.1 0 0.514323 0.857596<51.9981 386.979 515.104 853.549>
LayerCount: 2
Fore
SplineSet
42 732 m 1xa0
 143.1 732 l 1
 311.85 440.6 l 1
 484 732 l 1
 585.1 732 l 1
 368.05 369.8 l 1
 580.1 0 l 1
 479 0 l 1
 311.85 291.2 l 1
 146.1 0 l 1
 45 0 l 1
 255.5 369.8 l 1
 42 732 l 1xa0
EndSplineSet
AlternateSubs2: "'salt' Access All Alternates in Latin lookup 4-1" X.salt
Substitution2: "'c2sc' Capitals to Small Capitals in Latin lookup 17 subtable" x.smcp
EndChar

StartChar: Z
Encoding: 90 90 51
Width: 561
VWidth: 0
Flags: HW
LayerCount: 2
Fore
SplineSet
32.75 0 m 1
 32.75 89 l 1
 412.25 643 l 1
 32.75 643 l 1
 32.75 732 l 1
 528.75 732 l 1
 528.75 643 l 1
 153.75 89 l 1
 528.75 89 l 1
 528.75 0 l 1
 32.75 0 l 1
EndSplineSet
Substitution2: "'c2sc' Capitals to Small Capitals in Latin lookup 17 subtable" z.smcp
EndChar

StartChar: Y
Encoding: 89 89 52
Width: 637
VWidth: 0
Flags: HW
LayerCount: 2
Fore
SplineSet
42 732 m 1
 142.5 732 l 1
 318.9 357 l 1
 513.5 732 l 1
 614 732 l 1
 364.3 251 l 1
 364.3 0 l 1
 272.3 0 l 1
 272.3 251 l 1
 42 732 l 1
EndSplineSet
Substitution2: "'c2sc' Capitals to Small Capitals in Latin lookup 17 subtable" y.smcp
EndChar

StartChar: AE
Encoding: 198 198 59
Width: 930
VWidth: 0
Flags: HW
LayerCount: 2
Fore
SplineSet
28.05 0 m 1
 322 596.2 l 2
 395.35 743.35 478.55 733.05 569.95 732 c 1
 569.95 732 870.45 718.4 888 716 c 1
 888 641.4 l 1
 578.95 641.4 l 2
 530.35 641.4 530.35 614.95 528.65 587.95 c 1
 528.65 405.4 l 1
 846.5 395.25 l 1
 846.5 320.95 l 1
 528.65 311.1 l 1
 528.65 137.05 l 2
 528.65 84.05 561.65 89.3 590.65 89.3 c 2
 887.15 88.45 l 1
 887.15 12.3 l 1
 871.7 10.2 581.65 -4.7 581.65 -4.7 c 2
 515.05 -8.7 436.65 8 436.65 121 c 2
 436.65 218 l 1
 236.1 218 l 1
 129.15 0 l 1
 28.05 0 l 1
279.25 305.5 m 1
 436.65 305.5 l 1
 436.65 626.5 l 1
 279.25 305.5 l 1
EndSplineSet
EndChar

StartChar: Eth
Encoding: 208 208 61
Width: 658
VWidth: 0
Flags: HW
LayerCount: 2
Fore
SplineSet
9.75 344.5 m 1
 9.75 401.5 l 1
 74.75 401.5 l 1
 74.75 731.15 l 1
 74.75 732 307.25 732 358.25 732 c 1
 579.35 732 615.75 521.55 615.75 363 c 0
 615.75 183.5 547.35 0 358.25 0 c 2
 74.75 0 l 1
 74.75 344.5 l 1
 9.75 344.5 l 1
166.75 90.05 m 1
 355.25 90.05 l 2
 476 90.05 521.2 211.95 521.2 364 c 0
 521.2 569.65 454.1 640.25 355.25 640.25 c 2
 166.75 639.4 l 1
 166.75 401.5 l 1
 298.25 401.5 l 1
 298.25 344.5 l 1
 166.75 344.5 l 1
 166.75 90.05 l 1
EndSplineSet
Substitution2: "'c2sc' Capitals to Small Capitals in Latin lookup 17 subtable" eth.smcp
EndChar

StartChar: Oslash
Encoding: 216 216 76
Width: 676
VWidth: 0
Flags: HW
LayerCount: 2
Fore
SplineSet
62.15 361 m 0
 62.15 704 176.75 737 348.15 737 c 0
 420 737 481.45 731.85 528.9 700.15 c 1
 550.05 732 l 1
 614.8 732 l 1
 569 662.5 l 1
 610.85 608.35 634.15 516.65 634.15 361 c 0
 634.15 38 528.15 -4 348.15 -4 c 0
 270.55 -4 207.35 2 159.6 34.9 c 1
 136.55 0 l 1
 71.8 0 l 1
 120.1 74.3 l 1
 82 127.45 62.15 214.85 62.15 361 c 0
154.15 361 m 0
 154.15 265.3 161.8 204.2 180.65 164.65 c 1
 478.1 624.05 l 1
 446.8 647.4 403.25 648 348.15 648 c 0
 221.9 648 154.15 642 154.15 361 c 0
212.7 115.3 m 1
 243.15 91.3 286.15 85 348.15 85 c 0
 493.65 85 542.15 126.1 542.15 361 c 0
 542.15 468.9 532.65 535.35 512.5 576.95 c 1
 212.7 115.3 l 1
EndSplineSet
Substitution2: "'c2sc' Capitals to Small Capitals in Latin lookup 17 subtable" oslash.smcp
EndChar

StartChar: ae
Encoding: 230 230 88
Width: 863
VWidth: 0
Flags: HW
LayerCount: 2
Fore
SplineSet
37.3 133.65 m 2
 37.3 172.3 l 2
 37.3 251.55 85.05 308.75 176.45 308.75 c 2
 176.45 308.75 380.45 307.75 380.45 308.75 c 2
 380.45 308.75 381.45 385.1 380.45 386.1 c 1
 380.45 445.9 349.95 463.6 301.45 463.6 c 0
 234.25 463.6 139.45 457.55 54.45 451.6 c 1
 54.45 514.6 l 1
 120.9 538.25 209.8 545.25 308.8 546.1 c 1
 362.25 546.65 410.8 530.15 439.25 492.3 c 1
 477.3 532.7 535.15 540.1 616.9 540.1 c 1
 749.7 540.1 826.05 525.7 826.05 352.4 c 0
 826.05 270.6 781.9 228.9 685.9 228.9 c 2
 477.05 228.9 l 1
 477.05 111.85 503.65 84.45 581.05 84.45 c 0
 670.05 84.45 741.05 83.6 816.05 94.6 c 1
 816.05 28.1 l 1
 736.7 3.75 643.05 0.1 560.05 0.1 c 0
 475.9 0.1 443.1 27.35 408.45 69.8 c 1
 404.05 63.65 261.9 -1.2 174.95 -0.9 c 0
 94 -0.15 37.3 53 37.3 133.65 c 2
129.3 141.95 m 2
 129.3 95 154 83.6 185.75 83.6 c 0
 259.9 83.6 380.45 131.9 380.45 131.9 c 1
 380.45 248.2 l 1
 183.95 233.85 l 2
 142.6 230 129.3 201.45 129.3 171.85 c 2
 129.3 141.95 l 2
477.05 307.9 m 1
 676 307.9 l 2
 715.95 307.9 734.05 323.45 734.05 354.35 c 0
 734.05 449 716.75 457.1 619.85 457.1 c 0
 517.5 457.1 476.75 457 477.05 307.9 c 1
EndSplineSet
Substitution2: "'smcp' Lowercase to Small Capitals lookup 16-1" ae.smcp
EndChar

StartChar: ccedilla
Encoding: 231 231 89
Width: 498
VWidth: 0
Flags: HW
LayerCount: 2
Fore
SplineSet
46.7 266 m 0
 46.7 494.4 119.7 537.7 221.7 537.7 c 3
 273.7 537.7 379.4 525.7 454.2 508.5 c 1
 454.2 445.5 l 1
 454.2 445.5 327.05 453.2 238.05 453.2 c 3
 176.85 453.2 138.7 442.45 138.7 262.3 c 3
 138.7 113.95 166.05 77.8 238.05 77.8 c 3
 330.05 77.8 461.2 88.35 461.2 88.35 c 1
 461.2 23.65 l 17
 381.1 -3.85 304.7 -5.7 221.7 -6.7 c 0
 122.7 -6.7 46.7 36.75 46.7 266 c 0
170.35 -131.35 m 25
 220.95 -116.35 l 17
 248.95 -104.35 252.35 -75.15 252.35 -37.15 c 1
 326.85 -37.15 l 17
 326.85 -139.15 304.65 -174.65 222.85 -174.65 c 2
 170.35 -174.65 l 9
 170.35 -131.35 l 25
EndSplineSet
Substitution2: "'smcp' Lowercase to Small Capitals lookup 16-1" ccedilla.smcp
EndChar

StartChar: eth
Encoding: 240 240 98
Width: 538
VWidth: 0
Flags: HW
LayerCount: 2
Fore
SplineSet
37.3 264 m 0
 37.3 434 82.7 531 217.7 531 c 2
 305.7 531 l 2
 311.7 531 362.3 531 377.2 517.5 c 1
 363.95 561.25 342.15 606.05 307.7 639.9 c 1
 171.25 583.1 l 1
 146.05 642.5 l 1
 245 683.5 l 1
 203.5 703.8 154.85 706.35 116.2 704.5 c 1
 116.2 783 l 1
 214.5 783 283.7 763.7 337.95 723.7 c 1
 449.05 769.65 l 1
 475.1 710.25 l 1
 390.55 675.6 l 1
 487.85 558.3 501.3 374.25 501.3 264 c 0
 501.3 65 426.2 0 319.2 0 c 2
 217.7 0 l 2
 80.7 0 37.3 85 37.3 264 c 0
129.3 264 m 0
 129.3 101.05 168.4 91 224 91 c 2
 313.2 91 l 2
 391.45 91 409.3 151.7 409.3 264 c 0
 409.3 404.7 390.6 442 313.2 442 c 2
 224 442 l 2
 162.8 442 129.3 415.1 129.3 264 c 0
EndSplineSet
Substitution2: "'smcp' Lowercase to Small Capitals lookup 16-1" eth.smcp
EndChar

StartChar: oslash
Encoding: 248 248 105
Width: 571
VWidth: 0
Flags: HW
LayerCount: 2
Fore
SplineSet
49.7 258 m 0
 49.7 475 110.45 536 285.95 536 c 0
 347.3 536 394.2 528.7 429.65 510.1 c 1
 445.7 531 l 1
 514.7 531 l 1
 472.55 475.3 l 1
 508.5 432.15 522.2 362.9 522.2 258 c 0
 522.2 61 466.75 -5 285.95 -5 c 0
 218.65 -5 169.05 5 132.75 27 c 1
 112.3 0 l 1
 47.55 0 l 1
 94.1 62.65 l 1
 61.7 104.65 49.7 168.2 49.7 258 c 0
141.7 258 m 0
 141.7 205.85 147.65 169.85 158.7 145.75 c 1
 375.45 438.3 l 1
 354 449.2 324.7 451.5 285.95 451.5 c 0
 181.9 451.5 141.7 437.45 141.7 258 c 0
187.95 98.8 m 1
 211.1 81.65 244.65 79.5 285.95 79.5 c 0
 386 79.5 430.2 92.6 430.2 258 c 0
 430.2 326.35 424.25 368.35 409.8 394.9 c 1
 187.95 98.8 l 1
EndSplineSet
Substitution2: "'smcp' Lowercase to Small Capitals lookup 16-1" oslash.smcp
EndChar

StartChar: thorn
Encoding: 254 254 106
Width: 554
VWidth: 0
Flags: HW
LayerCount: 2
Fore
SplineSet
65.35 -270 m 1
 65.35 782 l 1
 157.35 782 l 1
 157.35 471.6 l 17
 185.3 492.7 276.1 538.5 342.75 538.5 c 3
 476.2 538.5 517.3 410.2 517.3 266.1 c 0
 517.3 127 495.25 -10.75 342.75 -10.75 c 3
 297.75 -10.75 217 1.95 157.35 27.5 c 1
 157.35 -270 l 1
 65.35 -270 l 1
157.35 96.5 m 1
 228.55 75.3 284.05 75.55 332.85 73 c 1
 388.9 73 425.3 109.1 425.3 266.3 c 0
 425.3 388.9 389.9 452.05 332.85 452.05 c 1
 272.95 448.65 211.55 429.2 157.35 406.25 c 1
 157.35 96.5 l 1
EndSplineSet
Substitution2: "'smcp' Lowercase to Small Capitals lookup 16-1" thorn.smcp
EndChar

StartChar: Thorn
Encoding: 222 222 113
Width: 554
VWidth: 0
Flags: HW
LayerCount: 2
Fore
SplineSet
56.1 0 m 1
 56.1 243 56.1 486 56.1 729 c 1
 148.1 729 l 1
 148.1 588 l 1
 331.6 588 l 2
 410.6 587.15 507.6 554 507.6 375 c 0
 507.6 171 405.6 149.45 331.6 149 c 0
 279.65 148.7 263.35 144.45 148.1 168 c 1
 148.1 0 l 1
 56.1 0 l 1
148.1 236.5 m 2
 319.6 236.5 l 2
 371.6 235.65 414.6 254.95 414.6 376.25 c 1
 412.9 495.25 355.35 499.65 319.6 499.65 c 1
 148.1 499.65 l 1
 148.1 236.5 l 2
EndSplineSet
Substitution2: "'c2sc' Capitals to Small Capitals in Latin lookup 17 subtable" thorn.smcp
EndChar

StartChar: uni00B5
Encoding: 181 181 114
Width: 592
VWidth: 0
Flags: HW
LayerCount: 2
Fore
SplineSet
84.15 165.5 m 1
 84.15 531 l 1
 176.15 531 l 1
 176.15 164.9 l 2
 176.15 102.5 210.95 75.5 257.6 75.5 c 0
 331.15 75.5 367.9 94 435.15 129.5 c 1
 435.15 531 l 1
 527.15 531 l 1
 527.15 0 l 1
 458.65 0 l 1
 435.15 60.5 l 1
 379.4 28.2 330.65 -4.95 258.05 -6.75 c 0
 225.95 -7.5 198.65 -0.45 176.15 12.7 c 1
 176.15 -270 l 1
 84.15 -270 l 1
 84.15 165.5 l 1
EndSplineSet
EndChar

StartChar: germandbls
Encoding: 223 223 115
Width: 570
VWidth: 0
Flags: HW
LayerCount: 2
Fore
SplineSet
56.1 0 m 1
 56.1 566 l 2
 56.1 682 136.8 778.05 283.6 778.05 c 3
 576.5 778.05 550.25 537.3 443.2 451.55 c 1
 390.85 405.9 356.6 386.8 356.6 348 c 3
 356.6 284.6 552.1 321.5 552.1 177.5 c 2
 552.1 135 l 2
 552.95 22.85 458.9 -8 391.1 -8 c 3
 323.1 -8 262.1 5.95 224.85 11 c 9
 224.85 81.65 l 17
 263.65 81.05 324 76.5 384.6 76.5 c 3
 422.05 76.5 458.4 99.8 460.1 139.8 c 2
 460.1 180.65 l 1
 460.1 254.95 266.1 207.95 266.1 348.45 c 3
 266.1 412.45 288.15 438.6 378.25 506.6 c 0
 409.65 531.2 425.85 561.55 425.85 602.1 c 3
 425.85 675.1 350.3 689.5 285.1 689.5 c 3
 208.65 689.5 148.1 653.5 148.1 552.5 c 2
 148.1 0 l 1
 56.1 0 l 1
EndSplineSet
Substitution2: "'smcp' Lowercase to Small Capitals lookup 16-1" germandbls.smcp
EndChar

StartChar: asciitilde
Encoding: 126 126 116
Width: 432
VWidth: 0
Flags: HW
LayerCount: 2
Fore
SplineSet
46.7 575.9 m 17
 84.45 609.35 111.15 644.8 164.6 644.8 c 27
 208.6 644.8 230.6 609.8 270.6 609.8 c 1
 309.75 609.5 338.2 632.75 363.6 649.8 c 9
 386.2 603 l 17
 359.95 576.8 324.35 531 271.65 531 c 3
 226.95 531 200.6 566 161.6 566 c 3
 122.6 566 103.85 546.5 68.6 531 c 9
 46.7 575.9 l 17
EndSplineSet
EndChar

StartChar: asciicircum
Encoding: 94 94 117
Width: 389
VWidth: 0
Flags: HW
LayerCount: 2
Fore
SplineSet
46.7 531 m 1
 161.15 662.5 l 1
 241.15 662.5 l 1
 343.2 531 l 1
 266.2 531 l 1
 199.35 599 l 1
 124.7 531 l 1
 46.7 531 l 1
161.15 662.5 m 1
241.15 662.5 m 1
EndSplineSet
EndChar

StartChar: grave
Encoding: 96 96 118
Width: 242
VWidth: 0
Flags: HW
LayerCount: 2
Fore
SplineSet
18.65 665.5 m 25
 121.15 665.5 l 25
 223.65 531 l 25
 148.65 531 l 25
 18.65 665.5 l 25
EndSplineSet
Substitution2: "'smcp' Lowercase to Small Capitals lookup 16-1" grave.smcp
EndChar

StartChar: dieresis
Encoding: 168 168 119
Width: 453
VWidth: 0
Flags: HW
LayerCount: 2
Fore
SplineSet
46.7 582 m 0
 46.7 611.2 70.75 634.25 99.95 634.25 c 0
 129.15 634.25 152.2 611.2 152.2 582 c 0
 152.2 552.8 129.15 528.75 99.95 528.75 c 0
 70.75 528.75 46.7 552.8 46.7 582 c 0
301.7 582 m 0
 301.7 611.2 325.75 634.25 354.95 634.25 c 0
 384.15 634.25 407.2 611.2 407.2 582 c 0
 407.2 552.8 384.15 528.75 354.95 528.75 c 0
 325.75 528.75 301.7 552.8 301.7 582 c 0
EndSplineSet
Substitution2: "'smcp' Lowercase to Small Capitals lookup 16-1" dieresis.smcp
EndChar

StartChar: acute
Encoding: 180 180 120
Width: 242
VWidth: 0
Flags: HW
LayerCount: 2
Fore
SplineSet
18.65 531 m 25
 121.15 665.5 l 25
 223.65 665.5 l 25
 93.65 531 l 25
 18.65 531 l 25
EndSplineSet
Substitution2: "'smcp' Lowercase to Small Capitals lookup 16-1" acute.smcp
EndChar

StartChar: cedilla
Encoding: 184 184 121
Width: 249
VWidth: 0
Flags: HW
LayerCount: 2
Fore
SplineSet
46.7 -131.2 m 25
 97.3 -116.2 l 17
 125.3 -104.2 128.7 -75 128.7 -37 c 1
 203.2 -37 l 17
 203.2 -139 181 -174.5 99.2 -174.5 c 2
 46.7 -174.5 l 9
 46.7 -131.2 l 25
EndSplineSet
EndChar

StartChar: exclam
Encoding: 33 33 122
Width: 270
VWidth: 0
Flags: HW
LayerCount: 2
Fore
SplineSet
77.8 23 m 2
 77.8 89 l 2
 77.8 104 85.8 114 101.8 114 c 2
 165.8 114 l 2
 180.8 114 188.8 103 188.8 89 c 2
 188.8 23 l 2
 188.8 8 179.8 0 165.8 0 c 2
 101.8 0 l 2
 87.8 0 77.8 9 77.8 23 c 2
81.7 731 m 1
 184.95 731 l 1
 175.85 196 l 1
 90.2 196 l 1
 81.7 731 l 1
EndSplineSet
Substitution2: "'smcp' Lowercase to Small Capitals lookup 16-1" exclam.smcp
EndChar

StartChar: degree
Encoding: 176 176 123
Width: 296
VWidth: 0
Flags: HW
LayerCount: 2
Fore
SplineSet
46.7 632 m 0
 46.7 689 92.7 735 148.7 735 c 0
 204.7 735 249.7 689 249.7 632 c 0
 249.7 575 204.7 530 148.7 530 c 0
 92.7 530 46.7 575 46.7 632 c 0
96.55 632 m 27
 96.55 603.5 120.2 580.85 148.7 580.85 c 27
 177.2 580.85 199.85 603.5 199.85 632 c 27
 199.85 660.5 177.2 684.15 148.7 684.15 c 27
 120.2 684.15 96.55 660.5 96.55 632 c 27
EndSplineSet
Substitution2: "'smcp' Lowercase to Small Capitals lookup 16-1" degree.smcp
EndChar

StartChar: period
Encoding: 46 46 124
Width: 269
VWidth: 0
Flags: W
HStem: 0 114<79.5965 190.32>
VStem: 79.45 111<0.104492 113.884>
LayerCount: 2
Fore
SplineSet
79.45 23 m 2
 79.45 89 l 2
 79.45 104 87.45 114 103.45 114 c 2
 165.45 114 l 2
 183.45 114 190.45 105 190.45 89 c 2
 190.45 23 l 2
 190.45 5 179.45 0 165.45 0 c 2
 103.45 0 l 2
 89.45 0 79.45 9 79.45 23 c 2
EndSplineSet
EndChar

StartChar: periodcentered
Encoding: 183 183 125
Width: 269
VWidth: 0
Flags: HW
LayerCount: 2
Fore
SplineSet
79.45 350.1 m 2
 79.45 416.1 l 2
 79.45 431.1 87.45 441.1 103.45 441.1 c 2
 165.45 441.1 l 2
 183.45 441.1 190.45 432.1 190.45 416.1 c 2
 190.45 350.1 l 2
 190.45 332.1 179.45 327.1 165.45 327.1 c 2
 103.45 327.1 l 2
 89.45 327.1 79.45 336.1 79.45 350.1 c 2
EndSplineSet
Substitution2: "'smcp' Lowercase to Small Capitals lookup 16-1" periodcentered.smcp
EndChar

StartChar: comma
Encoding: 44 44 126
Width: 267
VWidth: 0
Flags: W
HStem: -88 36.5<84.45 112.868>
VStem: 79.45 109<0.146961 114.835> 115.45 73<-49.2062 0>
LayerCount: 2
Fore
SplineSet
79.45 25 m 2xc0
 79.45 88 l 2
 79.45 106 88.45 115 104.45 115 c 2
 164.45 115 l 2
 182.45 115 188.45 103 188.45 88 c 2xc0
 188.45 -11 l 2
 188.45 -110.35 84.45 -88 84.45 -88 c 1
 84.45 -51.5 l 0
 114.45 -52.5 115.45 -32.85 115.45 -22 c 2
 115.45 0 l 1xa0
 104.45 0 l 2
 90.45 0 79.45 8 79.45 25 c 2xc0
EndSplineSet
EndChar

StartChar: bullet
Encoding: 256 8226 127
Width: 311
VWidth: 0
Flags: HW
LayerCount: 2
Fore
SplineSet
79.45 335.75 m 2
 79.45 426.25 l 2
 79.45 447.25 90.45 461.25 112.45 461.25 c 2
 196.95 461.25 l 2
 221.95 461.25 231.95 448.25 231.95 426.25 c 2
 231.95 335.75 l 2
 231.95 311.75 216.95 303.75 196.95 303.75 c 2
 112.45 303.75 l 2
 92.45 303.75 79.45 315.75 79.45 335.75 c 2
EndSplineSet
Substitution2: "'smcp' Lowercase to Small Capitals lookup 16-1" bullet.smcp
EndChar

StartChar: quoteleft
Encoding: 257 8216 128
Width: 267
VWidth: 0
Flags: HW
LayerCount: 2
Fore
SplineSet
74.75 545.9 m 2
 74.75 654.05 l 2
 74.75 762.25 186.4 740 186.4 740 c 1
 186.4 699.45 l 0
 153.85 700.3 152.85 677.6 152.85 665.9 c 2
 152.85 639.85 l 1
 164.7 639.85 l 2
 179.55 639.85 192.25 631.85 192.25 613.15 c 2
 192.25 545.9 l 2
 192.25 526.2 182.4 516.35 164.7 516.35 c 2
 100.45 516.35 l 2
 80.75 516.35 74.75 530.05 74.75 545.9 c 2
EndSplineSet
Substitution2: "'smcp' Lowercase to Small Capitals lookup 16-1" quoteleft.smcp
EndChar

StartChar: quoteright
Encoding: 258 8217 129
Width: 267
VWidth: 0
Flags: HW
LayerCount: 2
Fore
SplineSet
74.75 645.5 m 2
 74.75 712.75 l 2
 74.75 732.45 84.6 742.3 102.3 742.3 c 2
 166.55 742.3 l 2
 186.25 742.3 192.25 728.6 192.25 712.75 c 2
 192.25 604.6 l 2
 192.25 496.4 80.6 517.8 80.6 517.8 c 1
 80.6 558.35 l 0
 113.15 557.5 114.15 581.05 114.15 592.75 c 2
 114.15 617.95 l 1
 102.3 617.95 l 2
 87.45 617.95 74.75 626.8 74.75 645.5 c 2
EndSplineSet
Substitution2: "'smcp' Lowercase to Small Capitals lookup 16-1" quoteright.smcp
EndChar

StartChar: quotesinglbase
Encoding: 259 8218 130
Width: 267
VWidth: 0
Flags: HW
LayerCount: 2
Fore
SplineSet
74.75 26.7 m 2
 74.75 93.95 l 2
 74.75 113.65 84.6 123.5 102.3 123.5 c 2
 166.55 123.5 l 2
 186.25 123.5 192.25 109.8 192.25 93.95 c 2
 192.25 -14.2 l 2
 192.25 -123.25 80.6 -101 80.6 -101 c 1
 80.6 -60.45 l 0
 113.15 -61.3 114.15 -37.75 114.15 -26.05 c 2
 114.15 -0.85 l 1
 102.3 -0.85 l 2
 87.45 -0.85 74.75 8 74.75 26.7 c 2
EndSplineSet
Substitution2: "'smcp' Lowercase to Small Capitals lookup 16-1" quotesinglbase.smcp
EndChar

StartChar: quotedblleft
Encoding: 260 8220 131
Width: 420
VWidth: 0
Flags: HW
LayerCount: 2
Fore
SplineSet
234.55 545.6 m 2
 234.55 653.75 l 2
 234.55 761.95 347.05 739.7 347.05 739.7 c 1
 347.05 699.15 l 0
 314.5 700 312.65 677.3 312.65 665.6 c 2
 312.65 640.4 l 1
 325.35 640.4 l 2
 340.2 640.4 352.05 631.55 352.05 612.85 c 2
 352.05 545.6 l 2
 352.05 525.9 343.05 516.05 325.35 516.05 c 2
 261.1 516.05 l 2
 241.4 516.05 234.55 529.75 234.55 545.6 c 2
68.2 545.6 m 2
 68.2 653.75 l 2
 68.2 761.95 179.85 739.7 179.85 739.7 c 1
 179.85 699.15 l 0
 147.3 700 146.3 677.3 146.3 665.6 c 2
 146.3 640.4 l 1
 158.15 640.4 l 2
 173 640.4 185.7 631.55 185.7 612.85 c 2
 185.7 545.6 l 2
 185.7 525.9 175.85 516.05 158.15 516.05 c 2
 93.9 516.05 l 2
 74.2 516.05 68.2 529.75 68.2 545.6 c 2
EndSplineSet
Substitution2: "'smcp' Lowercase to Small Capitals lookup 16-1" quotedblleft.smcp
EndChar

StartChar: quotedblright
Encoding: 261 8221 132
Width: 420
VWidth: 0
Flags: HW
LayerCount: 2
Fore
SplineSet
68.2 645.2 m 2
 68.2 712.45 l 2
 68.2 732.15 77.2 742 94.9 742 c 2
 159.15 742 l 2
 178.85 742 185.7 728.3 185.7 712.45 c 2
 185.7 604.3 l 2
 185.7 496.1 73.2 517.5 73.2 517.5 c 1
 73.2 558.05 l 0
 105.75 557.2 106.75 580.75 106.75 592.45 c 2
 106.75 617.65 l 1
 94.9 617.65 l 2
 80.05 617.65 68.2 626.5 68.2 645.2 c 2
234.55 645.2 m 2
 234.55 712.45 l 2
 234.55 732.15 244.4 742 262.1 742 c 2
 326.35 742 l 2
 346.05 742 352.05 728.3 352.05 712.45 c 2
 352.05 604.3 l 2
 352.05 496.1 240.4 517.5 240.4 517.5 c 1
 240.4 558.05 l 0
 272.95 557.2 273.95 580.75 273.95 592.45 c 2
 273.95 617.65 l 1
 262.1 617.65 l 2
 247.25 617.65 234.55 626.5 234.55 645.2 c 2
EndSplineSet
Substitution2: "'smcp' Lowercase to Small Capitals lookup 16-1" quotedblright.smcp
EndChar

StartChar: quotedblbase
Encoding: 262 8222 133
Width: 420
VWidth: 0
Flags: HW
LayerCount: 2
Fore
SplineSet
68.2 26.7 m 2
 68.2 93.95 l 2
 68.2 113.65 77.2 123.5 94.9 123.5 c 2
 159.15 123.5 l 2
 178.85 123.5 185.7 109.8 185.7 93.95 c 2
 185.7 -14.2 l 2
 185.7 -123.25 73.2 -101 73.2 -101 c 1
 73.2 -60.45 l 0
 105.75 -61.3 106.75 -37.75 106.75 -26.05 c 2
 106.75 -0.85 l 1
 94.9 -0.85 l 2
 80.05 -0.85 68.2 8 68.2 26.7 c 2
234.55 26.7 m 2
 234.55 93.95 l 2
 234.55 113.65 244.4 123.5 262.1 123.5 c 2
 326.35 123.5 l 2
 346.05 123.5 352.05 109.8 352.05 93.95 c 2
 352.05 -14.2 l 2
 352.05 -123.25 240.4 -101 240.4 -101 c 1
 240.4 -60.45 l 0
 272.95 -61.3 273.95 -37.75 273.95 -26.05 c 2
 273.95 -0.85 l 1
 262.1 -0.85 l 2
 247.25 -0.85 234.55 8 234.55 26.7 c 2
EndSplineSet
Substitution2: "'smcp' Lowercase to Small Capitals lookup 16-1" quotedblbase.smcp
EndChar

StartChar: colon
Encoding: 58 58 134
Width: 269
VWidth: 0
Flags: HW
LayerCount: 2
Fore
SplineSet
79.45 23 m 2
 79.45 89 l 2
 79.45 104 87.45 114 103.45 114 c 2
 165.45 114 l 2
 183.45 114 190.45 105 190.45 89 c 2
 190.45 23 l 2
 190.45 5 179.45 0 165.45 0 c 2
 103.45 0 l 2
 89.45 0 79.45 9 79.45 23 c 2
79.45 440.85 m 2
 79.45 506.85 l 2
 79.45 521.85 87.45 531.85 103.45 531.85 c 2
 165.45 531.85 l 2
 183.45 531.85 190.45 522.85 190.45 506.85 c 2
 190.45 440.85 l 2
 190.45 422.85 179.45 417.85 165.45 417.85 c 2
 103.45 417.85 l 2
 89.45 417.85 79.45 426.85 79.45 440.85 c 2
EndSplineSet
EndChar

StartChar: semicolon
Encoding: 59 59 135
Width: 271
VWidth: 0
Flags: HW
LayerCount: 2
Fore
SplineSet
79.45 25 m 2
 79.45 88 l 2
 79.45 102.6 89.3 115 104.45 115 c 2
 164.45 115 l 2
 179.9 115 188.45 103 188.45 88 c 2
 188.45 -11 l 2
 188.45 -110.35 84.45 -88 84.45 -88 c 1
 84.45 -51.5 l 0
 114.45 -52.5 115.45 -32.85 115.45 -22 c 2
 115.45 0 l 1
 104.45 0 l 2
 90.45 0 79.45 12.25 79.45 25 c 2
81.15 441.7 m 2
 81.15 507.7 l 2
 81.15 522.7 89.15 532.7 105.15 532.7 c 2
 167.15 532.7 l 2
 185.15 532.7 192.15 523.7 192.15 507.7 c 2
 192.15 441.7 l 2
 192.15 423.7 181.15 418.7 167.15 418.7 c 2
 105.15 418.7 l 2
 91.15 418.7 81.15 427.7 81.15 441.7 c 2
EndSplineSet
EndChar

StartChar: quotedbl
Encoding: 34 34 136
Width: 397
VWidth: 0
Flags: HW
LayerCount: 2
Fore
SplineSet
79.45 665 m 1
 79.45 732 l 1
 170.8 732 l 1
 170.8 665 l 1
 160.8 531 l 1
 90.6 531 l 1
 79.45 665 l 1
226.9 665 m 1
 226.9 732 l 1
 318.25 732 l 1
 318.25 665 l 1
 308.25 531 l 1
 237.75 531 l 1
 226.9 665 l 1
EndSplineSet
Substitution2: "'smcp' Lowercase to Small Capitals lookup 16-1" quotedbl.smcp
EndChar

StartChar: exclamdown.alt
Encoding: 263 -1 137
Width: 270
VWidth: 0
Flags: HW
LayerCount: 2
Fore
SplineSet
78.7 642 m 2
 78.7 708 l 2
 78.7 723 87.7 731 101.7 731 c 2
 165.7 731 l 2
 179.7 731 189.7 722 189.7 708 c 2
 189.7 642 l 2
 189.7 627 181.7 617 165.7 617 c 2
 101.7 617 l 2
 86.7 617 78.7 628 78.7 642 c 2
82.55 0 m 1
 91.65 535 l 1
 177.3 535 l 1
 185.8 0 l 1
 82.55 0 l 1
EndSplineSet
EndChar

StartChar: zero
Encoding: 48 48 138
Width: 639
VWidth: 0
Flags: W
HStem: 0 89<184.279 458.107> 643 89<183.387 457.648>
VStem: 65.35 92<115.53 616.54> 482.35 92<111.355 621.444>
LayerCount: 2
Fore
SplineSet
65.35 166.5 m 10
 65.35 564 l 2
 65.35 675.3 141.15 732 240.65 732 c 2
 404.65 732 l 2
 530.1 732 574.35 654.2 574.35 565.5 c 26
 574.35 166.5 l 18
 574.35 47.5 506.65 0 404.5 0 c 2
 240.5 0 l 2
 143.65 0 65.35 46.5 65.35 166.5 c 10
157.35 172.65 m 2
 157.35 107.3 205.1 89 249.2 89 c 10
 394.9 89 l 18
 454.25 89 482.35 118.5 482.35 172.5 c 2
 482.35 559.5 l 2
 482.35 605.5 463.05 643 396.1 643 c 2
 248.15 643 l 2
 180.85 643 157.35 602.25 157.35 559.5 c 2
 157.35 172.65 l 2
EndSplineSet
Substitution2: "'dnom' Denominators lookup 0 subtable" zero.denominator
Substitution2: "'sups' Superscript lookup 2 subtable" zerosuperior
Substitution2: "'onum' Oldstyle Figures in Latin lookup 5-1" zero.oldstyle
Substitution2: "'tnum' Tabular Numbers in Latin lookup 7-1" zero.tnum
Substitution2: "'numr' Numerators lookup 9 subtable" zero.numerator
Substitution2: "'zero' Slashed Zero lookup 20-1" uni0338
Substitution2: "'sinf' Scientific Inferiors lookup 3-1" zeroinferior
Substitution2: "'frac' Diagonal Fractions lookup 13-1" zero.numerator
Substitution2: "'smcp' Lowercase to Small Capitals lookup 16-1" zero.smcp
EndChar

StartChar: one
Encoding: 49 49 139
Width: 364
VWidth: 0
Flags: W
HStem: 0 21G<197.8 289.8> 0 21G<197.8 289.8> 712 20G<159.996 289.8>
VStem: 197.8 92<0 633>
LayerCount: 2
Fore
SplineSet
37.3 584.1 m 1xb0
 37.3 647.6 l 1
 198.1 732 l 1
 289.8 732 l 1
 289.8 0 l 1
 197.8 0 l 1
 197.8 633 l 1
 37.3 584.1 l 1xb0
EndSplineSet
Substitution2: "'dnom' Denominators lookup 0 subtable" one.denominator
Substitution2: "'sups' Superscript lookup 2 subtable" onesuperior
Substitution2: "'onum' Oldstyle Figures in Latin lookup 5-1" one.oldstyle
Substitution2: "'tnum' Tabular Numbers in Latin lookup 7-1" one.tnum
Substitution2: "'numr' Numerators lookup 9 subtable" one.numerator
Substitution2: "'sinf' Scientific Inferiors lookup 3-1" oneinferior
Substitution2: "'frac' Diagonal Fractions lookup 13-1" one.numerator
Substitution2: "'smcp' Lowercase to Small Capitals lookup 16-1" one.smcp
EndChar

StartChar: two
Encoding: 50 50 140
Width: 594
VWidth: 0
Flags: W
HStem: 0 89<213.1 548.05> 652 90<87.6522 409.38> 652 68.5<37.3 268.684>
VStem: 455.2 92.85<454.993 606.309>
LayerCount: 2
Fore
SplineSet
37.3 652 m 2xb0
 37.3 720.5 l 1xb0
 136.3 734.25 225.35 742 341.3 742 c 3
 487.95 742 548.05 635.2 548.05 527.5 c 3
 548.05 340.2 283.6 139.05 213.1 89 c 9
 548.05 89 l 25
 548.05 0 l 25
 44.45 0 l 25
 44.45 83 l 17
 149.25 154 455.2 376.4 455.2 528.75 c 1
 455.2 599.95 418.8 652 328.45 652 c 2xd0
 37.3 652 l 2xb0
EndSplineSet
Substitution2: "'dnom' Denominators lookup 0 subtable" two.denominator
Substitution2: "'sups' Superscript lookup 2 subtable" twosuperior
Substitution2: "'onum' Oldstyle Figures in Latin lookup 5-1" two.oldstyle
Substitution2: "'tnum' Tabular Numbers in Latin lookup 7-1" two.tnum
Substitution2: "'numr' Numerators lookup 9 subtable" two.numerator
Substitution2: "'sinf' Scientific Inferiors lookup 3-1" twoinferior
Substitution2: "'frac' Diagonal Fractions lookup 13-1" two.numerator
Substitution2: "'smcp' Lowercase to Small Capitals lookup 16-1" two.smcp
EndChar

StartChar: three
Encoding: 51 51 141
Width: 591
VWidth: 0
Flags: W
HStem: -7 90<85.2441 402.529> 21 62<35.05 134.993> 318.5 90<165.35 396.387> 325.5 73<96.05 257.75> 645 89<93.9831 400.077> 645 61<28.05 127.219>
VStem: 429.55 91.7<107.485 286.173 438.032 617>
LayerCount: 2
Fore
SplineSet
28.05 645 m 1x06
 28.05 706 l 1x06
 116.05 737 230.55 736 347.55 734 c 0
 457.55 732 521.25 662.05 521.25 566 c 2
 521.25 501.5 l 2
 521.25 428.5 495.7 380.9 452.55 364 c 1
 496.85 338.9 521.25 294.5 521.25 218.5 c 2
 521.25 164 l 2
 521.25 53.2 462.55 -7 340.55 -7 c 0x8a
 226.55 -7 122.05 -10 34.05 21 c 1
 35.05 83 l 1x42
 321.05 83 l 2
 377.8 83 427.55 90.8 427.55 169.25 c 2
 427.55 220.75 l 2
 427.55 293.95 382.55 316.35 327.05 318.5 c 2xa2
 96.05 325.5 l 2
 96.05 398.5 l 1x12
 327.05 408.5 l 2
 396.05 411.5 429.55 441.25 429.55 500 c 2
 429.55 560 l 2
 429.55 622.9 379.05 645 327.05 645 c 2x2a
 28.05 645 l 1x06
EndSplineSet
Substitution2: "'dnom' Denominators lookup 0 subtable" three.denominator
Substitution2: "'sups' Superscript lookup 2 subtable" threesuperior
Substitution2: "'onum' Oldstyle Figures in Latin lookup 5-1" three.oldstyle
Substitution2: "'tnum' Tabular Numbers in Latin lookup 7-1" three.tnum
Substitution2: "'numr' Numerators lookup 9 subtable" three.numerator
Substitution2: "'sinf' Scientific Inferiors lookup 3-1" threeinferior
Substitution2: "'frac' Diagonal Fractions lookup 13-1" three.numerator
Substitution2: "'smcp' Lowercase to Small Capitals lookup 16-1" three.smcp
EndChar

StartChar: four
Encoding: 52 52 142
Width: 607
VWidth: 0
Flags: W
HStem: 179.5 93<155.7 411.65> 200 72.5<559.955 589.15> 712 20G<311.162 429.15>
VStem: 411.65 92<2 179.5 272.5 468.55>
DStem2: 18.65 224 155.7 272.5 0.514123 0.857716<112.06 592.27>
LayerCount: 2
Fore
SplineSet
18.65 224 m 1xb0
 323.15 732 l 1
 429.15 732 l 1
 155.7 272.5 l 1
 411.65 272.5 l 1xb0
 411.65 468.55 l 1
 447.15 544 l 1
 503.65 544 l 1
 503.65 272.5 l 1
 589.15 272.5 l 1
 589.15 200 l 1x70
 503.65 179.5 l 1
 503.65 2 l 1
 411.65 2 l 1
 411.65 179.5 l 1
 52.65 179.5 l 1
 18.65 224 l 1xb0
EndSplineSet
Substitution2: "'dnom' Denominators lookup 0 subtable" four.denominator
Substitution2: "'sups' Superscript lookup 2 subtable" foursuperior
Substitution2: "'onum' Oldstyle Figures in Latin lookup 5-1" four.oldstyle
Substitution2: "'tnum' Tabular Numbers in Latin lookup 7-1" four.tnum
Substitution2: "'numr' Numerators lookup 9 subtable" four.numerator
Substitution2: "'sinf' Scientific Inferiors lookup 3-1" fourinferior
Substitution2: "'frac' Diagonal Fractions lookup 13-1" four.numerator
Substitution2: "'smcp' Lowercase to Small Capitals lookup 16-1" four.smcp
EndChar

StartChar: five
Encoding: 53 53 143
Width: 601
VWidth: 0
Flags: W
HStem: -4 94<117.564 430.548> 20 70<71.05 248.22> 363 87.5<178.188 431.878> 643 89<181.05 523.05>
VStem: 72.9 84<292.5 344.512> 94.9 86.15<592.159 643> 454.4 92<117.014 343.905>
LayerCount: 2
Fore
SplineSet
71.05 20 m 1x76
 71.05 90 l 1x76
 369.05 90 l 2
 437 90 454.4 136.6 454.4 177 c 2
 454.4 275.15 l 2
 454.4 308.15 452.05 363 370.7 363 c 2
 233.2 363 l 2
 195.25 363 156.9 343.05 156.9 292.5 c 1
 72.9 292.5 l 1xba
 94.9 732 l 17
 523.05 732 l 1
 523.05 643 l 1
 181.05 643 l 25
 170.25 422 l 1
 186.05 438.85 213.75 446.95 242.9 450.5 c 1
 292.7 456.75 353.5 450.65 381.8 450.5 c 0
 499.5 449 546.4 378.35 546.4 280 c 2
 546.4 169 l 2
 546.4 32 443.95 -4 376.55 -4 c 3xb6
 252.55 -4 205.05 -3 71.05 20 c 1x76
EndSplineSet
Substitution2: "'dnom' Denominators lookup 0 subtable" five.denominator
Substitution2: "'sups' Superscript lookup 2 subtable" fivesuperior
Substitution2: "'onum' Oldstyle Figures in Latin lookup 5-1" five.oldstyle
Substitution2: "'tnum' Tabular Numbers in Latin lookup 7-1" five.tnum
Substitution2: "'numr' Numerators lookup 9 subtable" five.numerator
Substitution2: "'sinf' Scientific Inferiors lookup 3-1" fiveinferior
Substitution2: "'frac' Diagonal Fractions lookup 13-1" five.numerator
Substitution2: "'smcp' Lowercase to Small Capitals lookup 16-1" five.smcp
EndChar

StartChar: six
Encoding: 54 54 144
Width: 619
VWidth: 0
Flags: W
HStem: -1 89<206.991 457.066> 345 87.5<156.458 455.946> 345 66.5<152.8 384.944> 649 88.25<211.298 484.491> 649 68.95<305.035 539.3>
VStem: 60.8 92<163.811 345 411.5 559.091> 472.15 91.15<104.152 328.768>
LayerCount: 2
Fore
SplineSet
60.8 384 m 0xc6
 60.8 649 148.9 735.15 232.8 737.25 c 0xd6
 333.65 739.65 444.6 732 539.3 717.95 c 1
 539.3 649 l 1x8e
 260.8 649 l 2
 169.8 649 154.5 493.85 152.8 411.5 c 1xb6
 230.6 422.85 323.8 432.5 399.3 432.5 c 1
 536.8 432.5 563.3 360.15 563.3 277.5 c 2
 563.3 152.5 l 2
 563.3 37.8 495.1 -1 397.8 -1 c 2
 250.45 -1 l 2
 139.5 -0.15 60.8 69 60.8 384 c 0xc6
152.8 345 m 1xa6
 152.8 249.2 158.45 88 261.7 88 c 2
 390.9 88 l 2
 439.2 88 472.15 97.85 472.15 163.75 c 2
 472.15 273 l 2
 472.15 331.3 436.3 345 391.65 345 c 2xc6
 152.8 345 l 1xa6
EndSplineSet
Substitution2: "'dnom' Denominators lookup 0 subtable" six.denominator
Substitution2: "'sups' Superscript lookup 2 subtable" sixsuperior
Substitution2: "'onum' Oldstyle Figures in Latin lookup 5-1" six.oldstyle
Substitution2: "'tnum' Tabular Numbers in Latin lookup 7-1" six.tnum
Substitution2: "'numr' Numerators lookup 9 subtable" six.numerator
Substitution2: "'sinf' Scientific Inferiors lookup 3-1" sixinferior
Substitution2: "'frac' Diagonal Fractions lookup 13-1" six.numerator
Substitution2: "'smcp' Lowercase to Small Capitals lookup 16-1" six.smcp
EndChar

StartChar: seven
Encoding: 55 55 145
Width: 548
VWidth: 0
Flags: W
HStem: 0 21G<155.05 268.391> 0 21G<155.05 268.391> 643 89<28.05 404.05>
DStem2: 155.05 0 260.75 0 0.356887 0.934148<37.7229 689.522>
LayerCount: 2
Fore
SplineSet
28.05 643 m 1xa0
 28.05 732 l 1
 490.35 732 l 1
 520.35 679.5 l 1
 260.75 0 l 1
 155.05 0 l 1
 404.05 643 l 1
 28.05 643 l 1xa0
EndSplineSet
Substitution2: "'dnom' Denominators lookup 0 subtable" seven.denominator
Substitution2: "'sups' Superscript lookup 2 subtable" sevensuperior
Substitution2: "'onum' Oldstyle Figures in Latin lookup 5-1" seven.oldstyle
Substitution2: "'tnum' Tabular Numbers in Latin lookup 7-1" seven.tnum
Substitution2: "'numr' Numerators lookup 9 subtable" seven.numerator
Substitution2: "'sinf' Scientific Inferiors lookup 3-1" seveninferior
Substitution2: "'frac' Diagonal Fractions lookup 13-1" seven.numerator
Substitution2: "'smcp' Lowercase to Small Capitals lookup 16-1" seven.smcp
EndChar

StartChar: percent
Encoding: 37 37 146
Width: 956
VWidth: 0
Flags: HW
LayerCount: 2
Fore
SplineSet
39.3 475.5 m 2
 39.3 605.5 l 2
 39.3 690.5 68.8 732 169.8 732 c 2
 270.8 732 l 2
 368.8 732 399.3 690.5 399.3 605.5 c 2
 399.3 475.5 l 18
 399.3 390.5 369.8 349 268.8 349 c 2
 167.8 349 l 2
 69.8 349 39.3 390.5 39.3 475.5 c 2
113.3 480 m 2
 113.3 435.05 126.65 423 171.55 423 c 2
 265.05 423 l 2
 319.45 423 325.3 438.45 325.3 480 c 10
 325.3 601 l 2
 325.3 647.6 310.75 658 267.05 658 c 2
 173.55 658 l 2
 120.95 658 113.3 644.35 113.3 601 c 2
 113.3 480 l 2
221.75 0 m 1
 662.15 732 l 1
 741.1 732 l 1
 301.75 0 l 1
 221.75 0 l 1
557.8 128.65 m 2
 557.8 258.65 l 2
 557.8 343.65 587.15 385.15 688.15 385.15 c 2
 789.3 385.15 l 2
 887.3 385.15 917.8 343.65 917.8 258.65 c 2
 917.8 128.65 l 18
 917.8 43.65 888.3 2.15 787.3 2.15 c 2
 686.15 2.15 l 2
 588.15 2.15 557.8 43.65 557.8 128.65 c 2
631.8 133.15 m 2
 631.8 88.2 645.15 76.15 690.05 76.15 c 2
 783.4 76.15 l 2
 837.8 76.15 843.8 91.6 843.8 133.15 c 10
 843.8 254.15 l 2
 843.8 300.75 829.1 311.15 785.4 311.15 c 2
 692.05 311.15 l 2
 639.45 311.15 631.8 297.5 631.8 254.15 c 2
 631.8 133.15 l 2
EndSplineSet
Substitution2: "'smcp' Lowercase to Small Capitals lookup 16-1" percent.smcp
EndChar

StartChar: nine
Encoding: 57 57 147
Width: 619
VWidth: 0
Flags: W
HStem: -1 88.25<132.384 408.102> 18.3 68.95<80.1 313.507> 303.75 87.5<163.454 462.942> 324.75 66.5<234.456 466.6> 648.25 89<162.334 412.409>
VStem: 56.1 91.15<407.482 632.098> 466.6 92<177.159 324.75 391.25 572.439>
LayerCount: 2
Fore
SplineSet
56.1 458.75 m 2x2e
 56.1 583.75 l 2
 56.1 698.45 124.3 737.25 221.6 737.25 c 2
 368.95 737.25 l 2
 479.9 736.4 558.6 667.25 558.6 352.25 c 0
 558.6 87.25 470.5 1.1 386.6 -1 c 0xae
 285.75 -3.4 168 0 80.1 18.3 c 1
 80.1 87.25 l 1x4e
 358.6 87.25 l 2
 449.6 87.25 464.9 242.4 466.6 324.75 c 1x9e
 388.8 313.4 295.6 303.75 220.1 303.75 c 1
 82.6 303.75 56.1 376.1 56.1 458.75 c 2x2e
147.25 463.25 m 2
 147.25 404.95 183.1 391.25 227.75 391.25 c 2x2e
 466.6 391.25 l 1x1e
 466.6 487.05 460.95 648.25 357.7 648.25 c 2
 228.5 648.25 l 2
 180.2 648.25 147.25 638.4 147.25 572.5 c 2
 147.25 463.25 l 2
EndSplineSet
Substitution2: "'dnom' Denominators lookup 0 subtable" nine.denominator
Substitution2: "'sups' Superscript lookup 2 subtable" ninesuperior
Substitution2: "'onum' Oldstyle Figures in Latin lookup 5-1" nine.oldstyle
Substitution2: "'tnum' Tabular Numbers in Latin lookup 7-1" nine.tnum
Substitution2: "'numr' Numerators lookup 9 subtable" nine.numerator
Substitution2: "'sinf' Scientific Inferiors lookup 3-1" nineinferior
Substitution2: "'frac' Diagonal Fractions lookup 13-1" nine.numerator
Substitution2: "'smcp' Lowercase to Small Capitals lookup 16-1" nine.smcp
EndChar

StartChar: eight
Encoding: 56 56 148
Width: 631
VWidth: 0
Flags: W
HStem: 0 87.5<184.996 447.05> 331 85<184.4 449.198> 649.5 87.5<181.708 447.917>
VStem: 70.05 92<107.959 310.801 439.348 630.059> 469.55 92<108.725 308.864 433.937 629.188>
LayerCount: 2
Fore
SplineSet
70.05 157.75 m 2
 70.05 249 l 2
 70.05 319.4 111 345.1 153.4 357.5 c 1
 87.9 381.75 70.05 444.8 70.05 499 c 2
 70.05 564 l 2
 70.05 698.9 146.05 737 249.05 737 c 2
 396.55 737 l 2
 505.2 737 561.55 687.6 561.55 563.85 c 2
 561.55 502 l 2
 562.4 479.25 557.5 400.1 486.55 386 c 1
 542.8 375.55 562.4 296.35 561.55 253.35 c 2
 561.55 158.65 l 2
 561.55 23.7 464.5 0 395.55 0 c 2
 249.05 0 l 2
 74.35 0 70.05 113.3 70.05 157.75 c 2
162.05 159.85 m 2
 162.05 112.95 188.5 87.5 255.8 87.5 c 2
 386.85 87.5 l 2
 430 87.5 469.55 110.6 469.55 159.85 c 2
 469.55 255.1 l 2
 469.55 307.45 432.95 331 389.7 331 c 2
 246.45 331 l 2
 201.05 331 162.05 311.85 162.05 255.1 c 2
 162.05 159.85 l 2
162.05 494 m 2
 162.05 431.2 212.45 416 246.45 416 c 2
 389.4 416 l 2
 458.05 416 469.55 458.9 469.55 494 c 2
 469.55 556.3 l 2
 469.55 626.4 441.45 649.5 387.7 649.5 c 2
 255.8 649.5 l 2
 196.9 649.5 162.05 639.7 162.05 556.3 c 2
 162.05 494 l 2
EndSplineSet
Substitution2: "'dnom' Denominators lookup 0 subtable" eight.denominator
Substitution2: "'sups' Superscript lookup 2 subtable" eightsuperior
Substitution2: "'onum' Oldstyle Figures in Latin lookup 5-1" eight.oldstyle
Substitution2: "'tnum' Tabular Numbers in Latin lookup 7-1" eight.tnum
Substitution2: "'numr' Numerators lookup 9 subtable" eight.numerator
Substitution2: "'sinf' Scientific Inferiors lookup 3-1" eightinferior
Substitution2: "'frac' Diagonal Fractions lookup 13-1" eight.numerator
Substitution2: "'smcp' Lowercase to Small Capitals lookup 16-1" eight.smcp
EndChar

StartChar: quotesingle
Encoding: 39 39 149
Width: 195
VWidth: 0
Flags: HW
LayerCount: 2
Fore
SplineSet
51.4 665 m 1
 51.4 732 l 1
 144.4 732 l 1
 144.4 665 l 1
 134.4 531 l 1
 62.4 531 l 1
 51.4 665 l 1
EndSplineSet
Substitution2: "'smcp' Lowercase to Small Capitals lookup 16-1" quotesingle.smcp
EndChar

StartChar: onesuperior
Encoding: 185 185 150
Width: 270
VWidth: 142
Flags: HW
LayerCount: 2
Fore
SplineSet
14.95 767.35 m 1
 14.95 821 l 1
 135.9 876 l 1
 210.2 876 l 1
 210.2 398.35 l 1
 135.6 398.35 l 1
 135.6 799.05 l 1
 14.95 767.35 l 1
EndSplineSet
EndChar

StartChar: twosuperior
Encoding: 178 178 151
Width: 390
VWidth: 142
Flags: HW
LayerCount: 2
Fore
SplineSet
29.75 809.8 m 2
 28.05 809.8 28.9 866.95 29.75 866.1 c 1
 94.4 874.85 140.9 882.15 217.1 882.15 c 3
 316.75 882.15 351.45 823.25 351.45 743.6 c 3
 351.45 624.15 203.8 505.85 161.2 470.7 c 9
 350.6 470.7 l 25
 350.6 398.35 l 25
 32.9 398.35 l 25
 32.9 466.55 l 17
 97.95 517.25 274.3 635.7 274.3 738.35 c 1
 274.3 788.8 255.55 809.8 198.15 809.8 c 2
 29.75 809.8 l 2
EndSplineSet
EndChar

StartChar: threesuperior
Encoding: 179 179 152
Width: 406
VWidth: 142
Flags: HW
LayerCount: 2
Fore
SplineSet
28.05 805.65 m 1
 28.05 858.55 l 1
 85.65 879 151.25 877.45 228.15 877.15 c 0
 313.65 877 350.8 821.95 350.8 759.1 c 2
 350.8 725.45 l 2
 350.8 678.15 328.7 646.85 299.7 636.1 c 1
 329.7 619.7 350.8 590.05 350.8 540.75 c 2
 350.8 514.1 l 2
 350.8 441.6 320.05 394.2 223.15 394.2 c 0
 148.25 394.2 89.65 392.2 32.05 412.65 c 1
 33.05 465.7 l 1
 60.25 465.7 205.25 466.55 205.25 466.55 c 2
 258.95 466.55 276.2 481 276.2 521.7 c 2
 276.2 541.85 l 2
 276.2 588.35 245.45 603.1 209.25 604.1 c 2
 72.35 609.1 l 2
 72.35 666.9 l 1
 209.25 673.9 l 2
 254.4 675.75 277.35 694.45 277.35 731.75 c 2
 277.35 751.05 l 2
 277.35 790.35 252.75 805.65 209.25 805.65 c 2
 28.05 805.65 l 1
EndSplineSet
EndChar

StartChar: ordmasculine
Encoding: 186 186 153
Width: 391
VWidth: 0
Flags: HW
LayerCount: 2
Fore
SplineSet
28.05 550 m 1
 28.05 692.3 68.25 736.7 196.45 736.7 c 3
 324.8 736.7 363.3 691.7 363.3 550 c 1
 363.3 421.55 325.4 373.3 196.45 373.3 c 3
 67.95 373.3 28.05 422.3 28.05 550 c 1
39.65 269.05 m 1
 39.65 330.05 l 1
 350.85 330.05 l 1
 350.85 269.05 l 1
 39.65 269.05 l 1
102.65 550.15 m 1
 102.65 445.95 138.1 442.2 196.45 442.2 c 3
 258.5 442.2 287 443.8 288.7 550.15 c 1
 290.4 664.45 258.95 667.8 196.45 667.8 c 3
 131.55 667.8 102.65 665.7 102.65 550.15 c 1
EndSplineSet
Ligature2: "'ordn' Ordinals lookup 21-1" o
Substitution2: "'smcp' Lowercase to Small Capitals lookup 16-1" ordmasculine.smcp
EndChar

StartChar: ordfeminine
Encoding: 170 170 154
Width: 364
VWidth: 0
Flags: HW
LayerCount: 2
Fore
SplineSet
28.05 266.5 m 1
 28.05 327.5 l 1
 336.7 327.5 l 1
 336.7 266.5 l 1
 28.05 266.5 l 1
28.05 463.9 m 10
 28.05 506.9 l 2
 28.05 560 63.95 598.25 131.05 598.25 c 2
 131.05 598.25 260.4 597.25 260.4 598.25 c 0
 260.4 598.25 261.4 625.05 260.4 626.05 c 2
 260.4 662.6 238.6 673.5 202.1 673.5 c 1
 144.05 673.5 102.1 668.75 40.05 666.2 c 9
 40.05 714.8 l 17
 94.7 725.35 138.4 738 212.2 738.85 c 1
 280.65 739.7 335 709.9 335 633 c 2
 335 378 l 9
 283.6 378 l 25
 261.25 425.8 l 17
 258.65 423.4 187.5 373.7 130 374 c 1
 72.75 374.45 28.05 409.2 28.05 463.9 c 10
100.85 478.4 m 2
 100.85 449.3 118.4 441.1 142.45 441.1 c 0
 197.95 441.1 260.4 471.3 260.4 471.3 c 9
 260.4 549.8 l 17
 141.1 540.85 l 1
 110.6 538 100.85 520.45 100.85 501.95 c 2
 100.85 478.4 l 2
EndSplineSet
Ligature2: "'ordn' Ordinals lookup 21-1" a
Substitution2: "'smcp' Lowercase to Small Capitals lookup 16-1" ordfeminine.smcp
EndChar

StartChar: slash
Encoding: 47 47 155
Width: 415
VWidth: 0
Flags: HW
LayerCount: 2
Fore
SplineSet
18.65 -72 m 1
 299.65 770 l 1
 396.65 770 l 1
 115.65 -72 l 1
 18.65 -72 l 1
EndSplineSet
Substitution2: "'numr' Numerators lookup 9 subtable" fraction
Substitution2: "'frac' Diagonal Fractions lookup 12-1" fraction
EndChar

StartChar: backslash
Encoding: 92 92 156
Width: 415
VWidth: 0
Flags: HW
LayerCount: 2
Fore
SplineSet
18.65 770 m 1
 115.65 770 l 1
 396.65 -72 l 1
 299.65 -72 l 1
 18.65 770 l 1
EndSplineSet
EndChar

StartChar: bar
Encoding: 124 124 157
Width: 245
VWidth: 0
Flags: HW
LayerCount: 2
Fore
SplineSet
80.3 -72 m 1
 80.3 770 l 1
 166.3 770 l 1
 166.3 -72 l 1
 80.3 -72 l 1
EndSplineSet
EndChar

StartChar: underscore
Encoding: 95 95 158
Width: 674
VWidth: 0
Flags: HW
LayerCount: 2
Fore
SplineSet
20 -1 m 1
 20 85 l 1
 654 85 l 1
 654 -1 l 1
 20 -1 l 1
EndSplineSet
EndChar

StartChar: hyphen
Encoding: 45 45 159
Width: 354
VWidth: 0
Flags: HW
LayerCount: 2
Fore
SplineSet
20 247 m 1
 20 333 l 1
 334 333 l 1
 334 247 l 1
 20 247 l 1
EndSplineSet
Substitution2: "'case' Case-Sensitive Forms lookup 1-1" hyphen.alt
Substitution2: "'c2sc' Capitals to Small Capitals in Latin lookup 17 subtable" hyphen.smcp
Substitution2: "'smcp' Lowercase to Small Capitals lookup 16-1" hyphen.smcp
EndChar

StartChar: numbersign
Encoding: 35 35 160
Width: 696
VWidth: 0
Flags: HW
LayerCount: 2
Fore
SplineSet
18.65 226 m 1
 28.45 290 l 1
 185.65 290 l 1
 210.15 443 l 1
 52.65 443 l 1
 63.45 507 l 1
 220.85 507 l 1
 257.85 732 l 1
 321.85 732 l 1
 284.85 507 l 1
 439.15 507 l 1
 475.15 732 l 1
 539.15 732 l 1
 503.15 507 l 1
 678.65 507 l 1
 668.15 443 l 1
 492.5 443 l 1
 468 289 l 1
 643.65 289 l 1
 634.15 225 l 1
 456.7 225 l 1
 419.7 0 l 1
 355.7 0 l 1
 392.7 225 l 1
 238.25 226 l 1
 201.25 0 l 1
 137.25 0 l 1
 174.25 226 l 1
 18.65 226 l 1
249.65 290 m 1
 404 289 l 1
 428.5 443 l 1
 274.15 443 l 1
 249.65 290 l 1
EndSplineSet
Substitution2: "'smcp' Lowercase to Small Capitals lookup 16-1" numbersign.smcp
EndChar

StartChar: dollar
Encoding: 36 36 161
Width: 573
VWidth: 0
Flags: HW
LayerCount: 2
Fore
SplineSet
51.4 491.75 m 2
 51.4 557 l 1
 53.1 698.45 134.75 735.7 242.35 738 c 1
 242.35 824 l 1
 307.85 824 l 1
 307.85 735.45 l 1
 372.35 730.75 453.45 718.9 495.4 712.65 c 1
 495.4 640.7 l 1
 443.3 641.75 269.8 649.85 259.9 649.85 c 1
 192.3 652.4 143.4 641.05 143.4 554 c 2
 143.4 496.25 l 1
 143.4 423.6 190.2 405.75 240.8 405.75 c 2
 360.9 405.75 l 2
 501 405.75 522.4 309.45 522.4 227.75 c 2
 522.4 165 l 2
 522.4 20.55 413.35 -12.8 307.85 -8 c 1
 307.85 -90 l 1
 242.35 -90 l 1
 242.35 -3.75 l 1
 175.6 2.35 108.2 11.9 74.4 18.35 c 1
 74.4 87.75 l 1
 114.4 87.15 218.9 81 311.9 81 c 0
 353.2 81 430.4 88.6 430.4 163.65 c 2
 430.4 223.85 l 2
 430.4 276.65 413.75 313.75 351.9 313.75 c 2
 232.4 313.75 l 2
 78.95 313.75 51.4 417.55 51.4 491.75 c 2
EndSplineSet
Substitution2: "'smcp' Lowercase to Small Capitals lookup 16-1" dollar.smcp
EndChar

StartChar: zerosuperior
Encoding: 264 8304 162
Width: 467
VWidth: 142
Flags: HW
LayerCount: 2
Fore
SplineSet
56.1 510.2 m 2
 56.1 760.7 l 2
 56.1 845 102.7 874.3 176.7 874.3 c 2
 294 874.3 l 2
 380.3 874.3 410.3 828.9 410.3 761.6 c 10
 410.3 510.2 l 2
 410.3 416.75 361.45 397.5 294 397.5 c 2
 176.55 397.5 l 2
 112.15 397.5 56.1 413.2 56.1 510.2 c 2
131.55 519.3 m 2
 131.55 480.35 142.8 469.85 186.55 469.85 c 10
 283.4 469.85 l 18
 330.05 469.85 336.55 484.6 336.55 519.15 c 2
 336.55 752.65 l 2
 336.55 786.45 327.65 801.95 284.15 801.95 c 2
 185.8 801.95 l 2
 136.6 801.95 131.55 780.2 131.55 752.65 c 2
 131.55 519.3 l 2
EndSplineSet
EndChar

StartChar: foursuperior
Encoding: 265 8308 163
Width: 420
VWidth: 142
Flags: HW
LayerCount: 2
Fore
SplineSet
14.95 542.5 m 1
 212.9 874.3 l 1
 294.7 874.3 l 1
 124.5 587.7 l 1
 276.05 587.7 l 1
 276.05 703.6 l 1
 303 752.05 l 1
 350.65 752.05 l 1
 350.65 587.7 l 1
 406.8 587.7 l 1
 406.8 526.7 l 1
 350.65 515.05 l 1
 350.65 398.65 l 1
 276.05 398.65 l 1
 276.05 512.35 l 1
 37.1 512.35 l 1
 14.95 542.5 l 1
EndSplineSet
EndChar

StartChar: fivesuperior
Encoding: 266 8309 164
Width: 418
VWidth: 141
Flags: HW
LayerCount: 2
Fore
SplineSet
51.4 408.25 m 1
 51.4 467.3 l 1
 257.15 467.3 l 2
 293.8 467.3 306.35 488.55 306.35 518.1 c 2
 306.35 567.95 l 2
 306.35 589.2 307.15 624.7 258.2 624.7 c 1
 156.1 624.7 l 2
 131.7 624.7 114.35 611.75 114.35 579.6 c 1
 51.55 579.6 l 1
 66.55 874.3 l 17
 365.6 874.3 l 1
 365.6 801.95 l 1
 134.6 801.95 l 25
 127.5 677.45 l 1
 157.5 704.95 237.55 696.45 270.15 695.85 c 0
 348.2 694.8 380.95 645.05 380.95 573.9 c 2
 380.95 509.9 l 2
 380.95 426.25 330.9 393.65 267.15 393.65 c 1
 185.25 393.65 139.45 392.95 51.4 408.25 c 1
EndSplineSet
EndChar

StartChar: sixsuperior
Encoding: 267 8310 165
Width: 439
VWidth: 141
Flags: HW
LayerCount: 2
Fore
SplineSet
51.25 649.25 m 0
 52.95 843.25 111.25 874.95 174.55 879.7 c 1
 242.45 885.75 326.45 876.15 385.1 867.4 c 1
 385.1 808.25 l 1
 190 808.25 l 2
 130.1 808.25 126.7 720.6 125.85 668.15 c 1
 176.35 675.35 242.55 682.45 291.75 682.45 c 1
 383.05 682.45 401.4 631.7 401.4 577.25 c 2
 401.4 505.9 l 2
 401.4 431.35 355.9 398.35 291.3 398.35 c 2
 185.2 398.35 l 2
 110.65 398.35 49.55 436.7 51.25 649.25 c 0
125.85 611.3 m 1
 125.85 575.45 129.05 470.7 190.75 470.7 c 2
 282.5 470.7 l 2
 313.85 470.7 326.8 484.05 326.8 517.35 c 2
 326.8 570.7 l 2
 326.8 604.45 312.35 611.3 283.1 611.3 c 2
 125.85 611.3 l 1
EndSplineSet
EndChar

StartChar: sevensuperior
Encoding: 268 8311 166
Width: 375
VWidth: 142
Flags: HW
LayerCount: 2
Fore
SplineSet
13.95 803.65 m 1
 13.95 876 l 1
 340.6 876 l 1
 360.45 840.8 l 1
 178.15 398.35 l 1
 94.95 398.35 l 1
 263.25 803.65 l 1
 13.95 803.65 l 1
EndSplineSet
EndChar

StartChar: eightsuperior
Encoding: 269 8312 167
Width: 465
VWidth: 142
Flags: HW
LayerCount: 2
Fore
SplineSet
61.65 502.9 m 2
 61.65 557.45 l 2
 61.65 603.2 88.4 622.5 116.8 630.2 c 1
 72.7 645.85 61.65 686.8 61.65 721.85 c 2
 61.65 762.3 l 2
 61.65 854.6 113.5 879.15 181.7 879.15 c 2
 292.15 879.15 l 2
 364.55 879.15 403.9 848.3 403.9 762.6 c 2
 403.9 724.25 l 2
 404.75 709.65 402 658.5 354.7 649.1 c 1
 392.25 642.65 403.9 588.9 403.9 560.75 c 2
 403.9 503.8 l 2
 403.9 415.9 351.95 396.65 294.7 396.65 c 2
 175.75 396.65 l 2
 76.7 396.65 61.65 450.7 61.65 502.9 c 2
136.25 510.5 m 2
 136.25 480.6 145.95 468.65 184.25 468.65 c 2
 284.7 468.65 l 2
 312.85 468.65 329.3 479.5 329.3 510.5 c 2
 329.3 556.15 l 2
 329.3 589.7 314.25 603.95 285.7 603.95 c 2
 182.55 603.95 l 2
 152.85 603.95 136.25 592.25 136.25 556.15 c 2
 136.25 510.5 l 2
136.25 724.8 m 2
 136.25 684.55 160.4 674.75 182.55 674.75 c 2
 282.15 674.75 l 2
 326.45 674.75 329.3 703 329.3 724.8 c 2
 329.3 754.25 l 2
 329.3 798.65 312.6 808 277.9 808 c 2
 190.2 808 l 2
 148.95 808 136.25 796.8 136.25 754.25 c 2
 136.25 724.8 l 2
EndSplineSet
EndChar

StartChar: ninesuperior
Encoding: 270 8313 168
Width: 439
VWidth: 142
Flags: HW
LayerCount: 2
Fore
SplineSet
42 701.1 m 2
 42 772.6 l 2
 42 847.45 87.65 880.6 152.25 880.6 c 2
 258.2 880.6 l 2
 332.75 880.6 393.85 841.95 392.15 628.5 c 0
 390.45 433.75 335.55 402.9 269.7 397.15 c 0
 202.65 391.1 127.15 395.6 58.3 409.45 c 1
 58.3 468.75 l 1
 252.55 468.75 l 2
 312.45 468.75 316.7 556.7 317.55 609.75 c 1
 267.05 602.55 201 595.45 151.8 595.45 c 1
 60.5 595.45 42 646.35 42 701.1 c 2
116.6 707.8 m 2
 116.6 673.75 131.2 666.75 160.45 666.75 c 2
 317.55 666.75 l 1
 317.55 703.35 316.9 808.25 255.2 808.25 c 2
 160.9 808.25 l 2
 129.55 808.25 116.6 794.75 116.6 761.15 c 2
 116.6 707.8 l 2
EndSplineSet
EndChar

StartChar: zeroinferior
Encoding: 271 8320 169
Width: 467
VWidth: 0
Flags: HW
LayerCount: 2
Fore
SplineSet
56.1 -87.3 m 2
 56.1 163.2 l 2
 56.1 247.5 102.7 276.8 176.7 276.8 c 2
 294 276.8 l 2
 380.3 276.8 410.3 231.4 410.3 164.1 c 10
 410.3 -87.3 l 2
 410.3 -180.75 361.45 -200 294 -200 c 2
 176.55 -200 l 2
 112.15 -200 56.1 -184.3 56.1 -87.3 c 2
131.55 -78.2 m 2
 131.55 -117.15 142.8 -127.65 186.55 -127.65 c 10
 283.4 -127.65 l 18
 330.05 -127.65 336.55 -112.9 336.55 -78.35 c 2
 336.55 155.15 l 2
 336.55 188.95 327.65 204.45 284.15 204.45 c 2
 185.8 204.45 l 2
 136.6 204.45 131.55 182.7 131.55 155.15 c 2
 131.55 -78.2 l 2
EndSplineSet
EndChar

StartChar: oneinferior
Encoding: 272 8321 170
Width: 270
VWidth: 0
Flags: HW
LayerCount: 2
Fore
SplineSet
14.95 169.85 m 1
 14.95 223.5 l 1
 135.9 278.5 l 1
 210.2 278.5 l 1
 210.2 -199.15 l 1
 135.6 -199.15 l 1
 135.6 201.55 l 1
 14.95 169.85 l 1
EndSplineSet
EndChar

StartChar: twoinferior
Encoding: 273 8322 171
Width: 391
VWidth: 0
Flags: HW
LayerCount: 2
Fore
SplineSet
29.75 212.3 m 2
 28.05 212.3 28.9 269.45 29.75 268.6 c 1
 94.55 277.35 141.05 284.65 217.55 284.65 c 3
 317.5 284.65 352.35 225.75 352.35 146.1 c 3
 352.35 26.65 204.1 -91.65 161.35 -126.8 c 9
 351.5 -126.8 l 25
 351.5 -199.15 l 25
 32.9 -199.15 l 25
 32.9 -130.95 l 17
 98.1 -80.25 275.2 38.2 275.2 141 c 1
 275.2 191.3 256.45 212.3 198.75 212.3 c 2
 29.75 212.3 l 2
EndSplineSet
EndChar

StartChar: threeinferior
Encoding: 274 8323 172
Width: 407
VWidth: 0
Flags: HW
LayerCount: 2
Fore
SplineSet
28.05 208.15 m 1
 28.05 261.05 l 1
 85.8 281.5 151.7 279.95 228.75 279.65 c 0
 314.4 279.5 351.7 224.6 351.7 161.6 c 2
 351.7 127.95 l 2
 351.7 80.65 329.6 49.35 300.6 38.6 c 1
 330.6 22.2 351.7 -7.45 351.7 -56.75 c 2
 351.7 -83.4 l 2
 351.7 -155.75 320.95 -203.3 223.75 -203.3 c 0
 148.7 -203.3 89.95 -205.3 32.05 -184.85 c 1
 33.05 -131.8 l 1
 60.25 -131.8 205.85 -130.95 205.85 -130.95 c 2
 259.7 -130.95 277.1 -116.5 277.1 -75.8 c 2
 277.1 -55.65 l 2
 277.1 -9.15 246.2 5.6 209.85 6.6 c 2
 72.35 11.6 l 2
 72.35 69.25 l 1
 209.85 76.4 l 2
 255.3 78.25 278.25 96.95 278.25 134.25 c 2
 278.25 153.55 l 2
 278.25 192.85 253.5 208.15 209.85 208.15 c 2
 28.05 208.15 l 1
EndSplineSet
EndChar

StartChar: fourinferior
Encoding: 275 8324 173
Width: 421
VWidth: 0
Flags: HW
LayerCount: 2
Fore
SplineSet
14.95 -55 m 1
 212.9 276.8 l 1
 295.6 276.8 l 1
 126 -9.8 l 1
 276.95 -9.8 l 1
 276.95 106.1 l 1
 303.9 154.55 l 1
 351.55 154.55 l 1
 351.55 -9.8 l 1
 407.7 -9.8 l 1
 407.7 -70.8 l 1
 351.55 -82.45 l 1
 351.55 -198.85 l 1
 276.95 -198.85 l 1
 276.95 -85.15 l 1
 37.1 -85.15 l 1
 14.95 -55 l 1
EndSplineSet
EndChar

StartChar: fiveinferior
Encoding: 276 8325 174
Width: 418
VWidth: 0
Flags: HW
LayerCount: 2
Fore
SplineSet
51.55 -16.1 m 1
 66.55 276.8 l 17
 366.2 276.8 l 1
 366.2 204.45 l 1
 134.9 204.45 l 25
 127.65 79.95 l 1
 157.65 107.45 237.85 98.95 270.6 98.35 c 0
 348.8 97.3 381.55 47.55 381.55 -23.6 c 2
 381.55 -87.6 l 2
 381.55 -171.25 331.35 -203.85 267.45 -203.85 c 1
 185.4 -203.85 139.6 -204.55 51.4 -189.25 c 1
 51.4 -130.2 l 1
 257.6 -130.2 l 2
 294.25 -130.2 306.95 -108.95 306.95 -79.4 c 2
 306.95 -29.55 l 2
 306.95 -8.3 307.75 27.2 258.8 27.2 c 1
 156.55 27.2 l 2
 132.15 27.2 114.65 14.85 114.65 -16.1 c 1
 51.55 -16.1 l 1
EndSplineSet
EndChar

StartChar: sixinferior
Encoding: 277 8326 175
Width: 439
VWidth: 0
Flags: HW
LayerCount: 2
Fore
SplineSet
51.25 51.75 m 0
 52.95 245.75 111.25 277.45 174.55 282.2 c 0
 241.6 287.4 321.35 282.05 385.1 269.9 c 1
 385.1 210.75 l 1
 190 210.75 l 2
 130.1 210.75 126.7 123.1 125.85 70.65 c 1
 176.35 77.85 242.4 84.95 291.75 84.95 c 1
 383.05 84.95 401.4 34.2 401.4 -20.25 c 2
 401.4 -91.6 l 2
 401.4 -166.15 355.9 -199.15 291.3 -199.15 c 2
 185.2 -199.15 l 2
 110.65 -199.15 49.55 -160.8 51.25 51.75 c 0
125.85 13.8 m 1
 125.85 -22.05 129.05 -126.8 190.75 -126.8 c 2
 282.5 -126.8 l 2
 313.85 -126.8 326.8 -113.45 326.8 -80.15 c 2
 326.8 -26.8 l 2
 326.8 6.95 312.35 13.8 283.1 13.8 c 2
 125.85 13.8 l 1
EndSplineSet
EndChar

StartChar: seveninferior
Encoding: 278 8327 176
Width: 375
VWidth: 0
Flags: HW
LayerCount: 2
Fore
SplineSet
13.95 206.15 m 1
 13.95 278.5 l 1
 340.6 278.5 l 1
 360.45 243.3 l 1
 178.15 -199.15 l 1
 94.95 -199.15 l 1
 263.25 206.15 l 1
 13.95 206.15 l 1
EndSplineSet
EndChar

StartChar: eightinferior
Encoding: 279 8328 177
Width: 465
VWidth: 0
Flags: HW
LayerCount: 2
Fore
SplineSet
61.65 -40.05 m 2
 61.65 5.7 88.25 25 116.8 32.7 c 1
 72.7 48.35 61.65 89.3 61.65 124.35 c 2
 61.65 164.8 l 2
 61.65 257.1 113.5 281.65 181.7 281.65 c 2
 292.15 281.65 l 2
 364.55 281.65 403.9 250.8 403.9 165.1 c 2
 403.9 126.75 l 2
 404.75 112.15 401.85 61 354.7 51.6 c 1
 392.1 45.15 403.9 -8.6 403.9 -36.75 c 2
 403.9 -93.7 l 2
 403.9 -181.6 351.95 -200.85 294.7 -200.85 c 2
 175.75 -200.85 l 2
 76.7 -200.85 61.65 -146.8 61.65 -94.6 c 2
 61.65 -40.05 l 2
136.25 -41.35 m 2
 136.25 -87 l 2
 136.25 -116.9 145.95 -128.85 184.25 -128.85 c 2
 284.7 -128.85 l 2
 312.85 -128.85 329.3 -118 329.3 -87 c 2
 329.3 -41.35 l 2
 329.3 -7.8 314.25 6.45 285.7 6.45 c 2
 182.55 6.45 l 2
 152.85 6.45 136.25 -5.25 136.25 -41.35 c 2
136.25 127.3 m 2
 136.25 87.05 160.4 77.25 182.55 77.25 c 2
 282.15 77.25 l 2
 326.45 77.25 329.3 105.5 329.3 127.3 c 2
 329.3 156.75 l 2
 329.3 201.15 312.6 210.5 277.9 210.5 c 2
 190.2 210.5 l 2
 148.95 210.5 136.25 199.3 136.25 156.75 c 2
 136.25 127.3 l 2
EndSplineSet
EndChar

StartChar: nineinferior
Encoding: 280 8329 178
Width: 439
VWidth: 0
Flags: HW
LayerCount: 2
Fore
SplineSet
42 103.6 m 2
 42 175.1 l 2
 42 249.95 87.65 283.1 152.25 283.1 c 2
 258.2 283.1 l 2
 332.75 283.1 393.85 244.6 392.15 31.3 c 0
 390.45 -163.15 335.55 -194.15 269.7 -199.9 c 0
 202.65 -205.95 124.6 -200.6 58.3 -188.05 c 1
 58.3 -128.75 l 1
 252.55 -128.75 l 2
 312.45 -128.75 316.7 -40.8 317.55 12.25 c 1
 267.05 5.05 201 -2.05 151.8 -2.05 c 1
 60.5 -2.05 42 48.85 42 103.6 c 2
116.6 110.3 m 2
 116.6 76.25 131.2 69.25 160.45 69.25 c 2
 317.55 69.25 l 1
 317.55 105.85 316.9 210.75 255.2 210.75 c 2
 160.9 210.75 l 2
 129.55 210.75 116.6 197.25 116.6 163.65 c 2
 116.6 110.3 l 2
EndSplineSet
EndChar

StartChar: zero.oldstyle
Encoding: 281 -1 179
Width: 639
VWidth: 0
Flags: W
HStem: 0 89<184.279 458.107> 542.3 89<183.387 457.648>
VStem: 65.35 92<115.53 515.84> 482.35 92<111.355 518.586>
LayerCount: 2
Fore
SplineSet
65.35 166.5 m 10
 65.35 463.3 l 2
 65.35 574.6 141.15 631.3 240.65 631.3 c 2
 404.65 631.3 l 2
 530.1 631.3 574.35 557.75 574.35 464.8 c 26
 574.35 166.5 l 18
 574.35 47.5 506.65 0 404.5 0 c 2
 240.5 0 l 2
 143.65 0 65.35 46.5 65.35 166.5 c 10
157.35 172.65 m 2
 157.35 107.3 205.1 89 249.2 89 c 10
 394.9 89 l 18
 454.25 89 482.35 118.5 482.35 172.5 c 2
 482.35 458.8 l 2
 482.35 504.8 463.05 542.3 396.1 542.3 c 2
 248.15 542.3 l 2
 180.85 542.3 157.35 501.55 157.35 458.8 c 2
 157.35 172.65 l 2
EndSplineSet
Substitution2: "'tnum' Tabular Numbers in Latin lookup 7-1" zero.tosf
Substitution2: "'lnum' Lining Figures lookup 19-1" zero
EndChar

StartChar: one.oldstyle
Encoding: 282 -1 180
Width: 359
VWidth: 0
Flags: W
HStem: 0 21G<188.55 280.55> 0 21G<188.55 280.55>
VStem: 188.55 92<0 532.85>
LayerCount: 2
Fore
SplineSet
28.05 483.95 m 1xa0
 28.05 547.45 l 1
 188.85 632 l 1
 280.55 632 l 1
 280.55 0 l 1
 188.55 0 l 1
 188.55 532.85 l 1
 28.05 483.95 l 1xa0
EndSplineSet
Substitution2: "'tnum' Tabular Numbers in Latin lookup 7-1" one.tosf
Substitution2: "'lnum' Lining Figures lookup 19-1" one
EndChar

StartChar: two.oldstyle
Encoding: 283 -1 181
Width: 594
VWidth: 0
Flags: W
HStem: 0 89<223.55 543.95> 549.45 89.15<87.1337 418.679> 549.45 67.65<38.3 257.176>
VStem: 455.35 88.6<381.383 516.026>
LayerCount: 2
Fore
SplineSet
38.3 549.45 m 2xb0
 38.3 617.1 l 1xb0
 133.9 631.7 222.1 642.85 341.45 638.6 c 1
 483.85 638.6 548.2 566.7 548.2 449.65 c 3
 548.2 283.6 281.25 119.6 223.55 89 c 9
 543.95 89 l 25
 543.95 0 l 25
 44.45 0 l 25
 44.45 83 l 17
 165.45 150.55 455.35 311.7 455.35 447.9 c 1
 455.35 517 418.8 552 328.45 549.45 c 1xd0
 38.3 549.45 l 2xb0
EndSplineSet
Substitution2: "'tnum' Tabular Numbers in Latin lookup 7-1" two.tosf
Substitution2: "'lnum' Lining Figures lookup 19-1" two
EndChar

StartChar: three.oldstyle
Encoding: 284 -1 182
Width: 609
VWidth: 0
Flags: W
HStem: -102 90<103.894 421.179> -74 62<53.7 153.643> 223.5 90<184 415.037> 230.5 73<114.7 276.4> 550 89<112.633 418.727> 550 61<46.7 145.869>
VStem: 448.2 91.7<16.4018 191.173 343.032 522>
LayerCount: 2
Fore
SplineSet
46.7 550 m 1x06
 46.7 611 l 1x06
 134.7 642 249.2 641 366.2 639 c 0
 476.2 637 539.9 567.05 539.9 471 c 2
 539.9 406.5 l 2
 539.9 333.5 514.35 285.9 471.2 269 c 1
 515.5 243.9 539.9 199.5 539.9 123.5 c 2
 539.9 69 l 2
 539.9 -41.8 481.2 -102 359.2 -102 c 0x8a
 245.2 -102 140.7 -105 52.7 -74 c 1
 53.7 -12 l 1x42
 339.7 -12 l 2
 396.45 -12 446.2 0.0500002 446.2 74.25 c 2
 446.2 125.75 l 2
 446.2 198.95 401.2 221.35 345.7 223.5 c 2xa2
 114.7 230.5 l 2
 114.7 303.5 l 1x12
 345.7 313.5 l 2
 414.7 316.5 448.2 346.25 448.2 405 c 2
 448.2 465 l 2
 448.2 527.9 397.7 550 345.7 550 c 2x2a
 46.7 550 l 1x06
EndSplineSet
Substitution2: "'tnum' Tabular Numbers in Latin lookup 7-1" three.tosf
Substitution2: "'lnum' Lining Figures lookup 19-1" three
EndChar

StartChar: four.oldstyle
Encoding: 285 -1 183
Width: 607
VWidth: 0
Flags: W
HStem: 79.5 93<155.7 411.65> 100 72.5<559.955 589.15>
VStem: 411.65 92<-98 79.5 172.5 368.55>
DStem2: 18.65 124 155.7 172.5 0.514123 0.857716<112.06 592.27>
LayerCount: 2
Fore
SplineSet
18.65 124 m 1xa0
 323.15 632 l 1
 429.15 632 l 1
 155.7 172.5 l 1
 411.65 172.5 l 1xa0
 411.65 368.55 l 1
 447.15 444 l 1
 503.65 444 l 1
 503.65 172.5 l 1
 589.15 172.5 l 1
 589.15 100 l 1x60
 503.65 79.5 l 1
 503.65 -98 l 1
 411.65 -98 l 1
 411.65 79.5 l 1
 52.65 79.5 l 1
 18.65 124 l 1xa0
EndSplineSet
Substitution2: "'tnum' Tabular Numbers in Latin lookup 7-1" four.tosf
Substitution2: "'lnum' Lining Figures lookup 19-1" four
EndChar

StartChar: five.oldstyle
Encoding: 286 -1 184
Width: 617
VWidth: 0
Flags: W
HStem: -104 94<117.564 430.548> -80 70<71.05 248.22> 263 87.5<178.188 431.878> 543 89<181.05 523.05>
VStem: 72.9 84<192.5 244.512> 94.9 86.15<492.159 543> 454.4 92<17.0143 243.905>
LayerCount: 2
Fore
SplineSet
71.05 -10 m 1x76
 369.05 -10 l 2
 437 -10 454.4 36.6 454.4 77 c 2
 454.4 175.15 l 2
 454.4 208.15 452.05 263 370.7 263 c 2
 233.2 263 l 2
 195.25 263 156.9 243.05 156.9 192.5 c 1
 72.9 192.5 l 1xba
 94.9 632 l 17
 523.05 632 l 1
 523.05 543 l 1
 181.05 543 l 25
 170.25 322 l 1
 186.05 338.85 213.75 346.95 242.9 350.5 c 0
 292.7 356.75 353.5 350.65 381.8 350.5 c 0
 499.5 349 546.4 278.35 546.4 180 c 2
 546.4 69 l 2
 546.4 -68 443.95 -104 376.55 -104 c 3xb6
 252.55 -104 205.05 -103 71.05 -80 c 1
 71.05 -10 l 1x76
EndSplineSet
Substitution2: "'tnum' Tabular Numbers in Latin lookup 7-1" five.tosf
Substitution2: "'lnum' Lining Figures lookup 19-1" five
EndChar

StartChar: six.oldstyle
Encoding: 287 -1 185
Width: 619
VWidth: 0
Flags: W
HStem: -1 89<206.991 457.066> 345 87.5<156.458 455.946> 345 66.5<152.8 384.944> 649 88.25<211.298 484.491> 649 68.95<305.035 539.3>
VStem: 60.8 92<163.811 345 411.5 559.091> 472.15 91.15<104.152 328.768>
LayerCount: 2
Fore
SplineSet
60.8 384 m 0xc6
 60.8 649 148.9 735.15 232.8 737.25 c 0xd6
 333.65 739.65 444.6 732 539.3 717.95 c 1
 539.3 649 l 1x8e
 260.8 649 l 2
 169.8 649 154.5 493.85 152.8 411.5 c 1xb6
 230.6 422.85 323.8 432.5 399.3 432.5 c 1
 536.8 432.5 563.3 360.15 563.3 277.5 c 2
 563.3 152.5 l 2
 563.3 37.8 495.1 -1 397.8 -1 c 2
 250.45 -1 l 2
 139.5 -0.15 60.8 69 60.8 384 c 0xc6
152.8 345 m 1xa6
 152.8 249.2 158.45 88 261.7 88 c 2
 390.9 88 l 2
 439.2 88 472.15 97.85 472.15 163.75 c 2
 472.15 273 l 2
 472.15 331.3 436.3 345 391.65 345 c 2xc6
 152.8 345 l 1xa6
EndSplineSet
Substitution2: "'tnum' Tabular Numbers in Latin lookup 7-1" six.tosf
Substitution2: "'lnum' Lining Figures lookup 19-1" six
EndChar

StartChar: seven.oldstyle
Encoding: 288 -1 186
Width: 548
VWidth: 0
Flags: W
HStem: 543 89<28.05 404.05>
DStem2: 155.05 -100 260.75 -100 0.356887 0.934148<37.7229 689.522>
LayerCount: 2
Fore
SplineSet
28.05 543 m 1
 28.05 632 l 1
 490.35 632 l 1
 520.35 579.5 l 1
 260.75 -100 l 1
 155.05 -100 l 1
 404.05 543 l 1
 28.05 543 l 1
EndSplineSet
Substitution2: "'tnum' Tabular Numbers in Latin lookup 7-1" seven.tosf
Substitution2: "'lnum' Lining Figures lookup 19-1" seven
EndChar

StartChar: eight.oldstyle
Encoding: 289 -1 187
Width: 631
VWidth: 0
Flags: W
HStem: 0 87.5<184.996 447.05> 331 85<184.4 449.198> 649.5 87.5<181.708 447.917>
VStem: 70.05 92<107.959 310.801 439.348 630.059> 469.55 92<108.725 308.864 433.937 629.188>
LayerCount: 2
Fore
SplineSet
70.05 157.75 m 2
 70.05 249 l 2
 70.05 319.4 111 345.1 153.4 357.5 c 1
 87.9 381.75 70.05 444.8 70.05 499 c 2
 70.05 564 l 2
 70.05 698.9 146.05 737 249.05 737 c 2
 396.55 737 l 2
 505.2 737 561.55 687.6 561.55 563.85 c 2
 561.55 502 l 2
 562.4 479.25 557.5 400.1 486.55 386 c 1
 542.8 375.55 562.4 296.35 561.55 253.35 c 2
 561.55 158.65 l 2
 561.55 23.7 464.5 0 395.55 0 c 2
 249.05 0 l 2
 74.35 0 70.05 113.3 70.05 157.75 c 2
162.05 159.85 m 2
 162.05 112.95 188.5 87.5 255.8 87.5 c 2
 386.85 87.5 l 2
 430 87.5 469.55 110.6 469.55 159.85 c 2
 469.55 255.1 l 2
 469.55 307.45 432.95 331 389.7 331 c 2
 246.45 331 l 2
 201.05 331 162.05 311.85 162.05 255.1 c 2
 162.05 159.85 l 2
162.05 494 m 2
 162.05 431.2 212.45 416 246.45 416 c 2
 389.4 416 l 2
 458.05 416 469.55 458.9 469.55 494 c 2
 469.55 556.3 l 2
 469.55 626.4 441.45 649.5 387.7 649.5 c 2
 255.8 649.5 l 2
 196.9 649.5 162.05 639.7 162.05 556.3 c 2
 162.05 494 l 2
EndSplineSet
Substitution2: "'tnum' Tabular Numbers in Latin lookup 7-1" eight.tosf
Substitution2: "'lnum' Lining Figures lookup 19-1" eight
EndChar

StartChar: nine.oldstyle
Encoding: 290 -1 188
Width: 619
VWidth: 0
Flags: W
HStem: -106.1 88.25<135.54 408.102> -86.8 68.95<80.1 314.579> 198.65 87.5<163.454 462.942> 219.65 66.5<234.456 466.6> 543.15 89<162.334 412.409>
VStem: 56.1 91.15<302.382 526.998> 466.6 92<72.0586 219.65 286.15 467.339>
LayerCount: 2
Fore
SplineSet
56.1 353.65 m 2x2e
 56.1 478.65 l 2
 56.1 593.35 124.3 632.15 221.6 632.15 c 2
 368.95 632.15 l 2
 479.9 631.3 558.6 562.15 558.6 247.15 c 0
 558.6 -17.85 470.5 -104 386.6 -106.1 c 0xae
 285.75 -108.5 176.5 -105.1 80.1 -86.8 c 1
 80.1 -17.85 l 1
 358.6 -17.85 l 2
 449.6 -17.85 464.9 137.3 466.6 219.65 c 1x5e
 388.8 208.3 295.6 198.65 220.1 198.65 c 1
 82.6 198.65 56.1 271 56.1 353.65 c 2x2e
147.25 358.15 m 2
 147.25 299.85 183.1 286.15 227.75 286.15 c 2x2e
 466.6 286.15 l 1x1e
 466.6 381.95 460.95 543.15 357.7 543.15 c 2
 228.5 543.15 l 2
 180.2 543.15 147.25 533.3 147.25 467.4 c 2
 147.25 358.15 l 2
EndSplineSet
Substitution2: "'tnum' Tabular Numbers in Latin lookup 7-1" nine.tosf
Substitution2: "'lnum' Lining Figures lookup 19-1" nine
EndChar

StartChar: ampersand
Encoding: 38 38 189
Width: 648
VWidth: 0
Flags: HW
LayerCount: 2
Fore
SplineSet
74.55 82 m 1
 0.6 178.2 26.1 292.6 112.8 366.9 c 2
 194.3 436.45 l 1
 134.45 518.45 l 1
 55.45 625.45 134.45 721.8 207 730 c 0
 323.9 742.65 404 727 476 710 c 1
 476 645.9 l 1
 283.5 645.9 l 2
 200.2 645.9 170.85 616.75 234.6 530.5 c 2
 451.45 236.2 l 1
 567.55 353.85 l 1
 597.6 320.25 l 1
 544.2 213.1 l 1
 504.1 168.4 l 1
 626.5 0 l 1
 517.5 0 l 1
 438.65 106.95 l 1
 368.45 42.35 l 2
 290.9 -28.75 146.45 -21.4 74.55 82 c 1
151.65 132.8 m 0
 188.05 86.6 262.05 60.8 312.9 109.25 c 2
 384.8 177.05 l 1
 243.8 364.8 l 1
 173 305.2 l 18
 100.2 244.6 110.75 185.2 151.65 132.8 c 0
EndSplineSet
AlternateSubs2: "'salt' Access All Alternates in Latin lookup 4-1" ampersand.salt
Substitution2: "'smcp' Lowercase to Small Capitals lookup 16-1" ampersand.smcp
EndChar

StartChar: asterisk
Encoding: 42 42 190
Width: 436
VWidth: 0
Flags: HW
LayerCount: 2
Fore
SplineSet
46.7 566 m 1
 46.7 610.5 l 1
 185.7 638 l 1
 190.7 561 l 1
 46.7 566 l 1
111.7 414.6 m 1
 135.85 550.05 l 1
 210.7 532 l 1
 153.2 401.25 l 1
 111.7 414.6 l 1
173.15 717.75 m 1
 216.35 734.65 l 1
 289.25 615.45 l 1
 218.25 584 l 1
 173.15 717.75 l 1
203.2 473.45 m 1
 245.7 538 l 1
 356.3 447.3 l 1
 332.15 411.7 l 1
 203.2 473.45 l 1
247.85 571 m 1
 367.7 647.75 l 1
 390 609.45 l 1
 297.5 512.45 l 1
 247.85 571 l 1
EndSplineSet
Substitution2: "'smcp' Lowercase to Small Capitals lookup 16-1" asterisk.smcp
EndChar

StartChar: Euro
Encoding: 291 8364 191
Width: 612
VWidth: 0
Flags: HW
LayerCount: 2
Fore
SplineSet
18.65 253.5 m 1
 18.65 306.5 l 1
 103.65 313.5 l 1
 103.65 405.5 l 1
 18.65 413.5 l 1
 18.65 462.5 l 1
 103.65 471.5 l 1
 103.65 543.5 96.65 740 340.65 740 c 3
 392.65 740 517.75 724.35 590.15 708.5 c 1
 590.15 637.5 l 2
 590.15 637.5 431.65 652.5 349.65 652.5 c 3
 204.85 652.5 195.65 581 195.65 471.5 c 1
 429.65 464.5 l 1
 429.65 412.5 l 1
 195.65 405.5 l 1
 195.65 313.5 l 1
 429.65 306.5 l 1
 429.65 253.5 l 1
 429.65 253.5 192.65 248.5 195.65 246.5 c 1
 195.65 118.95 261.05 80 349.65 80 c 27
 445 80 594.15 98.5 594.15 98.5 c 1
 594.15 30.5 l 1
 515.1 5.1 429.65 -6 340.65 -6 c 3
 263.65 -6 103.65 20.5 103.65 246.5 c 1
 18.65 253.5 l 1
EndSplineSet
Substitution2: "'smcp' Lowercase to Small Capitals lookup 16-1" Euro.smcp
EndChar

StartChar: parenleft
Encoding: 40 40 192
Width: 346
VWidth: 60
Flags: HW
LayerCount: 2
Fore
SplineSet
70.05 326 m 0
 70.05 613.8 233.55 860 233.55 860 c 1
 328.05 860 l 1
 328.05 860 162.05 600.7 162.05 326 c 3
 162.05 23.6 328.05 -210 328.05 -210 c 1
 233.55 -210 l 1
 233.55 -210 70.05 -2.15 70.05 326 c 0
EndSplineSet
Substitution2: "'case' Case-Sensitive Forms lookup 1-1" parenleft.alt
Substitution2: "'c2sc' Capitals to Small Capitals in Latin lookup 17 subtable" parenleft.smcp
Substitution2: "'smcp' Lowercase to Small Capitals lookup 16-1" parenleft.smcp
EndChar

StartChar: parenright
Encoding: 41 41 193
Width: 346
VWidth: 60
Flags: HW
LayerCount: 2
Fore
SplineSet
18.65 -210 m 1
 18.65 -210 184.65 23.6 184.65 326 c 3
 184.65 600.7 18.65 860 18.65 860 c 1
 113.15 860 l 1
 113.15 860 276.65 613.8 276.65 326 c 0
 276.65 -2.15 113.15 -210 113.15 -210 c 1
 18.65 -210 l 1
EndSplineSet
Substitution2: "'case' Case-Sensitive Forms lookup 1-1" parenright.alt
Substitution2: "'c2sc' Capitals to Small Capitals in Latin lookup 17 subtable" parenright.smcp
Substitution2: "'smcp' Lowercase to Small Capitals lookup 16-1" parenright.smcp
EndChar

StartChar: plus
Encoding: 43 43 194
Width: 507
VWidth: 0
Flags: HW
LayerCount: 2
Fore
SplineSet
45.5 313 m 1
 45.5 399 l 1
 209.5 399 l 1
 209.5 564 l 1
 295.5 564 l 1
 295.5 399 l 1
 461.5 399 l 1
 461.5 313 l 1
 295.5 313 l 1
 295.5 148 l 1
 209.5 148 l 1
 209.5 313 l 1
 45.5 313 l 1
EndSplineSet
EndChar

StartChar: endash
Encoding: 292 8211 195
Width: 513
VWidth: 0
Flags: HW
LayerCount: 2
Fore
SplineSet
20 244 m 1
 20 331 l 1
 493 331 l 1
 493 244 l 1
 20 244 l 1
EndSplineSet
Substitution2: "'case' Case-Sensitive Forms lookup 1-1" endash.alt
Substitution2: "'c2sc' Capitals to Small Capitals in Latin lookup 17 subtable" endash.smcp
Substitution2: "'smcp' Lowercase to Small Capitals lookup 16-1" endash.smcp
EndChar

StartChar: emdash
Encoding: 293 8212 196
Width: 736
VWidth: 0
Flags: HW
LayerCount: 2
Fore
SplineSet
20 246 m 1
 20 333 l 1
 716 333 l 1
 716 246 l 1
 20 246 l 1
EndSplineSet
Substitution2: "'case' Case-Sensitive Forms lookup 1-1" emdash.alt
Substitution2: "'c2sc' Capitals to Small Capitals in Latin lookup 17 subtable" emdash.smcp
Substitution2: "'smcp' Lowercase to Small Capitals lookup 16-1" emdash.smcp
EndChar

StartChar: less
Encoding: 60 60 197
Width: 468
VWidth: 0
Flags: HW
LayerCount: 2
Fore
SplineSet
46.7 306.8 m 1
 46.7 400.3 l 1
 421.7 557.5 l 1
 421.7 464 l 1
 159.35 353.85 l 1
 421.7 233.7 l 1
 421.7 138.5 l 1
 46.7 306.8 l 1
EndSplineSet
EndChar

StartChar: equal
Encoding: 61 61 198
Width: 467
VWidth: 0
Flags: HW
LayerCount: 2
Fore
SplineSet
20 204.5 m 1
 20 290.5 l 1
 447 290.5 l 1
 447 204.5 l 1
 20 204.5 l 1
20 415 m 1
 20 501 l 1
 447 501 l 1
 447 415 l 1
 20 415 l 1
EndSplineSet
EndChar

StartChar: greater
Encoding: 62 62 199
Width: 468
VWidth: 0
Flags: HW
LayerCount: 2
Fore
SplineSet
46.7 138.5 m 1
 46.7 233.7 l 1
 309.05 353.85 l 1
 46.7 464 l 1
 46.7 557.5 l 1
 421.7 400.3 l 1
 421.7 306.8 l 1
 46.7 138.5 l 1
EndSplineSet
EndChar

StartChar: multiply
Encoding: 215 215 200
Width: 459
VWidth: 0
Flags: HW
LayerCount: 2
Fore
SplineSet
52.4 239.2 m 1
 169.05 355 l 1
 52.4 471.8 l 1
 112.8 533.2 l 1
 229.6 416.4 l 1
 347.25 533.35 l 1
 407.8 472.8 l 1
 290.15 355 l 1
 406.95 239.2 l 1
 346.4 177.8 l 1
 229.6 294.45 l 1
 113.8 178.65 l 1
 52.4 239.2 l 1
EndSplineSet
EndChar

StartChar: divide
Encoding: 247 247 201
Width: 511
VWidth: 0
Flags: HW
LayerCount: 2
Fore
SplineSet
46.7 310 m 1
 46.7 396 l 1
 464.35 396 l 1
 464.35 310 l 1
 46.7 310 l 1
204.95 168.05 m 2
 204.95 225.5 l 2
 204.95 240.5 212.95 250.5 228.95 250.5 c 2
 285.4 250.5 l 2
 300.85 250.5 308.7 239.8 308.7 225.5 c 2
 308.7 168.05 l 2
 308.7 152.6 299.4 145.05 285.4 145.05 c 2
 228.95 145.05 l 2
 214.95 145.05 204.95 154.05 204.95 168.05 c 2
204.95 473.65 m 2
 204.95 531.1 l 2
 204.95 546.1 212.95 556.1 228.95 556.1 c 2
 285.4 556.1 l 2
 300.85 556.1 308.7 545.4 308.7 531.1 c 2
 308.7 473.65 l 2
 308.7 458.2 299.4 450.65 285.4 450.65 c 2
 228.95 450.65 l 2
 214.95 450.65 204.95 459.65 204.95 473.65 c 2
EndSplineSet
EndChar

StartChar: question
Encoding: 63 63 202
Width: 541
VWidth: 0
Flags: HW
LayerCount: 2
Fore
SplineSet
18.65 649 m 2
 18.65 717.5 l 1
 118.25 732 185.65 744 300.65 739 c 1
 452.65 739 504.15 649 504.15 551 c 2
 504.15 457.5 l 2
 504.15 322.5 405.3 274.25 265.65 293 c 1
 265.65 195 l 1
 180.15 195 l 1
 180.15 366 l 1
 314.65 366 l 0
 363.65 368 413.15 393.2 413.15 458.1 c 2
 413.15 546.2 l 2
 413.15 619.1 374.65 649 283.65 649 c 2
 18.65 649 l 2
167.75 23 m 2
 167.75 89 l 2
 167.75 104 175.75 114 191.75 114 c 2
 255.45 114 l 2
 270.9 114 278.75 103.3 278.75 89 c 2
 278.75 23 l 2
 278.75 7.55 269.45 0 255.45 0 c 2
 191.75 0 l 2
 177.75 0 167.75 9 167.75 23 c 2
EndSplineSet
Substitution2: "'smcp' Lowercase to Small Capitals lookup 16-1" question.smcp
EndChar

StartChar: bracketleft
Encoding: 91 91 203
Width: 324
VWidth: 60
Flags: HW
LayerCount: 2
Fore
SplineSet
79.45 -30.5 m 2
 79.45 665.5 l 2
 79.45 736.3 100.75 842 224.45 842 c 2
 305.95 842 l 1
 305.95 756 l 1
 233.45 756 l 2
 195.45 756 171.45 721 171.45 661 c 2
 171.45 -29 l 2
 171.45 -89 195.45 -124 233.45 -124 c 2
 305.95 -124 l 1
 305.95 -210 l 1
 224.45 -210 l 2
 96.25 -210 79.45 -96.2 79.45 -30.5 c 2
EndSplineSet
EndChar

StartChar: bracketright
Encoding: 93 93 204
Width: 324
VWidth: 60
Flags: HW
LayerCount: 2
Fore
SplineSet
18.65 -124 m 1
 91.15 -124 l 2
 129.15 -124 153.15 -89 153.15 -29 c 2
 153.15 661 l 2
 153.15 721 129.15 756 91.15 756 c 2
 18.65 756 l 1
 18.65 842 l 1
 100.15 842 l 2
 223.85 842 245.15 736.3 245.15 665.5 c 2
 245.15 -30.5 l 2
 245.15 -96.2 228.35 -210 100.15 -210 c 2
 18.65 -210 l 1
 18.65 -124 l 1
EndSplineSet
EndChar

StartChar: braceleft
Encoding: 123 123 205
Width: 320
VWidth: 60
Flags: HW
LayerCount: 2
Fore
SplineSet
18.65 294.75 m 1
 18.65 372.25 l 1
 51.65 375.25 104.15 376.2 104.15 425.25 c 2
 104.15 656 l 2
 104.15 755.6 164 842 301.65 842 c 1
 301.65 756 l 1
 241.8 756 196.15 735 196.15 644 c 2
 196.15 423 l 2
 196.15 371.1 158.7 342.4 108.15 334 c 1
 158.7 326.1 195.15 292.25 195.15 248 c 2
 195.15 -27.5 l 2
 195.15 -92.5 235.25 -128.9 301.65 -125.5 c 1
 301.65 -210 l 1
 148.6 -210 103.15 -122.9 103.15 -38 c 2
 103.15 241.75 l 2
 103.15 282.55 58.65 297.75 18.65 294.75 c 1
EndSplineSet
EndChar

StartChar: braceright
Encoding: 125 125 206
Width: 320
VWidth: 60
Flags: HW
LayerCount: 2
Fore
SplineSet
18.65 -125.5 m 1
 85.05 -128.9 125.15 -92.5 125.15 -27.5 c 2
 125.15 248 l 2
 125.15 292.25 161.6 326.1 212.15 334 c 1
 161.6 342.4 124.15 371.1 124.15 423 c 2
 124.15 644 l 2
 124.15 735 78.5 756 18.65 756 c 1
 18.65 842 l 1
 156.3 842 216.15 755.6 216.15 656 c 2
 216.15 425.25 l 2
 216.15 376.2 268.65 375.25 301.65 372.25 c 1
 301.65 294.75 l 1
 261.65 297.75 217.15 282.55 217.15 241.75 c 2
 217.15 -38 l 2
 217.15 -122.9 171.7 -210 18.65 -210 c 1
 18.65 -125.5 l 1
EndSplineSet
EndChar

StartChar: at
Encoding: 64 64 207
Width: 850
VWidth: 0
Flags: HW
LayerCount: 2
Fore
SplineSet
60.8 3 m 2
 60.8 339 l 2
 60.8 388.5 71.8 512 239.3 512 c 10
 448 512 l 17
 522.75 512 607 484.7 607 367.5 c 1
 607 0 l 9
 541.7 0 l 25
 526.2 62.5 l 17
 524.2 62.5 445.5 -9 354.5 -9 c 1
 277.5 -10.7 225.65 44.5 226.5 112.5 c 10
 226.5 162.5 l 2
 226.5 245.2 274.45 297 360 297 c 0
 423.35 297 524.2 296 524.2 297 c 0
 524.2 297 525.2 363.85 524.2 364 c 2
 524.2 416.55 496.75 427.5 446.2 427.5 c 2
 239.3 427.5 l 2
 191.3 427.5 145.3 417.5 145.3 337.5 c 2
 145.3 6 l 2
 145.3 -84 199.3 -98.5 239.3 -98.5 c 10
 583.8 -98.5 l 2
 665.8 -98.5 686.8 -62 686.8 6 c 2
 686.8 503 l 2
 686.8 580 644.8 617.75 583.8 617.75 c 2
 179.8 617.75 l 9
 179.8 675.25 l 17
 227.8 685.25 346.3 703.25 472.3 702.25 c 0
 583.8 702.25 l 2
 691.15 700.55 771.3 639.85 771.3 503 c 10
 771.3 6 l 2
 771.3 -105.5 724.65 -184 585.3 -184 c 2
 239.3 -184 l 2
 134.3 -184 60.8 -122.75 60.8 3 c 2
312.5 121.65 m 2
 312.5 100.65 337.5 74.65 369.6 75.5 c 1
 424.1 74.65 479.75 101.6 524.2 126.5 c 9
 524.2 237.5 l 17
 368 223 l 2
 330.85 219.3 311.65 195.05 312.5 161.7 c 2
 312.35 160.7 312.35 122.65 312.5 121.65 c 2
EndSplineSet
Substitution2: "'case' Case-Sensitive Forms lookup 1-1" at.alt
Substitution2: "'smcp' Lowercase to Small Capitals lookup 16-1" at.smcp
EndChar

StartChar: breve
Encoding: 294 728 208
Width: 322
VWidth: 0
Flags: HW
LayerCount: 2
Fore
SplineSet
46.7 644 m 1
 96.7 644 l 1
 96.7 606.35 127.85 580 160.7 580 c 0
 198.7 580 226.7 604.1 226.7 644 c 1
 276.7 644 l 1
 276.7 569.2 218.1 530 160.7 530 c 0
 103.6 530 46.7 572.6 46.7 644 c 1
EndSplineSet
EndChar

StartChar: ogonek
Encoding: 295 731 209
Width: 219
VWidth: 0
Flags: HW
LayerCount: 2
Fore
SplineSet
125.4 0 m 1
 168.9 0 l 1
 86.8 -65.75 100.85 -117.2 173.4 -118 c 9
 173.4 -182.5 l 0
 60.8 -201.2 -22.5 -66.1 125.4 0 c 1
EndSplineSet
EndChar

StartChar: caron
Encoding: 296 711 210
Width: 389
VWidth: 0
Flags: HW
LayerCount: 2
Fore
SplineSet
46.7 662.5 m 1
 124.55 662.5 l 1
 199.9 594.5 l 1
 266.05 662.5 l 1
 343.2 662.5 l 1
 239.8 531 l 1
 159.8 531 l 1
 46.7 662.5 l 1
159.8 531 m 1
239.8 531 m 1
EndSplineSet
Substitution2: "'smcp' Lowercase to Small Capitals lookup 16-1" caron.smcp
EndChar

StartChar: hungarumlaut
Encoding: 297 733 211
Width: 385
VWidth: 0
Flags: HW
LayerCount: 2
Fore
SplineSet
18.65 531 m 25
 121.15 665.5 l 25
 223.65 665.5 l 25
 93.65 531 l 25
 18.65 531 l 25
159.35 531 m 25
 261.85 665.5 l 25
 364.35 665.5 l 25
 234.35 531 l 25
 159.35 531 l 25
EndSplineSet
EndChar

StartChar: dotaccent
Encoding: 298 729 212
Width: 196
VWidth: 0
Flags: W
HStem: 530 108<46.8465 149.537>
VStem: 46.7 103<530.104 637.928>
LayerCount: 2
Fore
SplineSet
46.7 553 m 2
 46.7 613 l 2
 46.7 628 54.7 638 70.7 638 c 2
 126.7 638 l 2
 141.7 638 149.7 627 149.7 613 c 2
 149.7 553 l 2
 149.7 538 140.7 530 126.7 530 c 2
 70.7 530 l 2
 56.7 530 46.7 539 46.7 553 c 2
EndSplineSet
EndChar

StartChar: Lcaron
Encoding: 300 317 214
Width: 552
VWidth: 0
Flags: HW
LayerCount: 2
Fore
SplineSet
74.75 130.5 m 2
 74.75 732 l 1
 166.75 732 l 1
 166.75 141 l 2
 166.75 88 199.75 89 228.75 89 c 2
 519.75 89 l 1
 519.75 0 l 1
 215.25 0 l 2
 145.493 0 74.75 17.5 74.75 130.5 c 2
239.7 705 m 1
 239.7 772 l 1
 319.7 772 l 1
 319.7 705 l 1
 309.7 571 l 1
 250.7 571 l 1
 239.7 705 l 1
EndSplineSet
Substitution2: "'c2sc' Capitals to Small Capitals in Latin lookup 17 subtable" lcaron.smcp
EndChar

StartChar: lcaron
Encoding: 309 318 223
Width: 315
VWidth: 0
Flags: HW
LayerCount: 2
Fore
SplineSet
56.1 189 m 2
 56.1 783 l 1
 148.1 783 l 1
 148.1 195 l 2
 148.1 110.7 162.25 95 202.1 83 c 2
 202.1 83 278.1 62 285.1 62 c 1
 285.1 0 l 1
 189.6 0 l 2
 95.45 0 56.1 48 56.1 189 c 2
221.1 714.15 m 1
 221.1 781.15 l 1
 301.1 781.15 l 1
 301.1 714.15 l 1
 291.1 580.15 l 1
 232.1 580.15 l 1
 221.1 714.15 l 1
EndSplineSet
Substitution2: "'smcp' Lowercase to Small Capitals lookup 16-1" lcaron.smcp
EndChar

StartChar: tcaron
Encoding: 313 357 227
Width: 380
VWidth: 0
Flags: HW
LayerCount: 2
Fore
SplineSet
18.65 449 m 1
 18.65 511 l 1
 114.05 532 l 1
 133.55 680 l 1
 206.05 680 l 1
 206.05 532 l 1
 351.15 532 l 1
 351.15 449 l 1
 206.05 449 l 1
 206.05 196 l 2
 206.05 111.4 227.7 92.3 259.9 83.7 c 2
 259.9 83.7 335.9 62.7 342.9 62.7 c 1
 342.9 0.7 l 1
 245.6 0.7 l 2
 168.15 0.7 114.05 49 114.05 190 c 2
 114.05 449 l 1
 18.65 449 l 1
266.5 800.15 m 1
 347.35 800.15 l 1
 347.35 733.15 l 1
 336.5 599.15 l 1
 277.5 599.15 l 1
 267.35 733.15 l 1
 266.5 800.15 l 1
EndSplineSet
AlternateSubs2: "'salt' Access All Alternates in Latin lookup 4-1" tcaron.salt
Substitution2: "'smcp' Lowercase to Small Capitals lookup 16-1" tcaron.smcp
EndChar

StartChar: dcaron
Encoding: 339 271 253
Width: 568
VWidth: 0
Flags: HW
LayerCount: 2
Fore
SplineSet
46.7 263 m 0
 46.7 408.15 71.3 539 221.25 539 c 3
 266.25 539 347.85 525.45 407.65 500.5 c 1
 407.65 785 l 1
 498.8 785 l 1
 498.8 0 l 1
 428.85 0 l 1
 407.65 57.5 l 17
 379.7 36.4 287.9 -6 221.25 -6 c 3
 80.15 -6 46.7 129.15 46.7 263 c 0
138.7 264.5 m 0
 138.7 137.65 171.55 80.45 231.15 80.45 c 3
 302.95 80.45 360.25 101.6 407.65 122.85 c 1
 407.65 430.9 l 1
 347.5 447.85 300.35 455.25 231.15 455.25 c 1
 172.55 455.25 138.7 420 138.7 264.5 c 0
546.85 780.3 m 1
 627.7 780.3 l 1
 627.7 713.3 l 1
 616.85 579.3 l 1
 557.7 579.3 l 1
 547.7 713.3 l 1
 546.85 780.3 l 1
EndSplineSet
AlternateSubs2: "'salt' Access All Alternates in Latin lookup 4-1" dcaron.salt
Substitution2: "'smcp' Lowercase to Small Capitals lookup 16-1" dcaron.smcp
EndChar

StartChar: Lslash
Encoding: 347 321 261
Width: 559
VWidth: 0
Flags: HW
LayerCount: 2
Fore
SplineSet
1.65 315.95 m 1
 1.65 379.95 l 1
 83.3 415.2 l 1
 83.3 732 l 1
 175.3 732 l 1
 175.3 454.85 l 1
 307.8 511.55 l 1
 306.95 448.4 l 1
 175.3 390.85 l 1
 175.3 141 l 2
 175.3 88 208.3 89 237.3 89 c 2
 528.3 89 l 1
 528.3 0 l 1
 223.8 0 l 2
 154.043 0 83.3 17.5 83.3 130.5 c 2
 83.3 351.2 l 1
 1.65 315.95 l 1
EndSplineSet
Substitution2: "'c2sc' Capitals to Small Capitals in Latin lookup 17 subtable" lslash.smcp
EndChar

StartChar: uni00AD
Encoding: 173 173 262
Width: 354
VWidth: 0
Flags: HW
LayerCount: 2
Fore
SplineSet
20 247 m 1
 20 333 l 1
 334 333 l 1
 334 247 l 1
 20 247 l 1
EndSplineSet
Substitution2: "'case' Case-Sensitive Forms lookup 1-1" uni00AD.alt
Substitution2: "'c2sc' Capitals to Small Capitals in Latin lookup 17 subtable" uni00AD.smcp
Substitution2: "'smcp' Lowercase to Small Capitals lookup 16-1" uni00AD.smcp
EndChar

StartChar: lslash
Encoding: 348 322 263
Width: 337
VWidth: 0
Flags: HW
LayerCount: 2
Fore
SplineSet
10.15 363.9 m 1
 10.15 427.9 l 1
 88.8 461.3 l 1
 88.8 783 l 1
 180.8 783 l 1
 180.8 500.8 l 1
 316.3 559.5 l 1
 315.45 496.35 l 1
 180.8 437.65 l 1
 180.8 195 l 2
 180.8 110.7 202.6 91.6 234.8 83 c 1
 234.8 83 310.8 62 317.8 62 c 1
 317.8 0 l 1
 222.3 0 l 2
 142.6 0 88.8 48 88.8 189 c 2
 88.8 398.15 l 1
 10.15 363.9 l 1
EndSplineSet
Substitution2: "'smcp' Lowercase to Small Capitals lookup 16-1" lslash.smcp
EndChar

StartChar: dcroat
Encoding: 350 273 265
Width: 556
VWidth: 0
Flags: HW
LayerCount: 2
Fore
SplineSet
45.8 263 m 0
 45.8 408.15 70.4 539 220.35 539 c 0
 265.35 539 346.95 525.45 406.75 500.5 c 1
 406.75 613 l 1
 288.95 613 l 1
 288.95 670 l 1
 406.75 670 l 1
 406.75 785 l 1
 497.9 785 l 1
 497.9 670 l 1
 568.1 670 l 1
 568.1 613 l 1
 497.9 613 l 1
 497.9 0 l 1
 427.95 0 l 1
 406.75 57.5 l 1
 378.8 36.4 287 -6 220.35 -6 c 0
 79.25 -6 45.8 129.15 45.8 263 c 0
137.8 264.5 m 0
 137.8 137.65 170.65 80.45 230.25 80.45 c 0
 302.05 80.45 359.35 101.6 406.75 122.85 c 1
 406.75 430.9 l 1
 346.6 447.85 299.45 455.25 230.25 455.25 c 0
 171.65 455.25 137.8 420 137.8 264.5 c 0
EndSplineSet
AlternateSubs2: "'salt' Access All Alternates in Latin lookup 4-1" dcroat.salt
Substitution2: "'smcp' Lowercase to Small Capitals lookup 16-1" dcroat.smcp
EndChar

StartChar: questiondown.alt
Encoding: 351 -1 266
Width: 541
VWidth: 0
Flags: HW
LayerCount: 2
Fore
SplineSet
37.3 181.7 m 2
 37.3 275.2 l 2
 37.3 410.2 136.3 458.45 275.95 439.7 c 1
 275.95 442.25 277.65 532.6 275.95 537.7 c 1
 361.3 537.7 l 1
 361.3 366.7 l 1
 312 367.55 276.1 368.4 226.8 366.7 c 0
 177.8 364.7 128.45 339.5 128.45 274.6 c 2
 128.45 186.5 l 2
 128.45 113.6 166.8 82.85 257.8 82.85 c 2
 522.95 83.7 l 2
 522.95 15.2 l 1
 423.35 0.7 355.95 -11.3 240.95 -6.3 c 1
 88.95 -6.3 37.3 83.7 37.3 181.7 c 2
265.4 643.7 m 2
 265.4 709.7 l 2
 265.4 725.15 274.55 732.7 288.55 732.7 c 2
 352.4 732.7 l 2
 366.4 732.7 376.4 723.7 376.4 709.7 c 2
 376.4 643.7 l 2
 376.4 628.7 368.4 618.7 352.4 618.7 c 2
 288.55 618.7 l 2
 273.1 618.7 265.4 629.4 265.4 643.7 c 2
EndSplineSet
EndChar

StartChar: at.alt
Encoding: 352 -1 267
Width: 852
VWidth: 0
Flags: HW
LayerCount: 2
Fore
SplineSet
60.8 423.9 m 2
 60.8 473.4 72.65 596.9 240.15 596.9 c 10
 448.85 596.9 l 17
 523.6 596.9 607.85 569.6 607.85 452.4 c 1
 607.85 84.9 l 9
 542.55 84.9 l 25
 527.05 147.4 l 17
 525.05 147.4 446.35 75.9 355.35 75.9 c 1
 278.35 74.2 226.5 129.4 227.35 197.4 c 10
 227.35 247.4 l 2
 227.35 330.1 275.3 381.9 360.85 381.9 c 0
 424.2 381.9 525.05 380.9 525.05 381.9 c 0
 525.05 381.9 526.05 448.75 525.05 448.9 c 2
 525.05 501.45 497.6 512.4 447.05 512.4 c 2
 240.15 512.4 l 2
 192.15 512.4 146.15 502.4 146.15 422.4 c 2
 146.15 90.9 l 2
 146.15 0.900001 200.15 -13.6 240.15 -13.6 c 10
 584.65 -13.6 l 2
 666.65 -13.6 687.65 22.9 687.65 90.9 c 2
 687.65 587.9 l 2
 687.65 664.9 645.65 702.65 584.65 702.65 c 2
 180.65 702.65 l 9
 180.65 760.15 l 17
 228.65 770.15 347.15 788.15 473.15 787.15 c 0
 584.65 786.3 l 2
 692 784.6 772.15 724.75 772.15 587.9 c 10
 772.15 90.9 l 2
 772.15 -20.6 725.5 -99.1 586.15 -99.1 c 2
 240.15 -99.1 l 2
 135.15 -99.1 61.65 -37.85 61.65 87.9 c 2
 60.8 423.9 l 2
313.35 206.55 m 2
 313.35 185.55 338.35 159.55 370.45 160.4 c 1
 424.95 159.55 480.6 186.5 525.05 211.4 c 9
 525.05 322.4 l 17
 368.85 307.9 l 2
 331.7 304.2 312.5 279.95 313.35 246.6 c 2
 313.2 245.6 313.2 207.55 313.35 206.55 c 2
EndSplineSet
EndChar

StartChar: questiondown
Encoding: 191 191 268
Width: 543
VWidth: 0
Flags: HW
LayerCount: 2
Fore
SplineSet
37.3 17.05 m 1
 35.6 136.75 134.45 196.9 274.1 178.15 c 1
 274.1 180.7 275.8 271.05 274.1 276.15 c 1
 361.3 276.15 l 1
 362.15 105.15 l 1
 312.85 106 276.1 106.85 226.8 105.15 c 0
 177.8 103.15 143.6 62.65 140.2 10.5 c 1
 140.2 10.5 139.35 -59.75 139.35 -76.75 c 1
 139.35 -126.7 171.05 -181.25 257.8 -178.7 c 1
 300.3 -178.7 524.5 -177.85 524.5 -177.85 c 2
 521.95 -177.85 524.5 -247.2 522.8 -246.35 c 1
 423.2 -260.85 355.8 -272.85 240.8 -267.85 c 1
 74.35 -268.7 37.3 -163.4 37.3 -77.3 c 2
 37.3 17.05 l 1
263.55 384.7 m 1
 263.55 445.6 l 2
 263.55 460.2 275.4 470.3 287.7 471.15 c 1
 346.3 471.15 l 1
 360.3 470.3 370.3 462.15 370.3 448.15 c 2
 370.3 384.7 l 2
 369.45 370.55 362.3 360.55 348.85 359.7 c 1
 284.3 359.7 l 1
 270.55 363.1 264.4 372.1 263.55 384.7 c 1
EndSplineSet
Substitution2: "'case' Case-Sensitive Forms lookup 1-1" questiondown.alt
Substitution2: "'smcp' Lowercase to Small Capitals lookup 16-1" questiondown.smcp
EndChar

StartChar: oe
Encoding: 353 339 269
Width: 903
VWidth: 0
Flags: HW
LayerCount: 2
Fore
SplineSet
46.7 258 m 0
 46.7 475 107.45 536 282.95 536 c 0
 374.4 536 433.45 517.95 468.75 472.05 c 1
 503.75 524.75 565.05 535 657.5 535 c 0
 790.3 535 866.5 521.5 866.5 345.5 c 0
 866.5 263.7 822.5 220.5 726.5 220.5 c 2
 518.35 220.5 l 1
 514.95 113.65 542.4 79.35 621.5 79.35 c 0
 710.5 79.35 781.5 78.5 856.5 89.5 c 1
 856.5 23 l 1
 777.15 -1.35 683.5 -5 600.5 -5 c 0
 534.6 -5 492 12.2 466.3 54.1 c 1
 431.15 12.05 372.4 -5 282.95 -5 c 0
 102.75 -5 46.7 68 46.7 258 c 0
138.7 258 m 0
 138.7 91.8 187.75 79.5 282.95 79.5 c 0
 408.95 79.5 425.5 114.35 425.5 268 c 0
 425.5 421.45 395.75 451.5 282.95 451.5 c 0
 178.9 451.5 138.7 437.45 138.7 258 c 0
518.35 301 m 1
 716.6 301 l 2
 756.55 301 774.5 316.55 774.5 347.45 c 0
 774.5 442.1 757.35 452 660.45 452 c 0
 557.25 452 512.95 441.6 518.35 301 c 1
EndSplineSet
Substitution2: "'smcp' Lowercase to Small Capitals lookup 16-1" oe.smcp
EndChar

StartChar: OE
Encoding: 354 338 270
Width: 1042
VWidth: 0
Flags: HW
LayerCount: 2
Fore
SplineSet
152.8 361 m 0
 152.8 119.6 197.8 85 346.8 85 c 0
 492.3 85 540.65 126.1 540.65 361 c 0
 540.65 640.65 476.05 648 346.8 648 c 0
 220.55 648 152.8 642 152.8 361 c 0
60.8 361 m 0
 60.8 704 178.8 737 346.8 737 c 0
 436.6 737 510.05 727.75 559.05 669.6 c 1
 580.3 716.95 626 734.85 675.65 732 c 2
 675.65 732 973.6 718.4 991.15 716 c 1
 991.15 642.25 l 1
 684.65 642.25 l 2
 632.65 642.25 632.65 613.25 632.65 586.25 c 2
 632.65 409.65 l 1
 949.65 399.5 l 1
 949.65 325.2 l 1
 632.65 315.35 l 1
 632.65 138.75 l 2
 633.5 85.75 665.65 86.75 694.65 86.75 c 2
 991.15 86.75 l 1
 991.15 14 l 1
 975.7 11.9 685.65 -3 685.65 -3 c 2
 635.2 -5.85 579.9 2.8 556.45 59.55 c 1
 508.6 6.95 437.3 -4 346.8 -4 c 0
 166.8 -4 60.8 28 60.8 361 c 0
EndSplineSet
EndChar

StartChar: guillemotright
Encoding: 187 187 272
Width: 557
VWidth: 0
Flags: HW
LayerCount: 2
Fore
SplineSet
46.7 204.9 m 1
 199.35 354 l 1
 51.1 498.55 l 1
 109.85 557 l 1
 315.85 354 l 1
 104.85 146 l 1
 46.7 204.9 l 1
241.85 204.9 m 1
 394.5 354 l 1
 246.25 498.55 l 1
 305 557 l 1
 511 354 l 1
 300 146 l 1
 241.85 204.9 l 1
EndSplineSet
EndChar

StartChar: cent
Encoding: 162 162 273
Width: 489
VWidth: 0
Flags: HW
LayerCount: 2
Fore
SplineSet
37.3 266 m 0
 37.3 500.35 112.15 541.95 226.05 537.7 c 1
 226.05 634 l 1
 293.25 634 l 1
 293.25 533.15 l 1
 342.65 527.45 399.75 518.45 444.95 508.5 c 1
 444.95 445.5 l 1
 444.95 445.5 317.65 453.2 228.65 453.2 c 0
 167.45 453.2 129.3 442.45 129.3 262.3 c 0
 129.3 113.95 156.65 77.8 228.65 77.8 c 0
 320.65 77.8 451.8 88.35 451.8 88.35 c 1
 451.8 23.65 l 1
 398.15 5.25 346.25 -1.75 292.65 -4.3 c 1
 292.65 -95.85 l 1
 225.45 -95.85 l 1
 225.45 -6.7 l 1
 114 -8.1 37.3 29.55 37.3 266 c 0
EndSplineSet
EndChar

StartChar: sterling
Encoding: 163 163 274
Width: 592
VWidth: 0
Flags: HW
LayerCount: 2
Fore
SplineSet
46.7 0 m 1
 46.7 72.5 l 1
 117.2 89 l 1
 117.2 325.5 l 1
 46.7 325.5 l 1
 46.7 378 l 1
 117.2 396.5 l 1
 117.2 499 l 2
 117.2 714.95 214.65 732 352.7 732 c 3
 409.7 732 545.7 716 545.7 716 c 1
 545.7 644 l 1
 353.2 644 l 2
 240.8 644 209.2 640.4 209.2 502.3 c 2
 209.2 396.5 l 1
 466.7 379.5 l 1
 466.7 325.5 l 1
 209.2 325.5 l 1
 209.2 89 l 1
 544.7 89 l 1
 544.7 0 l 1
 46.7 0 l 1
EndSplineSet
Substitution2: "'smcp' Lowercase to Small Capitals lookup 16-1" sterling.smcp
EndChar

StartChar: yen
Encoding: 165 165 275
Width: 609
VWidth: 0
Flags: HW
LayerCount: 2
Fore
SplineSet
18.65 732 m 1
 119.15 732 l 1
 295.55 396.1 l 1
 487.6 732 l 1
 590.65 732 l 1
 351.55 325.5 l 1
 513.35 325.5 l 1
 513.35 260.5 l 1
 340.95 260.5 l 1
 340.95 214.25 l 1
 513.35 214.25 l 1
 513.35 149.25 l 1
 340.95 149.25 l 1
 340.95 0 l 1
 248.95 0 l 1
 248.95 149.25 l 1
 86.35 149.25 l 1
 86.35 214.25 l 1
 248.95 214.25 l 1
 248.95 260.5 l 1
 86.35 260.5 l 1
 86.35 325.5 l 1
 238.95 325.5 l 1
 18.65 732 l 1
EndSplineSet
Substitution2: "'smcp' Lowercase to Small Capitals lookup 16-1" yen.smcp
EndChar

StartChar: section
Encoding: 167 167 276
Width: 549
VWidth: 0
Flags: HW
LayerCount: 2
Fore
SplineSet
52.4 348.5 m 2
 52.4 403 l 2
 52.4 450.3 59 488.9 100.9 502 c 1
 61.05 515.75 51.4 555.6 51.4 590 c 2
 51.4 654 l 2
 51.4 752 114.4 784 184.4 784 c 3
 240.75 784 417.7 770.95 459.9 765 c 1
 459.9 698 l 1
 194.9 698 l 2
 162.85 698 144.25 688 143.4 651.9 c 2
 143.4 591.5 l 2
 143.4 557.85 169.2 547.8 195.2 547.8 c 2
 358.9 547.8 l 2
 471.9 547.8 498.75 497.65 497.9 421.1 c 2
 497.9 366.6 l 2
 497.9 336.95 495.3 280.9 451.4 272.5 c 1
 493 265.9 496.9 219 496.9 186 c 2
 496.9 117.5 l 2
 496.9 5.2 422.9 -8 358.9 -8 c 3
 300.6 -8 129.55 4.9 88.4 11 c 1
 88.4 78 l 1
 346.6 78 l 2
 378.8 78 404.2 82.15 405.05 118.55 c 2
 405.05 182.4 l 2
 405.05 220.2 388.7 225.5 351.55 225.5 c 2
 187.4 225.5 l 2
 104.4 225.5 52.4 247.4 52.4 348.5 c 2
143.4 356.6 m 2
 143.4 314 161.65 310 196.4 310 c 2
 350.05 310 l 2
 404.85 310 405.05 329.6 405.05 357.6 c 2
 406.05 358.6 405.05 413 405.05 413 c 2
 405.05 445.75 403.05 464 350.05 464 c 2
 196.4 464 l 2
 154.45 464 143.4 455.65 143.4 411 c 2
 143.4 356.6 l 2
EndSplineSet
EndChar

StartChar: g.salt
Encoding: 356 -1 277
Width: 555
VWidth: 0
Flags: HW
LayerCount: 2
Fore
SplineSet
46.7 270.4 m 3
 46.7 441.55 108.55 537.9 233.55 537.9 c 3
 339.55 537.9 451 519.65 499.05 512.95 c 1
 499.05 -92 l 2
 499.05 -219.3 412 -280.65 326.55 -272 c 2
 73.05 -248 l 1
 73.05 -187 l 1
 322.05 -187 l 2
 375.05 -187 407.05 -156 407.05 -92 c 2
 407.05 31.25 l 1
 349.35 4.95 278.55 -7.6 233.55 -7.6 c 3
 80.55 -7.6 46.7 107.3 46.7 270.4 c 3
138.7 271.45 m 3
 138.7 180.7 136.05 76.3 240.75 76.3 c 3
 306.65 76.3 334.7 80.3 407.05 100.4 c 1
 407.05 454.9 l 2
 241.05 454.9 l 2
 141.4 454.9 138.7 334 138.7 271.45 c 3
EndSplineSet
EndChar

StartChar: guillemotleft
Encoding: 171 171 278
Width: 557
VWidth: 0
Flags: HW
LayerCount: 2
Fore
SplineSet
46.7 354 m 1
 252.7 557 l 1
 311.45 498.55 l 1
 163.2 354 l 1
 315.85 204.9 l 1
 257.7 146 l 1
 46.7 354 l 1
241.85 354 m 1
 447.85 557 l 1
 506.6 498.55 l 1
 358.35 354 l 1
 511 204.9 l 1
 452.85 146 l 1
 241.85 354 l 1
EndSplineSet
EndChar

StartChar: paragraph
Encoding: 182 182 279
Width: 579
VWidth: 0
Flags: HW
LayerCount: 2
Fore
SplineSet
37.3 499 m 2
 37.3 592 l 2
 37.3 687 113.75 732 193.3 732 c 2
 561.45 732 l 1
 561.45 648.5 l 1
 496.8 648.5 l 1
 496.8 0 l 1
 415.3 0 l 1
 415.3 650.5 l 1
 328.8 650.5 l 1
 328.8 -270 l 1
 247.3 -270 l 1
 247.3 372 l 1
 241.3 370 223.35 354.15 193.3 355 c 1
 88.65 355 37.3 421 37.3 499 c 2
118.8 503.7 m 2
 118.8 445.15 166.8 436.5 194.8 436.5 c 10
 247.3 436.5 l 25
 247.3 650.5 l 25
 194.8 650.5 l 2
 133.55 650.5 118.8 615.3 118.8 585.2 c 10
 118.8 503.7 l 2
EndSplineSet
EndChar

StartChar: macron
Encoding: 175 175 280
Width: 385
VWidth: 0
Flags: HW
LayerCount: 2
Fore
SplineSet
46.7 531 m 1
 46.7 598.5 l 1
 338.7 598.5 l 1
 338.7 531 l 1
 46.7 531 l 1
EndSplineSet
Substitution2: "'smcp' Lowercase to Small Capitals lookup 16-1" macron.smcp
EndChar

StartChar: copyright
Encoding: 169 169 281
Width: 808
VWidth: 0
Flags: HW
LayerCount: 2
Fore
SplineSet
51.4 368 m 0
 51.4 535.8 88.35 732 285.9 732 c 2
 545.4 732 l 2
 742.45 732 756.9 505.65 756.9 368 c 0
 756.9 165.1 696.4 0 545.4 0 c 2
 285.9 0 l 2
 100.55 0 51.4 220.95 51.4 368 c 0
122.9 368 m 0
 122.9 222.6 171.9 70.85 285.9 70 c 2
 543.9 70 l 2
 623.7 70.85 685.4 164 685.4 368 c 0
 685.4 488 676.4 662 545.4 662 c 2
 285.9 662 l 2
 196.9 662 122.9 605.95 122.9 368 c 0
228.9 365 m 3
 228.9 526 290.55 583 372.9 583 c 3
 413.9 583 496.1 570.8 552.4 559 c 1
 552.4 501 l 1
 489.4 510 411.9 513 378.9 513 c 3
 324.9 513 300.4 465.5 300.4 362 c 3
 300.4 278 315.05 217 379.95 217 c 27
 449.85 217 522.65 227.55 558.4 233 c 1
 558.4 175 l 17
 496.2 155.5 441.25 147 374.25 147 c 3
 295.25 147 228.9 188 228.9 365 c 3
EndSplineSet
EndChar

StartChar: registered
Encoding: 174 174 282
Width: 808
VWidth: 0
Flags: HW
LayerCount: 2
Fore
SplineSet
51.4 368 m 0
 51.4 535.8 88.35 732 285.9 732 c 2
 545.4 732 l 2
 742.45 732 756.9 505.65 756.9 368 c 0
 756.9 165.1 696.4 0 545.4 0 c 2
 285.9 0 l 2
 100.55 0 51.4 220.95 51.4 368 c 0
122.9 368 m 0
 122.9 222.6 171.9 70.85 285.9 70 c 2
 543.9 70 l 2
 623.7 70.85 685.4 164 685.4 368 c 0
 685.4 488 676.4 662 545.4 662 c 2
 285.9 662 l 2
 196.9 662 122.9 605.95 122.9 368 c 0
257.4 153 m 1
 257.4 580 l 1
 435.9 580 l 2
 501.9 580 569.9 557.25 569.9 450.5 c 3
 569.9 340.35 514.35 327.85 478.7 319.5 c 1
 568.65 153 l 1
 489.3 153 l 1
 400.4 320 l 1
 328.9 332 l 1
 328.9 153 l 1
 257.4 153 l 1
328.9 382 m 1
 435.9 382 l 2
 487.9 382 498.4 393.65 498.4 449.5 c 3
 498.4 507.85 464.75 510 435.9 510 c 2
 328.9 510 l 1
 328.9 382 l 1
EndSplineSet
EndChar

StartChar: plusminus
Encoding: 177 177 283
Width: 519
VWidth: 0
Flags: HW
LayerCount: 2
Fore
SplineSet
52.4 82.5 m 1
 52.4 168.5 l 1
 468.4 168.5 l 1
 468.4 82.5 l 1
 52.4 82.5 l 1
52.4 385.5 m 1
 52.4 471.5 l 1
 216.4 471.5 l 1
 216.4 636.5 l 1
 302.4 636.5 l 1
 302.4 471.5 l 1
 468.4 471.5 l 1
 468.4 385.5 l 1
 302.4 385.5 l 1
 302.4 220.5 l 1
 216.4 220.5 l 1
 216.4 385.5 l 1
 52.4 385.5 l 1
EndSplineSet
EndChar

StartChar: logicalnot
Encoding: 172 172 284
Width: 518
VWidth: 0
Flags: HW
LayerCount: 2
Fore
SplineSet
45.5 251.5 m 1
 45.5 336 l 1
 472.5 336 l 1
 472.5 279 472.5 216 472.5 159 c 1
 388 159 l 1
 388 251.5 l 1
 45.5 251.5 l 1
EndSplineSet
EndChar

StartChar: guilsinglleft
Encoding: 357 8249 285
Width: 356
VWidth: 0
Flags: HW
LayerCount: 2
Fore
SplineSet
46.7 354 m 1
 252.7 557 l 1
 311.45 498.55 l 1
 163.2 354 l 1
 315.85 204.9 l 1
 257.7 146 l 1
 46.7 354 l 1
EndSplineSet
EndChar

StartChar: guilsinglright
Encoding: 358 8250 286
Width: 356
VWidth: 0
Flags: HW
LayerCount: 2
Fore
SplineSet
46.7 204.9 m 1
 199.35 354 l 1
 51.1 498.55 l 1
 109.85 557 l 1
 315.85 354 l 1
 104.85 146 l 1
 46.7 204.9 l 1
EndSplineSet
EndChar

StartChar: perthousand
Encoding: 359 8240 287
Width: 1380
VWidth: 0
Flags: HW
LayerCount: 2
Fore
SplineSet
39.3 475.5 m 2
 39.3 605.5 l 2
 39.3 690.5 68.8 732 169.8 732 c 2
 270.8 732 l 2
 368.8 732 399.3 690.5 399.3 605.5 c 2
 399.3 475.5 l 18
 399.3 390.5 369.8 349 268.8 349 c 2
 167.8 349 l 2
 69.8 349 39.3 390.5 39.3 475.5 c 2
113.3 480 m 2
 113.3 435.05 126.65 423 171.55 423 c 2
 265.05 423 l 2
 319.45 423 325.3 438.45 325.3 480 c 10
 325.3 601 l 2
 325.3 647.6 310.75 658 267.05 658 c 2
 173.55 658 l 2
 120.95 658 113.3 644.35 113.3 601 c 2
 113.3 480 l 2
221.75 0 m 1
 662.15 732 l 1
 741.1 732 l 1
 301.75 0 l 1
 221.75 0 l 1
557.8 128.65 m 2
 557.8 258.65 l 2
 557.8 343.65 587.15 385.15 688.15 385.15 c 2
 789.3 385.15 l 2
 887.3 385.15 917.8 343.65 917.8 258.65 c 2
 917.8 128.65 l 18
 917.8 43.65 888.3 2.15 787.3 2.15 c 2
 686.15 2.15 l 2
 588.15 2.15 557.8 43.65 557.8 128.65 c 2
631.8 133.15 m 2
 631.8 88.2 645.15 76.15 690.05 76.15 c 2
 783.4 76.15 l 2
 837.8 76.15 843.8 91.6 843.8 133.15 c 10
 843.8 254.15 l 2
 843.8 300.75 829.1 311.15 785.4 311.15 c 2
 692.05 311.15 l 2
 639.45 311.15 631.8 297.5 631.8 254.15 c 2
 631.8 133.15 l 2
981.4 128.65 m 2
 981.4 258.65 l 2
 981.4 343.65 1010.9 385.15 1111.9 385.15 c 2
 1212.9 385.15 l 2
 1310.9 385.15 1341.4 343.65 1341.4 258.65 c 2
 1341.4 128.65 l 18
 1341.4 43.65 1311.9 2.15 1210.9 2.15 c 2
 1109.9 2.15 l 2
 1011.9 2.15 981.4 43.65 981.4 128.65 c 2
1055.4 133.15 m 2
 1055.4 88.2 1068.75 76.15 1113.65 76.15 c 2
 1207.15 76.15 l 2
 1261.55 76.15 1267.4 91.6 1267.4 133.15 c 10
 1267.4 254.15 l 2
 1267.4 300.75 1252.85 311.15 1209.15 311.15 c 2
 1115.65 311.15 l 2
 1063.05 311.15 1055.4 297.5 1055.4 254.15 c 2
 1055.4 133.15 l 2
EndSplineSet
Substitution2: "'smcp' Lowercase to Small Capitals lookup 16-1" perthousand.smcp
EndChar

StartChar: dagger
Encoding: 360 8224 288
Width: 399
VWidth: 0
Flags: HW
LayerCount: 2
Fore
SplineSet
18.65 479.25 m 1
 18.65 551.75 l 1
 151.65 562.5 l 1
 160.4 770 l 1
 239.9 770 l 1
 248.65 562.5 l 1
 380.65 551.75 l 1
 380.65 479.25 l 1
 248.65 468.5 l 1
 238.9 -72 l 1
 159.4 -72 l 1
 151.65 468.5 l 1
 18.65 479.25 l 1
EndSplineSet
EndChar

StartChar: daggerdbl
Encoding: 361 8225 289
Width: 417
VWidth: 0
Flags: HW
LayerCount: 2
Fore
SplineSet
18.65 166.5 m 1
 18.65 239 l 1
 152.95 250.35 l 1
 151.65 468.5 l 1
 18.65 479.25 l 1
 18.65 551.75 l 1
 151.65 562.5 l 1
 161.25 770 l 1
 239.9 770 l 1
 248.65 562.5 l 1
 380.65 551.75 l 1
 380.65 479.25 l 1
 248.65 468.5 l 1
 245.65 250.2 l 1
 380.65 239 l 1
 380.65 166.5 l 1
 243.05 155.45 l 1
 238.9 -72 l 1
 159.4 -72 l 1
 155.4 155.15 l 1
 18.65 166.5 l 1
EndSplineSet
EndChar

StartChar: trademark
Encoding: 362 8482 290
Width: 695
VWidth: 0
Flags: HW
LayerCount: 2
Fore
SplineSet
18.65 663.5 m 1
 18.65 732 l 1
 283.65 732 l 1
 283.65 663.5 l 1
 187.4 663.5 l 1
 187.4 383 l 1
 115.9 383 l 1
 115.9 663.5 l 1
 18.65 663.5 l 1
316.65 383 m 1
 346.65 732 l 1
 418.35 732 l 1
 502.35 503.7 l 1
 573.65 732 l 1
 647.65 732 l 1
 681.65 383 l 1
 610.15 383 l 1
 592.7 580.2 l 1
 533.8 383 l 1
 473.3 383 l 1
 403.15 580.75 l 1
 388.15 383 l 1
 316.65 383 l 1
EndSplineSet
EndChar

StartChar: notequal
Encoding: 363 8800 291
Width: 464
VWidth: 0
Flags: HW
LayerCount: 2
Fore
SplineSet
18.65 204.5 m 1
 18.65 294.75 l 1
 166.55 294.75 l 1
 236.7 410.75 l 1
 18.65 410.75 l 1
 18.65 501 l 1
 290.7 501 l 1
 334.75 573.45 l 1
 398.75 573.45 l 1
 354.7 501 l 1
 445.65 501 l 1
 445.65 410.75 l 1
 300.7 410.75 l 1
 230.55 294.75 l 1
 445.65 294.75 l 1
 445.65 204.5 l 1
 176.7 204.5 l 1
 126.65 121.05 l 1
 62.65 121.05 l 1
 112.7 204.5 l 1
 18.65 204.5 l 1
EndSplineSet
EndChar

StartChar: infinity
Encoding: 364 8734 292
Width: 779
VWidth: 0
Flags: HW
LayerCount: 2
Fore
SplineSet
46.7 341 m 3
 46.7 428 74.7 514 212.7 514 c 3
 288.7 514 349.75 470 389.1 411.7 c 1
 427.1 470.9 490.7 514 566.7 514 c 3
 704.7 514 732.7 428 732.7 341 c 3
 732.7 249 693.7 169 566.7 169 c 3
 491.8 169 434.05 196 387.95 273.7 c 1
 343.35 196 286.7 169 212.7 169 c 3
 85.7 169 46.7 249 46.7 341 c 3
129.55 341 m 3
 129.55 290.05 143.5 250.35 214.65 250.35 c 3
 278.4 250.35 318.4 295.75 348.85 341 c 1
 319.25 387.25 265.6 432.65 214.65 432.65 c 3
 134.1 432.65 129.55 391.95 129.55 341 c 3
429.95 340.85 m 1
 460.4 295.6 500.7 250.35 564.45 250.35 c 3
 631.9 250.35 649.85 290.05 649.85 341 c 3
 649.85 391.95 643.15 432.65 564.45 432.65 c 3
 512 432.65 459.55 387.1 429.95 340.85 c 1
EndSplineSet
EndChar

StartChar: lessequal
Encoding: 365 8804 293
Width: 468
VWidth: 0
Flags: W
HStem: 97.85 83<46.7 422.4>
DStem2: 46.7 480.3 159.35 433.85 0.924862 0.380303<86.5206 369.908> 159.35 433.85 46.7 386.8 0.915045 -0.403352<0 287.315>
LayerCount: 2
Fore
SplineSet
46.7 97.85 m 1
 46.7 180.85 l 1
 422.4 180.85 l 1
 422.4 97.85 l 1
 46.7 97.85 l 1
46.7 386.8 m 1
 46.7 480.3 l 1
 421.7 634.5 l 1
 421.7 541 l 1
 159.35 433.85 l 1
 421.7 316.7 l 1
 421.7 221.5 l 1
 46.7 386.8 l 1
EndSplineSet
EndChar

StartChar: greaterequal
Encoding: 366 8805 294
Width: 468
VWidth: 0
Flags: HW
LayerCount: 2
Fore
SplineSet
46.7 97.85 m 1
 46.7 180.85 l 1
 422.55 180.85 l 1
 422.55 97.85 l 1
 46.7 97.85 l 1
47.55 221.5 m 1
 47.55 316.7 l 1
 309.9 433.85 l 1
 47.55 541 l 1
 47.55 634.5 l 1
 422.55 480.3 l 1
 422.55 386.8 l 1
 47.55 221.5 l 1
EndSplineSet
EndChar

StartChar: circumflex
Encoding: 367 710 295
Width: 389
VWidth: 0
Flags: HW
LayerCount: 2
Fore
SplineSet
46.7 531 m 1
 161.15 662.5 l 1
 241.15 662.5 l 1
 343.2 531 l 1
 266.2 531 l 1
 198.5 599 l 1
 124.7 531 l 1
 46.7 531 l 1
161.15 662.5 m 1
241.15 662.5 m 1
EndSplineSet
Substitution2: "'smcp' Lowercase to Small Capitals lookup 16-1" circumflex.smcp
EndChar

StartChar: tilde
Encoding: 368 732 296
Width: 432
VWidth: 0
Flags: HW
LayerCount: 2
Fore
SplineSet
46.7 575.9 m 17
 84.45 609.35 122.2 641.4 165.45 641.4 c 1
 214.55 638.85 242.5 607.25 272.3 606.4 c 1
 298.7 605.25 333.1 625.1 363.6 643 c 9
 386.2 596.2 l 17
 354.85 570 315 530.15 271.65 531.85 c 1
 217.6 534.4 199.75 566.85 163.3 566 c 1
 120.05 565.15 104.7 546.5 68.6 531 c 9
 46.7 575.9 l 17
EndSplineSet
Substitution2: "'smcp' Lowercase to Small Capitals lookup 16-1" tilde.smcp
EndChar

StartChar: ring
Encoding: 369 730 297
Width: 296
VWidth: 0
Flags: HW
LayerCount: 2
Fore
SplineSet
46.7 632 m 0
 46.7 689 92.7 735 148.7 735 c 0
 204.7 735 249.7 689 249.7 632 c 0
 249.7 575 204.7 530 148.7 530 c 0
 92.7 530 46.7 575 46.7 632 c 0
96.85 632 m 27
 96.85 603.65 120.35 581.15 148.7 581.15 c 27
 177.05 581.15 199.55 603.65 199.55 632 c 27
 199.55 660.35 177.05 683.85 148.7 683.85 c 27
 120.35 683.85 96.85 660.35 96.85 632 c 27
EndSplineSet
Substitution2: "'smcp' Lowercase to Small Capitals lookup 16-1" ring.smcp
EndChar

StartChar: fraction
Encoding: 371 8260 299
Width: 257
VWidth: 0
Flags: HW
LayerCount: 2
Fore
SplineSet
-84.15 0 m 1
 266.55 737.7 l 1
 341.45 737.7 l 1
 -9.25 0 l 1
 -84.15 0 l 1
EndSplineSet
EndChar

StartChar: dotlessi
Encoding: 372 305 300
Width: 204
VWidth: 0
Flags: HW
LayerCount: 2
Fore
SplineSet
56.1 0 m 1
 56.1 531 l 1
 148.1 531 l 1
 148.1 0 l 1
 56.1 0 l 1
EndSplineSet
EndChar

StartChar: fi
Encoding: 373 64257 301
Width: 613
VWidth: 0
Flags: HW
LayerCount: 2
Fore
SplineSet
18.65 448 m 1
 18.65 514 l 1
 112.75 531 l 1
 112.75 580.4 l 2
 112.75 698.85 191.4 785.4 315.3 786 c 0
 364.3 786.15 468.8 769.25 516.3 753.5 c 1
 516.3 695.2 l 1
 515.3 695.2 341.15 704.7 341.15 704.7 c 2
 279.25 708.1 204.75 684.5 204.75 578.9 c 2
 204.75 531 l 1
 562 521 l 1
 562 0 l 1
 469.15 0 l 1
 469.15 448 l 1
 204.75 448 l 1
 204.75 0 l 1
 112.75 0 l 1
 112.75 448 l 1
 18.65 448 l 1
EndSplineSet
Ligature2: "'liga' Standard Ligatures lookup 15-1" f i
EndChar

StartChar: fl
Encoding: 374 64258 302
Width: 718
VWidth: 0
Flags: HW
LayerCount: 2
Fore
SplineSet
18.65 448 m 1
 18.65 514 l 1
 113.6 531 l 1
 113.6 581.9 l 2
 113.6 701.45 165.75 786 285.75 786 c 1
 562.7 785.55 l 1
 562.7 195 l 2
 562.7 110.7 576.85 95 616.7 83 c 1
 616.7 83 692.7 62 699.7 62 c 1
 699.7 0 l 1
 604.2 0 l 2
 510.05 0 470.7 48 470.7 189 c 2
 470.7 704.55 l 1
 463.95 704.55 305.6 704.7 305.6 704.7 c 2
 243.7 704.7 205.6 683 205.6 581.9 c 2
 205.6 531 l 1
 344.4 531 l 1
 344.4 448 l 1
 203.9 448 l 1
 203.9 0 l 1
 111.9 0 l 1
 111.9 448 l 1
 18.65 448 l 1
EndSplineSet
Ligature2: "'liga' Standard Ligatures lookup 15-1" f l
EndChar

StartChar: exclamdown
Encoding: 161 161 303
Width: 270
VWidth: 0
Flags: HW
LayerCount: 2
Fore
SplineSet
79.4 375.7 m 2
 79.4 438 l 2
 79.4 452 89.4 460 103.4 461 c 1
 162.15 461 l 1
 174.15 460 186.15 449 186.15 435 c 2
 186.15 376.55 l 1
 185.3 364.4 181.15 349.55 163.3 349.55 c 1
 103.4 349.55 l 1
 87.85 349.55 79.4 360.1 79.4 375.7 c 2
81.85 -270 m 1
 89.95 261.6 l 1
 175.75 261.6 l 1
 185.4 -270 l 1
 81.85 -270 l 1
EndSplineSet
Substitution2: "'case' Case-Sensitive Forms lookup 1-1" exclamdown.alt
Substitution2: "'smcp' Lowercase to Small Capitals lookup 16-1" exclamdown.smcp
EndChar

StartChar: ampersand.salt
Encoding: 375 -1 304
Width: 955
VWidth: 0
Flags: HW
LayerCount: 2
Fore
SplineSet
41.15 295.15 m 2
 41.15 383.25 l 2
 41.15 527.9 120.4 551.05 262.65 551.35 c 1
 700.65 551.35 l 1
 718.65 692.9 l 1
 792.65 692.9 l 1
 792.65 549.35 l 1
 935.65 549.35 l 1
 935.65 485.8 l 1
 792.65 465.95 l 1
 792.65 195.55 l 2
 792.65 39.05 662.65 -0.3 552.15 -0.3 c 2
 388.15 -0.3 l 0
 278.05 -0.15 195.65 24.8 195.65 156.25 c 1
 125.15 156.25 41.15 192.05 41.15 295.15 c 2
133.15 296.5 m 2
 133.15 253.85 164.65 238.3 195.65 238.3 c 1
 195.65 358.9 256.4 404 369.65 404 c 2
 483.65 404 l 2
 552.75 404 631.15 393.2 631.15 275.95 c 0
 631.15 174.4 584.1 156.45 483.2 156.45 c 2
 287.65 156.45 l 1
 288.5 81.55 339.8 87.8 388.9 85.25 c 1
 552.15 85.25 l 2
 635.15 85.25 700.65 118.45 700.65 196 c 2
 700.65 465.8 l 1
 264.15 465.8 l 0
 167.15 465.8 133.15 460.2 133.15 383.25 c 2
 133.15 296.5 l 2
287.65 238 m 1
 482.9 238 l 2
 525.5 238 539.15 236.9 539.15 279.25 c 0
 539.15 315.35 532.7 321.6 482.9 321.6 c 2
 371.15 321.6 l 2
 318.6 321.6 287.65 319.05 287.65 238 c 1
EndSplineSet
EndChar

StartChar: a.superior
Encoding: 376 -1 305
Width: 372
VWidth: -15
Flags: HW
LayerCount: 2
Fore
SplineSet
28.9 463.9 m 10
 28.9 506.9 l 2
 28.9 560 64.8 598.25 131.9 598.25 c 2
 131.9 598.25 261.25 598.1 261.25 599.1 c 0
 261.25 599.1 262.25 625.05 261.25 626.05 c 2
 261.25 662.75 239.45 673.5 202.95 673.5 c 1
 150.9 673.5 104.65 670.45 40.9 666.2 c 9
 40.9 714.8 l 17
 98.1 732.15 140.1 736.3 213.05 738.85 c 1
 281.5 739.7 335.85 709.9 335.85 633 c 2
 335.85 378 l 9
 284.45 378 l 25
 262.1 425.8 l 17
 259.5 423.4 188.35 373.7 130.85 374 c 1
 73.6 374.45 28.9 409.2 28.9 463.9 c 10
101.7 478.4 m 2
 101.7 449.6 119.1 441.1 143.15 441.1 c 0
 198.65 441.1 261.25 473.85 261.25 473.85 c 9
 261.25 552.35 l 17
 141.95 540.85 l 1
 111.6 538 101.7 520.45 101.7 501.95 c 2
 101.7 478.4 l 2
EndSplineSet
EndChar

StartChar: b.superior
Encoding: 377 -1 306
Width: 399
VWidth: -15
Flags: HW
LayerCount: 2
Fore
SplineSet
35.45 378 m 1
 35.45 901.85 l 1
 110.05 901.85 l 1
 110.05 711.1 l 1
 154.75 730.2 201.1 740.05 234.8 740.05 c 3
 347.3 740.05 365.6 651.3 365.6 554.6 c 0
 365.6 465.1 340.2 374 234.8 374 c 3
 185.15 374 131.4 406.15 110.2 421.8 c 9
 88.2 378 l 1
 35.45 378 l 1
110.2 471 m 1
 146.1 457.6 168.75 444.4 222.05 444.4 c 3
 266.55 444.4 291 475.35 291 555.65 c 0
 291 654.25 265.55 671.6 221.75 671.6 c 1
 170.05 671.6 155.45 666.05 110.2 655.5 c 1
 110.2 471 l 1
EndSplineSet
Ligature2: "'ordn' Ordinals lookup 21-1" b
EndChar

StartChar: c.superior
Encoding: 378 -1 307
Width: 360
VWidth: -15
Flags: HW
LayerCount: 2
Fore
SplineSet
28.9 555 m 0
 28.9 707.45 82.45 736.7 158.7 736.7 c 3
 197.4 736.7 267.85 727.95 323.7 714.8 c 1
 323.7 662.95 l 1
 323.7 662.95 242.9 667.8 177.1 667.8 c 3
 132.1 667.8 103.5 666.85 103.5 553.15 c 3
 103.5 461.7 124 442.2 177.1 442.2 c 3
 244.9 442.2 328.7 448.75 328.7 448.75 c 1
 328.7 396.35 l 17
 268.9 375.9 220.1 374.3 158.7 373.3 c 0
 85.3 373.3 28.9 401.7 28.9 555 c 0
EndSplineSet
Ligature2: "'ordn' Ordinals lookup 21-1" c
EndChar

StartChar: d.superior
Encoding: 379 -1 308
Width: 396
VWidth: -15
Flags: HW
LayerCount: 2
Fore
SplineSet
28.9 555.45 m 0
 28.9 652.9 46.35 740.9 158.85 740.9 c 3
 192.55 740.9 239.75 731.05 284.45 711.95 c 1
 284.45 903.55 l 1
 357.35 903.55 l 1
 357.35 378 l 1
 304.6 378 l 1
 283.45 421.8 l 17
 262.25 406.15 208.5 374 158.85 374 c 3
 53.45 374 28.9 465.2 28.9 555.45 c 0
103.5 556.5 m 0
 103.5 476.2 127.95 444.4 172.45 444.4 c 3
 225.75 444.4 247.55 457.6 283.45 471 c 1
 283.45 656.35 l 1
 238.2 667.75 224.3 672.45 172.45 672.45 c 1
 128.8 672.45 103.5 655.1 103.5 556.5 c 0
EndSplineSet
Ligature2: "'ordn' Ordinals lookup 21-1" d
EndChar

StartChar: e.superior
Encoding: 380 -1 309
Width: 391
VWidth: -15
Flags: HW
LayerCount: 2
Fore
SplineSet
28.9 556.85 m 0
 28.9 666.45 51.65 735.7 193.1 735.7 c 1
 286.55 735.7 359.35 725.8 359.35 605.95 c 0
 359.35 548.95 320.45 519.3 253 519.3 c 2
 103.5 519.3 l 1
 103.5 455.5 117 442.05 176.95 442.05 c 3
 243.4 442.05 295.65 440.35 351.35 447.75 c 1
 351.35 396 l 17
 291.7 377.95 222.3 373.3 160.45 373.3 c 0
 68.25 373.3 28.9 414.45 28.9 556.85 c 0
103.5 585.8 m 1
 241.95 585.8 l 2
 271.65 585.8 284.75 595.2 284.75 613.4 c 0
 284.75 660 266.05 667.85 194.6 667.85 c 1
 129.2 667.85 103.2 652.1 103.5 585.8 c 1
EndSplineSet
Ligature2: "'ordn' Ordinals lookup 21-1" e
EndChar

StartChar: f.superior
Encoding: 381 -1 310
Width: 324
VWidth: -15
Flags: HW
LayerCount: 2
Fore
SplineSet
24.35 666.15 m 1
 24.35 721 l 1
 95.3 730.35 l 1
 95.3 796.95 l 2
 95.3 840.45 107.45 902.85 196.85 902.85 c 0
 233.55 902.85 264.25 896.45 299.9 885.7 c 1
 299.9 836.55 l 1
 298.9 836.55 216.2 838.4 216.2 838.4 c 2
 170.75 839.4 169.9 817.2 169.9 785.75 c 2
 169.9 734 l 1
 270.3 734 l 1
 270.3 666.15 l 1
 168.2 666.15 l 9
 168.2 378 l 17
 93.6 378 l 1
 93.6 666.15 l 1
 24.35 666.15 l 1
EndSplineSet
Ligature2: "'ordn' Ordinals lookup 21-1" f
EndChar

StartChar: g.superior
Encoding: 382 -1 311
Width: 417
VWidth: 0
Flags: H
LayerCount: 2
Fore
SplineSet
29.95 291.75 m 2
 29.95 334.95 l 1
 60.4 375.5 l 1
 38.4 389.05 30.6 415.4 30.6 437.9 c 0
 30.6 459.9 41.6 495.35 76.6 499.35 c 1
 40.6 518.35 31.9 567.9 31.9 603.9 c 0
 31.9 691.7 82 732.9 155 732.9 c 2
 388.55 732.9 l 1
 388.55 688.9 l 1
 340.55 667.65 l 1
 348.3 658.6 359.45 625.9 359.45 598.65 c 3
 359.45 545.2 333.55 465.9 236.55 465.9 c 2
 128.95 465.9 l 2
 117.95 465.9 103.05 463.8 103.05 446.1 c 0
 103.05 428.1 114.1 426 129.1 424.15 c 2
 269.05 408.5 l 2
 332.25 401.5 369.6 363.15 369.6 303.9 c 2
 369.6 295.9 l 2
 369.6 255.05 358.35 186.9 264.55 186.9 c 2
 142.7 186.9 l 2
 77.95 186.9 29.95 219.55 29.95 291.75 c 2
103.7 304.05 m 2
 103.7 257.45 130.2 254.95 157.2 254.95 c 2
 250.05 254.95 l 2
 285.7 254.95 296.7 268.4 296.7 298.75 c 2
 296.7 303.75 l 2
 296.7 333.35 275.55 343.15 241.65 347.7 c 2
 131.95 360.75 l 26
 103.7 363.6 l 1
 103.7 304.05 l 2
107.35 603.75 m 0
 106.5 570.75 116.8 532.9 169.5 532.9 c 2
 227 532.9 l 2
 278.35 532.9 284.45 577.9 284.45 603.9 c 0
 284.45 639.7 265.75 666.9 226.85 666.9 c 1
 172.45 666.9 l 1
 123.05 666.9 108.2 641.95 107.35 603.75 c 0
EndSplineSet
Ligature2: "'ordn' Ordinals lookup 21-1" g
EndChar

StartChar: h.superior
Encoding: 383 -1 312
Width: 403
VWidth: -15
Flags: HW
LayerCount: 2
Fore
SplineSet
35.45 378 m 1
 35.45 900.7 l 1
 109.9 900.7 l 1
 109.9 686.8 l 1
 152 711.9 185.1 739.6 245.8 739.6 c 3
 328.8 739.6 367 684 367 622.45 c 2
 367 378 l 9
 292.4 378 l 17
 292.4 611.9 l 2
 292.4 652.5 265 670.55 232.15 670.55 c 3
 182.65 670.55 160.55 659.45 110.05 636.5 c 1
 110.05 378 l 1
 35.45 378 l 1
EndSplineSet
Ligature2: "'ordn' Ordinals lookup 21-1" h
EndChar

StartChar: i.superior
Encoding: 384 -1 313
Width: 151
VWidth: -15
Flags: HW
LayerCount: 2
Fore
SplineSet
31.75 791.8 m 2
 31.75 841.55 l 2
 31.75 852.55 37.75 860.55 49.75 860.55 c 2
 100.7 860.55 l 2
 111.7 860.55 117.7 852.55 117.7 841.55 c 2
 117.7 791.8 l 2
 117.7 780.8 111.7 774.8 100.7 774.8 c 2
 49.75 774.8 l 2
 38.75 774.8 31.75 780.8 31.75 791.8 c 2
36.15 378 m 1
 36.15 734 l 1
 110.75 734 l 1
 110.75 378 l 1
 36.15 378 l 1
EndSplineSet
Ligature2: "'ordn' Ordinals lookup 21-1" i
EndChar

StartChar: j.superior
Encoding: 385 -1 314
Width: 153
VWidth: -15
Flags: HW
LayerCount: 2
Fore
SplineSet
32.75 795.5 m 2
 32.75 845.25 l 2
 32.75 856.25 38.75 864.25 50.75 864.25 c 2
 101.7 864.25 l 2
 112.7 864.25 118.7 856.25 118.7 845.25 c 2
 118.7 795.5 l 2
 118.7 784.5 112.7 777.65 101.7 777.65 c 2
 50.75 777.65 l 2
 39.75 777.65 32.75 784.5 32.75 795.5 c 2
36.45 195.85 m 1
 36.45 732.85 l 1
 112.75 732.85 l 1
 112.75 374.85 l 2
 113.75 316.85 110.2 256.35 91.5 195.85 c 1
 36.45 195.85 l 1
EndSplineSet
Ligature2: "'ordn' Ordinals lookup 21-1" j
EndChar

StartChar: k.superior
Encoding: 386 -1 315
Width: 394
VWidth: -15
Flags: HW
LayerCount: 2
Fore
SplineSet
35.45 378 m 1
 35.45 899 l 1
 110.05 899 l 1
 110.05 606.95 l 1
 134.1 606.95 l 1
 269.85 730 l 1
 369.35 730 l 1
 198.95 575.85 l 1
 367.65 378 l 1
 276 378 l 1
 140.05 541.35 l 1
 110.05 541.35 l 1
 110.05 378 l 1
 35.45 378 l 1
EndSplineSet
Ligature2: "'ordn' Ordinals lookup 21-1" k
EndChar

StartChar: l.superior
Encoding: 387 -1 316
Width: 232
VWidth: -15
Flags: HW
LayerCount: 2
Fore
SplineSet
34.6 504 m 2
 34.6 900 l 1
 109.2 900 l 1
 109.2 516.05 l 2
 109.2 460.85 117.35 450.15 146.8 442.15 c 2
 146.8 442.15 201.15 428.15 206.15 428.15 c 1
 206.15 378 l 1
 134.2 378 l 2
 63.5 378 34.6 410 34.6 504 c 2
EndSplineSet
Ligature2: "'ordn' Ordinals lookup 21-1" l
EndChar

StartChar: m.superior
Encoding: 388 -1 317
Width: 664
VWidth: -15
Flags: HW
LayerCount: 2
Fore
SplineSet
35.45 378 m 1
 35.45 731.85 l 1
 90.15 731.85 l 1
 109.3 684.35 l 1
 152 710.05 183.5 736.3 240.95 736.3 c 1
 290.4 736.3 332.15 714.9 348.85 679.25 c 1
 386.5 710.05 439.95 736.3 505.3 736.3 c 1
 576.4 736.3 628.2 688.5 628.2 619.45 c 2
 628.2 378 l 1
 553.6 378 l 1
 553.6 608.9 l 2
 553.6 645.25 527.05 667.4 494.2 667.4 c 1
 443.3 667.4 412.4 659 368.55 633.95 c 1
 368.55 633.2 368.55 612.05 368.55 611.15 c 2
 368.55 378 l 1
 293.95 378 l 1
 293.95 608.9 l 2
 293.95 645.25 265.7 667.4 232.85 667.4 c 1
 182.5 667.4 160.4 656.3 109.9 633.35 c 1
 109.9 378 l 1
 35.45 378 l 1
EndSplineSet
Ligature2: "'ordn' Ordinals lookup 21-1" m
EndChar

StartChar: n.superior
Encoding: 389 -1 318
Width: 403
VWidth: -15
Flags: HW
LayerCount: 2
Fore
SplineSet
35.45 378 m 1
 35.45 731.85 l 1
 86.9 731.85 l 1
 108.6 686.9 l 1
 151.45 712.6 184.65 738.85 245.5 738.85 c 3
 328.8 738.85 367 683.4 367 622 c 2
 367 378 l 9
 292.4 378 l 17
 292.4 612.3 l 2
 292.4 652.9 265.85 670.8 233 670.8 c 3
 182.65 670.8 160.55 658.85 110.05 635.9 c 1
 110.05 378 l 1
 35.45 378 l 1
EndSplineSet
Ligature2: "'ordn' Ordinals lookup 21-1" n
EndChar

StartChar: o.superior
Encoding: 390 -1 319
Width: 398
VWidth: -15
Flags: HW
LayerCount: 2
Fore
SplineSet
28.9 550 m 1
 28.9 672.75 68.25 735 198.15 735 c 1
 325.65 735 364.15 673 364.15 550 c 1
 364.15 436.85 326.25 375 198.15 375 c 1
 68.8 375 28.9 435.9 28.9 550 c 1
103.5 550.15 m 1
 103.5 455.3 135.55 443.9 198.15 443.9 c 1
 258.5 443.9 289.55 452.3 289.55 550.15 c 1
 289.55 650 264.05 666.1 196.45 666.1 c 1
 129 666.1 103.5 646.15 103.5 550.15 c 1
EndSplineSet
EndChar

StartChar: p.superior
Encoding: 391 -1 320
Width: 396
VWidth: -15
Flags: HW
LayerCount: 2
Fore
SplineSet
35.45 193.55 m 1
 35.45 734.6 l 1
 88.2 734.6 l 1
 107.65 691.5 l 17
 127.15 707.15 189.4 739.45 236.5 739.45 c 3
 335.95 739.45 363.05 646.2 363.05 556 c 0
 363.05 460.4 342.2 368.55 236.5 368.55 c 3
 204.5 368.55 149.65 378.4 107.5 397.5 c 1
 107.5 193.55 l 1
 35.45 193.55 l 1
107.65 452.8 m 1
 148.65 441.55 175.15 436.7 222.6 436.7 c 1
 263 436.7 288.45 454.5 288.45 554.95 c 0
 288.45 636.4 264 668.9 222.9 668.9 c 3
 173.85 668.9 140.15 654.7 107.65 641.15 c 1
 107.65 452.8 l 1
EndSplineSet
Ligature2: "'ordn' Ordinals lookup 21-1" p
EndChar

StartChar: q.superior
Encoding: 392 -1 321
Width: 399
VWidth: -15
Flags: HW
LayerCount: 2
Fore
SplineSet
28.9 556 m 3
 28.9 673.6 75.7 739.3 169.4 739.3 c 3
 249.1 739.3 324.85 725.9 360.45 720.8 c 1
 360.45 193.55 l 17
 285.85 193.55 l 9
 285.85 396.55 l 1
 242.65 376.25 202.95 366.55 169.1 366.55 c 3
 54.7 366.55 28.9 457.15 28.9 556 c 3
103.5 556.6 m 3
 103.5 503.75 102.25 435.15 180.6 435.15 c 3
 230.15 435.15 231.95 438 285.85 451.25 c 1
 285.85 671.3 l 2
 180.75 671.3 l 2
 106.9 671.3 103.5 597 103.5 556.6 c 3
EndSplineSet
Ligature2: "'ordn' Ordinals lookup 21-1" q
EndChar

StartChar: r.superior
Encoding: 393 -1 322
Width: 328
VWidth: -15
Flags: HW
LayerCount: 2
Fore
SplineSet
35.45 378 m 1
 35.45 731.85 l 1
 93.2 731.85 l 1
 109.3 681 l 1
 150.2 707.15 186.3 735.85 242 735.85 c 27
 262.65 735.85 285.25 734.15 294.55 730.15 c 1
 294.55 658.15 l 1
 285.25 659.85 261 661.55 239.15 661.55 c 27
 186.65 661.55 159.35 650.5 110.05 624.7 c 1
 110.05 378 l 1
 35.45 378 l 1
EndSplineSet
Ligature2: "'ordn' Ordinals lookup 21-1" r
EndChar

StartChar: s.superior
Encoding: 394 -1 323
Width: 375
VWidth: -15
Flags: HW
LayerCount: 2
Fore
SplineSet
28.9 615.1 m 10
 28.9 649.2 l 18
 28.9 705.45 53.75 740.95 124.05 740.95 c 3
 167.1 740.95 283.75 732.4 321.85 725.7 c 9
 321.85 671.3 l 17
 140.5 671.3 l 2
 102.6 671.3 101.7 657.7 101.7 638.35 c 10
 101.7 617.35 l 18
 101.7 587.1 118.9 586.25 141.35 586.25 c 2
 252.45 586.25 l 2
 314 586.25 342.4 546.7 342.4 495.05 c 1
 342.4 457.6 l 2
 342.4 383.3 297.25 368.2 253.25 368.2 c 3
 214.75 368.2 71 379.25 45.9 386 c 9
 45.9 438.7 l 17
 235.2 438.7 l 18
 237.15 438.7 269.75 429.25 269.75 468.4 c 2
 269.75 490.1 l 2
 269.75 510 262.5 520.65 235.2 520.65 c 10
 124.45 520.65 l 2
 61 520.65 28.9 545 28.9 615.1 c 10
EndSplineSet
Ligature2: "'ordn' Ordinals lookup 21-1" s
EndChar

StartChar: t.superior
Encoding: 395 -1 324
Width: 305
VWidth: -15
Flags: HW
LayerCount: 2
Fore
SplineSet
25.2 666.3 m 1
 25.2 717.9 l 1
 95.6 730.95 l 1
 112.35 832.55 l 1
 170.2 832.55 l 1
 170.2 734.15 l 1
 274.25 734.15 l 1
 274.25 666.3 l 1
 170.2 666.3 l 1
 170.2 513.6 l 2
 170.2 453.6 176.65 449.85 207.8 442.85 c 2
 207.8 442.85 259.45 430.7 261.05 430.7 c 1
 261.05 378.85 l 1
 194.7 378.85 l 2
 125.65 378.85 95.6 411 95.6 502.7 c 2
 95.6 666.3 l 1
 25.2 666.3 l 1
EndSplineSet
Ligature2: "'ordn' Ordinals lookup 21-1" t
EndChar

StartChar: u.superior
Encoding: 396 -1 325
Width: 397
VWidth: -15
Flags: HW
LayerCount: 2
Fore
SplineSet
33.6 492.95 m 2
 33.6 731.85 l 9
 108.2 731.85 l 17
 108.2 497.55 l 2
 108.2 460.35 135.6 439.9 167.6 439.9 c 3
 215.4 439.9 233.25 449.3 283.75 472.1 c 1
 283.75 731.85 l 1
 358.35 731.85 l 1
 358.35 378 l 1
 306.05 378 l 1
 283.75 423.55 l 1
 240.75 396.2 216.35 371 155.65 371 c 3
 72.65 371 33.6 431.55 33.6 492.95 c 2
EndSplineSet
Ligature2: "'ordn' Ordinals lookup 21-1" u
EndChar

StartChar: v.superior
Encoding: 397 -1 326
Width: 418
VWidth: -15
Flags: HW
LayerCount: 2
Fore
SplineSet
23.35 731.85 m 25
 103.4 731.85 l 17
 210.35 478.5 l 9
 314.35 731.85 l 25
 393.55 731.85 l 25
 242.55 378 l 25
 176.85 378 l 25
 23.35 731.85 l 25
EndSplineSet
Ligature2: "'ordn' Ordinals lookup 21-1" v
EndChar

StartChar: w.superior
Encoding: 398 -1 327
Width: 610
VWidth: -15
Flags: HW
LayerCount: 2
Fore
SplineSet
23.35 731.85 m 1
 103.4 731.85 l 1
 210.35 478.5 l 1
 312.4 731.85 l 1
 389.95 731.85 l 1
 342.5 618.7 l 1
 402.65 478.5 l 1
 505.45 731.85 l 1
 584.8 731.85 l 1
 434.7 378 l 1
 370.05 378 l 1
 304.05 525 l 1
 241.5 378 l 1
 176.85 378 l 1
 23.35 731.85 l 1
EndSplineSet
Ligature2: "'ordn' Ordinals lookup 21-1" w
EndChar

StartChar: x.superior
Encoding: 399 -1 328
Width: 407
VWidth: -15
Flags: HW
LayerCount: 2
Fore
SplineSet
24.35 378 m 1
 161.75 557 l 1
 24.35 731.85 l 1
 111.2 731.85 l 1
 203.9 613.45 l 1
 291.65 731.85 l 1
 380.35 731.85 l 1
 246.75 556.7 l 1
 382 378 l 1
 295.05 378 l 1
 204.75 502.25 l 1
 112.05 378 l 1
 24.35 378 l 1
EndSplineSet
Ligature2: "'ordn' Ordinals lookup 21-1" x
EndChar

StartChar: y.superior
Encoding: 400 -1 329
Width: 438
VWidth: -15
Flags: HW
LayerCount: 2
Fore
SplineSet
23.35 732.85 m 1
 101.25 732.85 l 1
 198.35 472.85 l 2
 204.9 456.1 212.95 444.3 231.6 444.15 c 9
 333.65 732.85 l 1
 412.9 732.85 l 9
 250.8 263.85 l 17
 192.55 195.85 l 1
 139.4 195.85 l 1
 207.6 375.85 l 1
 168.85 378.4 143.2 414.05 131.05 447.7 c 2
 23.35 732.85 l 1
EndSplineSet
Ligature2: "'ordn' Ordinals lookup 21-1" y
EndChar

StartChar: z.superior
Encoding: 401 -1 330
Width: 374
VWidth: -15
Flags: HW
LayerCount: 2
Fore
SplineSet
28.9 662.95 m 17
 28.9 731.85 l 25
 339.95 731.85 l 25
 339.95 668.05 l 25
 140.2 447.9 l 17
 339.1 447.9 l 17
 340.1 446.9 339.1 379 339.1 379 c 25
 39.75 379 l 25
 39.75 447.75 l 25
 239.9 662.95 l 17
 28.9 662.95 l 17
EndSplineSet
Ligature2: "'ordn' Ordinals lookup 21-1" z
EndChar

StartChar: zero.tnum
Encoding: 402 -1 331
Width: 618
VWidth: 0
Flags: W
HStem: 0 89<173.313 447.235> 643 89<172.287 451.194>
VStem: 54.25 92<115.53 616.54> 472.25 92<111.355 621.268>
LayerCount: 2
Fore
SplineSet
54.25 166.5 m 10
 54.25 564 l 2
 54.25 675.3 130.05 732 229.55 732 c 2
 393.55 732 l 2
 519 732 564.25 654.2 564.25 565.5 c 26
 564.25 166.5 l 18
 564.25 47.5 495.7 0 393.55 0 c 2
 229.55 0 l 2
 132.7 0 54.25 46.5 54.25 166.5 c 10
146.25 172.65 m 2
 146.25 107.3 194.15 89 238.25 89 c 10
 383.95 89 l 18
 443.3 89 472.25 118.5 472.25 172.5 c 2
 472.25 559.5 l 2
 472.25 605.5 452.1 643 385.15 643 c 2
 237.05 643 l 2
 169.75 643 146.25 602.25 146.25 559.5 c 2
 146.25 172.65 l 2
EndSplineSet
Substitution2: "'onum' Oldstyle Figures in Latin lookup 5-1" zero.tosf
Substitution2: "'lnum' Lining Figures lookup 19-1" zero
EndChar

StartChar: one.tnum
Encoding: 403 -1 332
Width: 611
VWidth: 0
Flags: W
HStem: 0 86<127.9 293.3 386.15 543.9> 712 20G<253.876 386.15>
VStem: 293.3 92.8506<86 633>
LayerCount: 2
Fore
SplineSet
120.9 581.55 m 5
 120.9 645.05 l 5
 293.6 732 l 5
 386.15 732 l 5
 386.15 86 l 5
 543.9 86 l 5
 543.9 0 l 5
 521.4 0 150.4 0 127.9 0 c 5
 127.9 86 l 5
 293.3 86 l 5
 293.3 633 l 5
 120.9 581.55 l 5
EndSplineSet
Substitution2: "'onum' Oldstyle Figures in Latin lookup 5-1" one.tosf
Substitution2: "'lnum' Lining Figures lookup 19-1" one
EndChar

StartChar: two.tnum
Encoding: 404 -1 333
Width: 615
VWidth: 0
Flags: W
HStem: 0 89<228.2 563.15> 652 90<102.752 424.48> 652 68.5<52.4 283.784>
VStem: 470.3 92.85<454.993 606.309>
LayerCount: 2
Fore
SplineSet
52.4 652 m 2xb0
 52.4 720.5 l 1xb0
 151.4 734.25 240.45 742 356.4 742 c 3
 503.05 742 563.15 635.2 563.15 527.5 c 3
 563.15 340.2 298.7 139.05 228.2 89 c 9
 563.15 89 l 25
 563.15 0 l 25
 59.25 0 l 25
 59.25 83 l 17
 164.05 154 470.3 376.4 470.3 528.75 c 1
 470.3 599.95 433.6 652 343.25 652 c 2xd0
 52.4 652 l 2xb0
EndSplineSet
Substitution2: "'onum' Oldstyle Figures in Latin lookup 5-1" two.tosf
Substitution2: "'lnum' Lining Figures lookup 19-1" two
EndChar

StartChar: three.tnum
Encoding: 405 -1 334
Width: 615
VWidth: 0
Flags: W
HStem: -7 90<118.766 435.279> 21 62<67.8 168.343> 318.5 90<198.695 429.137> 325.5 73<129.65 290.755> 645 89<127.583 433.61> 645 61<61.65 160.819>
VStem: 462.3 91.7<107.485 286.173 438.032 617>
LayerCount: 2
Fore
SplineSet
61.65 645 m 1x06
 61.65 706 l 1x06
 149.65 737 264.15 736 381.15 734 c 0
 491.15 732 554 662.05 554 566 c 2
 554 501.5 l 2
 554 428.5 528.45 380.9 485.3 364 c 1
 529.6 338.9 554 294.5 554 218.5 c 2
 554 164 l 2
 554 53.2 495.3 -7 373.3 -7 c 0x8a
 259.3 -7 155.65 -10 67.65 21 c 1
 67.8 83 l 1x42
 353.8 83 l 2
 410.55 83 460.3 90.8 460.3 169.25 c 2
 460.3 220.75 l 2
 460.3 293.95 415.3 316.35 359.8 318.5 c 2xa2
 129.65 325.5 l 2
 129.65 398.5 l 1x12
 359.8 408.5 l 2
 428.8 411.5 462.3 441.25 462.3 500 c 2
 462.3 560 l 2
 462.3 622.9 411.8 645 359.8 645 c 2x2a
 61.65 645 l 1x06
EndSplineSet
Substitution2: "'onum' Oldstyle Figures in Latin lookup 5-1" three.tosf
Substitution2: "'lnum' Lining Figures lookup 19-1" three
EndChar

StartChar: four.tnum
Encoding: 406 -1 335
Width: 623
VWidth: 0
Flags: W
HStem: 179.5 93<164.1 420.05> 200 72.5<568.355 597.55> 712 20G<319.528 437.55>
VStem: 420.05 92<2 179.5 272.5 468.55>
DStem2: 26.2 224 164.1 272.5 0.515178 0.857083<112.612 592.708>
LayerCount: 2
Fore
SplineSet
26.2 224 m 1xb0
 331.55 732 l 1
 437.55 732 l 1
 164.1 272.5 l 1
 420.05 272.5 l 1xb0
 420.05 468.55 l 1
 454.7 544 l 1
 512.05 544 l 1
 512.05 272.5 l 1
 597.55 272.5 l 1
 597.55 200 l 1x70
 512.05 179.5 l 1
 512.05 2 l 1
 420.05 2 l 1
 420.05 179.5 l 1
 60.2 179.5 l 1
 26.2 224 l 1xb0
EndSplineSet
Substitution2: "'onum' Oldstyle Figures in Latin lookup 5-1" four.tosf
Substitution2: "'lnum' Lining Figures lookup 19-1" four
EndChar

StartChar: five.tnum
Encoding: 407 -1 336
Width: 617
VWidth: 0
Flags: W
HStem: -4 94<117.564 430.548> 20 70<71.05 248.22> 363 86.65<176.917 431.878> 643 89<181.05 523.05>
VStem: 72.9 84<292.5 344.512> 94.9 86.15<592.159 643> 454.4 92<117.014 343.905>
LayerCount: 2
Fore
SplineSet
71.05 20 m 1x76
 71.05 90 l 1x76
 369.05 90 l 2
 437 90 454.4 136.6 454.4 177 c 2
 454.4 275.15 l 2
 454.4 308.15 452.05 363 370.7 363 c 2
 233.2 363 l 2
 195.25 363 156.9 343.05 156.9 292.5 c 1
 72.9 292.5 l 1xba
 94.9 732 l 17
 523.05 732 l 1
 523.05 643 l 1
 181.05 643 l 25
 170.25 422 l 1
 186.05 438.85 212.05 446.1 241.2 449.65 c 0
 291 455.9 353.5 450.65 381.8 450.5 c 0
 499.5 449 546.4 378.35 546.4 280 c 2
 546.4 169 l 2
 546.4 32 443.95 -4 376.55 -4 c 3xb6
 252.55 -4 205.05 -3 71.05 20 c 1x76
EndSplineSet
Substitution2: "'onum' Oldstyle Figures in Latin lookup 5-1" five.tosf
Substitution2: "'lnum' Lining Figures lookup 19-1" five
EndChar

StartChar: six.tnum
Encoding: 408 -1 337
Width: 616
VWidth: 0
Flags: W
HStem: -1 89<203.141 453.216> 345 87.5<152.608 452.096> 345 66.5<148.95 381.094> 649 88.25<207.448 479.379> 649 68.95<300.756 535.45>
VStem: 56.95 92<163.811 345 411.5 559.091> 468.3 91.15<104.152 328.768>
LayerCount: 2
Fore
SplineSet
56.95 384 m 0xc6
 56.95 649 145.05 735.15 228.95 737.25 c 0xd6
 329.8 739.65 437.35 732 535.45 717.95 c 1
 535.45 649 l 1x8e
 256.95 649 l 2
 165.95 649 150.65 493.85 148.95 411.5 c 1xb6
 226.75 422.85 319.95 432.5 395.45 432.5 c 1
 532.95 432.5 559.45 360.15 559.45 277.5 c 2
 559.45 152.5 l 2
 559.45 37.8 491.25 -1 393.95 -1 c 2
 246.6 -1 l 2
 135.65 -0.15 56.95 69 56.95 384 c 0xc6
148.95 345 m 1xa6
 148.95 249.2 154.6 88 257.85 88 c 2
 387.05 88 l 2
 435.35 88 468.3 97.85 468.3 163.75 c 2
 468.3 273 l 2
 468.3 331.3 432.45 345 387.8 345 c 2xc6
 148.95 345 l 1xa6
EndSplineSet
Substitution2: "'onum' Oldstyle Figures in Latin lookup 5-1" six.tosf
Substitution2: "'lnum' Lining Figures lookup 19-1" six
EndChar

StartChar: seven.tnum
Encoding: 409 -1 338
Width: 617
VWidth: 0
Flags: W
HStem: 0 21G<189.65 302.991> 0 21G<189.65 302.991> 643 89<62.65 438.65>
DStem2: 189.65 0 295.35 0 0.356887 0.934148<37.723 689.522>
LayerCount: 2
Fore
SplineSet
62.65 643 m 1xa0
 62.65 732 l 1
 524.95 732 l 1
 554.95 679.5 l 1
 295.35 0 l 1
 189.65 0 l 1
 438.65 643 l 1
 62.65 643 l 1xa0
EndSplineSet
Substitution2: "'onum' Oldstyle Figures in Latin lookup 5-1" seven.tosf
Substitution2: "'lnum' Lining Figures lookup 19-1" seven
EndChar

StartChar: eight.tnum
Encoding: 410 -1 339
Width: 618
VWidth: 0
Flags: W
HStem: 0 87.5<178.446 440.5> 331 85<177.85 442.648> 649.5 87.5<175.158 441.367>
VStem: 63.5 92<107.959 310.801 439.348 630.059> 463 92<108.725 308.864 433.937 629.188>
LayerCount: 2
Fore
SplineSet
63.5 157.75 m 2
 63.5 249 l 2
 63.5 319.4 104.45 345.1 146.85 357.5 c 1
 81.35 381.75 63.5 444.8 63.5 499 c 2
 63.5 564 l 2
 63.5 698.9 139.5 737 242.5 737 c 2
 390 737 l 2
 498.65 737 555 687.6 555 563.85 c 2
 555 502 l 2
 555.85 479.25 550.95 400.1 480 386 c 1
 536.25 375.55 555.85 296.35 555 253.35 c 2
 555 158.65 l 2
 555 23.7 457.95 0 389 0 c 2
 242.5 0 l 2
 67.8 0 63.5 113.3 63.5 157.75 c 2
155.5 159.85 m 2
 155.5 112.95 181.95 87.5 249.25 87.5 c 2
 380.3 87.5 l 2
 423.45 87.5 463 110.6 463 159.85 c 2
 463 255.1 l 2
 463 307.45 426.4 331 383.15 331 c 2
 239.9 331 l 2
 194.5 331 155.5 311.85 155.5 255.1 c 2
 155.5 159.85 l 2
155.5 494 m 2
 155.5 431.2 205.9 416 239.9 416 c 2
 382.85 416 l 2
 451.5 416 463 458.9 463 494 c 2
 463 556.3 l 2
 463 626.4 434.9 649.5 381.15 649.5 c 2
 249.25 649.5 l 2
 190.35 649.5 155.5 639.7 155.5 556.3 c 2
 155.5 494 l 2
EndSplineSet
Substitution2: "'onum' Oldstyle Figures in Latin lookup 5-1" eight.tosf
Substitution2: "'lnum' Lining Figures lookup 19-1" eight
EndChar

StartChar: nine.tnum
Encoding: 411 -1 340
Width: 616
VWidth: 0
Flags: W
HStem: -1 88.25<132.889 408.952> 18.3 68.95<80.95 315.858> 303.75 87.5<164.304 463.792> 324.75 66.5<235.306 467.45> 648.25 89<163.184 413.259>
VStem: 56.95 91.15<407.482 632.098> 467.45 92<177.159 324.75 391.25 572.439>
LayerCount: 2
Fore
SplineSet
56.95 458.75 m 2x2e
 56.95 583.75 l 2
 56.95 698.45 125.15 737.25 222.45 737.25 c 2
 369.8 737.25 l 2
 480.75 736.4 559.45 667.25 559.45 352.25 c 0
 559.45 87.25 471.35 1.1 387.45 -1 c 0xae
 286.6 -3.4 180.75 0 80.95 18.3 c 1
 80.95 87.25 l 1x4e
 359.45 87.25 l 2
 450.45 87.25 465.75 242.4 467.45 324.75 c 1x9e
 389.65 313.4 296.45 303.75 220.95 303.75 c 1
 83.45 303.75 56.95 376.1 56.95 458.75 c 2x2e
148.1 463.25 m 2
 148.1 404.95 183.95 391.25 228.6 391.25 c 2x2e
 467.45 391.25 l 1x1e
 467.45 487.05 461.8 648.25 358.55 648.25 c 2
 229.35 648.25 l 2
 181.05 648.25 148.1 638.4 148.1 572.5 c 2
 148.1 463.25 l 2
EndSplineSet
Substitution2: "'onum' Oldstyle Figures in Latin lookup 5-1" nine.tosf
Substitution2: "'lnum' Lining Figures lookup 19-1" nine
EndChar

StartChar: zero.tosf
Encoding: 412 -1 341
Width: 618
VWidth: 0
Flags: W
HStem: 0 89<173.313 447.235> 542.3 89<172.287 451.194>
VStem: 54.25 92<115.53 515.84> 472.25 92<111.355 518.586>
LayerCount: 2
Fore
SplineSet
54.25 166.5 m 10
 54.25 463.3 l 2
 54.25 574.6 130.05 631.3 229.55 631.3 c 2
 393.55 631.3 l 2
 519 631.3 564.25 557.75 564.25 464.8 c 26
 564.25 166.5 l 18
 564.25 47.5 495.7 0 393.55 0 c 2
 229.55 0 l 2
 132.7 0 54.25 46.5 54.25 166.5 c 10
146.25 172.65 m 2
 146.25 107.3 194.15 89 238.25 89 c 10
 383.95 89 l 18
 443.3 89 472.25 118.5 472.25 172.5 c 2
 472.25 458.8 l 2
 472.25 504.8 452.1 542.3 385.15 542.3 c 2
 237.05 542.3 l 2
 169.75 542.3 146.25 501.55 146.25 458.8 c 2
 146.25 172.65 l 2
EndSplineSet
Substitution2: "'lnum' Lining Figures lookup 19-1" zero
EndChar

StartChar: one.tosf
Encoding: 413 -1 342
Width: 613
VWidth: 0
Flags: W
HStem: 0 86<134.75 291.65 383.65 533.75>
VStem: 291.65 92<86 532.85>
LayerCount: 2
Fore
SplineSet
131.15 483.95 m 5
 131.15 547.45 l 5
 291.95 632 l 5
 383.65 632 l 5
 383.65 86 l 5
 533.75 86 l 5
 533.75 0 l 5
 134.75 0 l 5
 134.75 86 l 5
 291.65 86 l 5
 291.65 532.85 l 5
 131.15 483.95 l 5
EndSplineSet
Substitution2: "'lnum' Lining Figures lookup 19-1" one
EndChar

StartChar: two.tosf
Encoding: 414 -1 343
Width: 614
VWidth: 0
Flags: W
HStem: 0 89<237.65 558.05> 549.45 89.15<101.234 432.779> 549.45 67.65<52.4 271.276>
VStem: 469.45 88.6<381.383 516.026>
LayerCount: 2
Fore
SplineSet
52.4 549.45 m 2xb0
 52.4 617.1 l 1xb0
 148 631.7 236.2 642.85 355.55 638.6 c 1
 497.95 638.6 562.3 566.7 562.3 449.65 c 3
 562.3 283.6 295.35 119.6 237.65 89 c 9
 558.05 89 l 25
 558.05 0 l 25
 58.4 0 l 25
 58.4 83 l 17
 179.4 150.55 469.45 311.7 469.45 447.9 c 1
 469.45 517 432.75 552 342.4 549.45 c 1xd0
 52.4 549.45 l 2xb0
EndSplineSet
Substitution2: "'lnum' Lining Figures lookup 19-1" two
EndChar

StartChar: three.tosf
Encoding: 415 -1 344
Width: 615
VWidth: 0
Flags: W
HStem: -102.85 90<118.766 435.279> -74.85 62<67.8 168.343> 222.65 90<198.695 429.137> 229.65 73<129.65 290.755> 549.15 89<127.583 433.61> 549.15 61<61.65 160.819>
VStem: 462.3 91.7<11.6349 190.323 342.182 521.15>
LayerCount: 2
Fore
SplineSet
61.65 549.15 m 1x06
 61.65 610.15 l 1x06
 149.65 641.15 264.15 640.15 381.15 638.15 c 0
 491.15 636.15 554 566.2 554 470.15 c 2
 554 405.65 l 2
 554 332.65 528.45 285.05 485.3 268.15 c 1
 529.6 243.05 554 198.65 554 122.65 c 2
 554 68.15 l 2
 554 -42.65 495.3 -102.85 373.3 -102.85 c 0x8a
 259.3 -102.85 155.65 -105.85 67.65 -74.85 c 1
 67.8 -12.85 l 1
 353.8 -12.85 l 2
 410.55 -12.85 460.3 -5.05 460.3 73.4 c 2
 460.3 124.9 l 2
 460.3 198.1 415.3 220.5 359.8 222.65 c 2x62
 129.65 229.65 l 2
 129.65 302.65 l 1x12
 359.8 312.65 l 2
 428.8 315.65 462.3 345.4 462.3 404.15 c 2
 462.3 464.15 l 2
 462.3 527.05 411.8 549.15 359.8 549.15 c 2x2a
 61.65 549.15 l 1x06
EndSplineSet
Substitution2: "'lnum' Lining Figures lookup 19-1" three
EndChar

StartChar: four.tosf
Encoding: 416 -1 345
Width: 623
VWidth: 0
Flags: W
HStem: 79.5 93<164.1 420.05> 100 72.5<568.355 597.55>
VStem: 420.05 92<-98 79.5 172.5 368.55>
DStem2: 26.2 124 164.1 172.5 0.515178 0.857083<112.612 592.708>
LayerCount: 2
Fore
SplineSet
26.2 124 m 1xa0
 331.55 632 l 1
 437.55 632 l 1
 164.1 172.5 l 1
 420.05 172.5 l 1xa0
 420.05 368.55 l 1
 454.7 444 l 1
 512.05 444 l 1
 512.05 172.5 l 1
 597.55 172.5 l 1
 597.55 100 l 1x60
 512.05 79.5 l 1
 512.05 -98 l 1
 420.05 -98 l 1
 420.05 79.5 l 1
 60.2 79.5 l 1
 26.2 124 l 1xa0
EndSplineSet
Substitution2: "'lnum' Lining Figures lookup 19-1" four
EndChar

StartChar: five.tosf
Encoding: 417 -1 346
Width: 617
VWidth: 0
Flags: W
HStem: -104 94<127.563 440.548> -80 70<81.0498 258.22> 263 87.5<188.189 441.877> 543 89<191.05 533.05>
VStem: 82.9004 84<192.5 244.512> 104.9 86.1494<492.159 543> 464.4 92<17.0143 243.905>
LayerCount: 2
Fore
SplineSet
81.0498 -10 m 5x76
 379.05 -10 l 6
 447 -10 464.4 36.5996 464.4 77 c 6
 464.4 175.15 l 6
 464.4 208.15 462.05 263 380.7 263 c 6
 243.2 263 l 6
 205.25 263 166.9 243.05 166.9 192.5 c 5
 82.9004 192.5 l 5xba
 104.9 632 l 21
 533.05 632 l 5
 533.05 543 l 5
 191.05 543 l 29
 180.25 322 l 5
 196.05 338.85 223.75 346.95 252.9 350.5 c 4
 302.7 356.75 363.5 350.65 391.8 350.5 c 4
 509.5 349 556.4 278.35 556.4 180 c 6
 556.4 69 l 6
 556.4 -68 453.95 -104 386.55 -104 c 7xb6
 262.55 -104 215.05 -103 81.0498 -80 c 5
 81.0498 -10 l 5x76
EndSplineSet
Substitution2: "'lnum' Lining Figures lookup 19-1" five
EndChar

StartChar: six.tosf
Encoding: 418 -1 347
Width: 616
VWidth: 0
Flags: W
HStem: -1 89<203.141 453.216> 345 87.5<152.608 452.096> 345 66.5<148.95 381.094> 649 88.25<207.448 479.379> 649 68.95<300.756 535.45>
VStem: 56.95 92<163.811 345 411.5 559.091> 468.3 91.15<104.152 328.768>
LayerCount: 2
Fore
SplineSet
56.95 384 m 0xc6
 56.95 649 145.05 735.15 228.95 737.25 c 0xd6
 329.8 739.65 437.35 732 535.45 717.95 c 1
 535.45 649 l 1x8e
 256.95 649 l 2
 165.95 649 150.65 493.85 148.95 411.5 c 1xb6
 226.75 422.85 319.95 432.5 395.45 432.5 c 1
 532.95 432.5 559.45 360.15 559.45 277.5 c 2
 559.45 152.5 l 2
 559.45 37.8 491.25 -1 393.95 -1 c 2
 246.6 -1 l 2
 135.65 -0.15 56.95 69 56.95 384 c 0xc6
148.95 345 m 1xa6
 148.95 249.2 154.6 88 257.85 88 c 2
 387.05 88 l 2
 435.35 88 468.3 97.85 468.3 163.75 c 2
 468.3 273 l 2
 468.3 331.3 432.45 345 387.8 345 c 2xc6
 148.95 345 l 1xa6
EndSplineSet
Substitution2: "'lnum' Lining Figures lookup 19-1" six
EndChar

StartChar: seven.tosf
Encoding: 419 -1 348
Width: 617
VWidth: 0
Flags: W
HStem: 543 89<62.65 438.65>
DStem2: 189.65 -100 295.35 -100 0.356887 0.934148<37.723 689.522>
LayerCount: 2
Fore
SplineSet
62.65 543 m 1
 62.65 632 l 1
 524.95 632 l 1
 554.95 579.5 l 1
 295.35 -100 l 1
 189.65 -100 l 1
 438.65 543 l 1
 62.65 543 l 1
EndSplineSet
Substitution2: "'lnum' Lining Figures lookup 19-1" seven
EndChar

StartChar: eight.tosf
Encoding: 420 -1 349
Width: 618
VWidth: 0
Flags: W
HStem: 0 87.5<178.446 440.5> 331 85<177.85 442.648> 649.5 87.5<175.158 441.367>
VStem: 63.5 92<107.959 310.801 439.348 630.059> 463 92<108.725 308.864 433.937 629.188>
LayerCount: 2
Fore
SplineSet
63.5 157.75 m 2
 63.5 249 l 2
 63.5 319.4 104.45 345.1 146.85 357.5 c 1
 81.35 381.75 63.5 444.8 63.5 499 c 2
 63.5 564 l 2
 63.5 698.9 139.5 737 242.5 737 c 2
 390 737 l 2
 498.65 737 555 687.6 555 563.85 c 2
 555 502 l 2
 555.85 479.25 550.95 400.1 480 386 c 1
 536.25 375.55 555.85 296.35 555 253.35 c 2
 555 158.65 l 2
 555 23.7 457.95 0 389 0 c 2
 242.5 0 l 2
 67.8 0 63.5 113.3 63.5 157.75 c 2
155.5 159.85 m 2
 155.5 112.95 181.95 87.5 249.25 87.5 c 2
 380.3 87.5 l 2
 423.45 87.5 463 110.6 463 159.85 c 2
 463 255.1 l 2
 463 307.45 426.4 331 383.15 331 c 2
 239.9 331 l 2
 194.5 331 155.5 311.85 155.5 255.1 c 2
 155.5 159.85 l 2
155.5 494 m 2
 155.5 431.2 205.9 416 239.9 416 c 2
 382.85 416 l 2
 451.5 416 463 458.9 463 494 c 2
 463 556.3 l 2
 463 626.4 434.9 649.5 381.15 649.5 c 2
 249.25 649.5 l 2
 190.35 649.5 155.5 639.7 155.5 556.3 c 2
 155.5 494 l 2
EndSplineSet
Substitution2: "'lnum' Lining Figures lookup 19-1" eight
EndChar

StartChar: nine.tosf
Encoding: 421 -1 350
Width: 616
VWidth: 0
Flags: W
HStem: -106.1 88.25<136.39 408.952> -86.8 68.95<80.95 315.429> 198.65 87.5<164.304 463.792> 219.65 66.5<235.306 467.45> 543.15 89<163.184 413.259>
VStem: 56.95 91.15<302.382 526.998> 467.45 92<72.0586 219.65 286.15 467.339>
LayerCount: 2
Fore
SplineSet
56.95 353.65 m 2x2e
 56.95 478.65 l 2
 56.95 593.35 125.15 632.15 222.45 632.15 c 2
 369.8 632.15 l 2
 480.75 631.3 559.45 562.15 559.45 247.15 c 0
 559.45 -17.85 471.35 -104 387.45 -106.1 c 0xae
 286.6 -108.5 177.35 -105.1 80.95 -86.8 c 1
 80.95 -17.85 l 1
 359.45 -17.85 l 2
 450.45 -17.85 465.75 137.3 467.45 219.65 c 1x5e
 389.65 208.3 296.45 198.65 220.95 198.65 c 1
 83.45 198.65 56.95 271 56.95 353.65 c 2x2e
148.1 358.15 m 2
 148.1 299.85 183.95 286.15 228.6 286.15 c 2x2e
 467.45 286.15 l 1x1e
 467.45 381.95 461.8 543.15 358.55 543.15 c 2
 229.35 543.15 l 2
 181.05 543.15 148.1 533.3 148.1 467.4 c 2
 148.1 358.15 l 2
EndSplineSet
Substitution2: "'lnum' Lining Figures lookup 19-1" nine
EndChar

StartChar: partialdiff
Encoding: 422 8706 351
Width: 642
VWidth: 0
Flags: HW
LayerCount: 2
Fore
SplineSet
53.25 227 m 1
 53.25 378 144.95 465 307 465 c 3
 358 465 419.55 454.25 473.25 408 c 1
 463.9 597.3 409.7 651 292 651 c 3
 219.1 651 148.75 623 111.75 600 c 1
 88.75 662 l 1
 155.75 706 210 740 295 740 c 3
 490 740 566.25 603 566.25 387 c 0
 566.25 184.6 489.8 -5 302 -5 c 3
 170.15 -5 53.25 69 53.25 227 c 1
144.95 230 m 3
 144.95 132.6 218.75 83.55 301.5 83.55 c 3
 437.15 83.55 470.7 270.95 471.55 340.05 c 1
 440.55 357.4 382.4 376.45 313.3 376.45 c 3
 190.45 376.45 144.95 313.75 144.95 230 c 3
EndSplineSet
EndChar

StartChar: summation
Encoding: 423 8721 352
Width: 581
VWidth: 0
Flags: HW
LayerCount: 2
Fore
SplineSet
37.3 -108 m 1
 251.3 270 l 1
 37.3 643 l 1
 37.3 732 l 1
 563.3 732 l 1
 563.3 643 l 9
 148.95 643 l 17
 361.8 270 l 9
 148.95 -108 l 25
 563.3 -108 l 17
 563.3 -200 l 1
 37.3 -200 l 1
 37.3 -108 l 1
EndSplineSet
EndChar

StartChar: product
Encoding: 424 8719 353
Width: 645
VWidth: 0
Flags: HW
LayerCount: 2
Fore
SplineSet
18.65 643 m 1
 18.65 732 l 1
 627.15 732 l 1
 627.15 643 l 1
 543.15 643 l 1
 543.15 0 l 1
 451.15 0 l 1
 451.15 643 l 1
 193.65 643 l 1
 193.65 0 l 1
 101.65 0 l 1
 101.65 643 l 1
 18.65 643 l 1
EndSplineSet
EndChar

StartChar: pi
Encoding: 425 960 354
Width: 640
VWidth: 0
Flags: HW
LayerCount: 2
Fore
SplineSet
18.65 442 m 1
 18.65 531 l 1
 573.15 531 l 1
 573.15 442 l 1
 454.65 442 l 1
 454.65 172 l 2
 454.65 100.25 477.05 80.5 523.65 80.5 c 2
 621.15 80.5 l 1
 621.15 26 l 1
 596.15 9 556.85 -5 508.65 -5 c 3
 418.65 -5 362.65 38.5 362.65 170.5 c 2
 362.65 442 l 1
 193.65 442 l 1
 193.65 0 l 1
 101.65 0 l 1
 101.65 442 l 1
 18.65 442 l 1
EndSplineSet
EndChar

StartChar: integral
Encoding: 426 8747 355
Width: 441
VWidth: 0
Flags: HW
LayerCount: 2
Fore
SplineSet
18.65 -119.5 m 1
 101.15 -119.5 l 1
 171.15 -119.5 173.3 -6.65 174.15 88 c 9
 174.15 506 l 18
 174.15 666.35 200.65 800 317.65 800 c 3
 383.3 800 404.65 782 422.65 775 c 1
 422.65 715.5 l 1
 342.15 715.5 l 1
 273.15 715.5 267 603.2 266.15 506 c 1
 266.15 88 l 2
 266.15 -75.05 245.65 -204 125.65 -204 c 3
 79.85 -204 39.65 -193 18.65 -179 c 1
 18.65 -119.5 l 1
EndSplineSet
EndChar

StartChar: Omega
Encoding: 427 937 356
Width: 774
VWidth: 0
Flags: HW
LayerCount: 2
Fore
SplineSet
60.65 389.5 m 0
 60.65 543.5 125.9 739 387.9 739 c 3
 635.9 739 709.15 566.5 709.15 384.5 c 3
 709.15 267.5 699.65 169.9 592.15 90.5 c 1
 714.15 80.5 l 1
 714.15 0 l 1
 480.15 0 l 1
 480.15 91.5 l 1
 609.25 179.8 617.15 258.6 617.15 385 c 3
 617.15 518 575.9 650 387.9 650 c 3
 198.4 650 152.65 516.3 152.65 380 c 3
 152.65 254.75 157.55 199.4 292.65 91.5 c 1
 292.65 0 l 1
 66.65 0 l 1
 66.65 81.5 l 1
 193.65 91.5 l 1
 60.8 177.15 60.65 277.5 60.65 389.5 c 0
EndSplineSet
EndChar

StartChar: radical
Encoding: 428 8730 357
Width: 636
VWidth: 0
Flags: HW
LayerCount: 2
Fore
SplineSet
18.65 272 m 1
 18.65 361 l 1
 160.2 361 l 1
 277.75 127 l 1
 523.05 800 l 1
 617.9 800 l 1
 328.4 0 l 1
 241.65 0 l 1
 101.25 272 l 1
 18.65 272 l 1
EndSplineSet
EndChar

StartChar: florin
Encoding: 429 402 358
Width: 592
VWidth: 0
Flags: HW
LayerCount: 2
Fore
SplineSet
18.65 -179 m 1
 27.45 -119.5 l 1
 109.95 -119.5 l 2
 179.95 -119.5 201.9 -6.65 216.3 88 c 2
 263.4 391 l 1
 165.6 391 l 1
 179.8 474.85 l 1
 277.6 474.85 l 1
 282.3 506 l 2
 307.6 666.35 355.65 800 472.65 800 c 1
 528.1 800 566 777.75 573.65 775 c 1
 565 715.5 l 1
 484.5 715.5 l 1
 414.65 715.5 393.4 603.2 376.85 506 c 2
 372.15 474 l 1
 506.25 474 l 1
 492.05 391 l 1
 357.95 391 l 1
 310.85 88 l 2
 285.25 -75.05 251.85 -204 121.65 -204 c 1
 77.55 -204 26.6 -184.5 18.65 -179 c 1
EndSplineSet
EndChar

StartChar: approxequal
Encoding: 430 8776 359
Width: 525
VWidth: 0
Flags: HW
LayerCount: 2
Fore
SplineSet
46.7 252.7 m 17
 85.65 285.55 129.7 323.7 193.7 323.7 c 27
 253.7 323.7 282.7 286.7 342.7 286.7 c 27
 389.7 286.7 409.75 306.35 455.7 325.7 c 9
 478.45 278.15 l 17
 440.05 249.35 401 205.7 340.7 205.7 c 3
 282.95 205.7 251.7 243.7 191.7 243.7 c 27
 140.7 243.7 115.7 220.7 67.7 205.7 c 25
 46.7 252.7 l 17
46.7 430.75 m 17
 85.65 463.6 129.7 501.75 193.7 501.75 c 27
 253.7 501.75 282.7 464.75 342.7 464.75 c 27
 389.7 464.75 409.75 484.4 455.7 503.75 c 9
 478.45 456.2 l 17
 440.05 427.4 401 383.75 340.7 383.75 c 3
 282.95 383.75 251.7 421.75 191.7 421.75 c 27
 140.7 421.75 115.7 398.75 67.7 383.75 c 25
 46.7 430.75 l 17
EndSplineSet
EndChar

StartChar: uni2206
Encoding: 431 8710 360
Width: 721
VWidth: 0
Flags: HW
LayerCount: 2
Fore
SplineSet
18.65 0 m 1
 329.65 732 l 1
 403.65 732 l 1
 702.65 0 l 1
 18.65 0 l 1
153.1 87.5 m 1
 579.1 87.5 l 1
 370.05 603.55 l 1
 153.1 87.5 l 1
EndSplineSet
EndChar

StartChar: lozenge
Encoding: 432 9674 361
Width: 519
VWidth: 0
Flags: HW
LayerCount: 2
Fore
SplineSet
18.65 373 m 1
 225.65 732 l 1
 299.65 732 l 1
 500.65 373 l 1
 299.65 0 l 1
 225.65 0 l 1
 18.65 373 l 1
121.15 373 m 1
 262.65 120.5 l 1
 399.15 373 l 1
 262.65 616.5 l 1
 121.15 373 l 1
EndSplineSet
EndChar

StartChar: onequarter
Encoding: 188 188 362
Width: 910
VWidth: 0
Flags: HW
LayerCount: 2
Fore
SplineSet
14.95 624.85 m 1
 14.95 678.5 l 1
 135.9 733.5 l 1
 210.2 733.5 l 1
 210.2 255.85 l 1
 135.6 255.85 l 1
 135.6 656.55 l 1
 14.95 624.85 l 1
207.85 0 m 1
 573.55 737.7 l 1
 648.45 737.7 l 1
 282.75 0 l 1
 207.85 0 l 1
498.4 143.45 m 1
 697.2 475.95 l 1
 779.9 475.95 l 1
 610.3 188.5 l 1
 760.4 188.5 l 1
 760.4 304.4 l 1
 787.35 352.85 l 1
 835 352.85 l 1
 835 188.5 l 1
 891.15 188.5 l 1
 891.15 127.5 l 1
 835 113.15 l 1
 835 -0.55 l 1
 760.4 -0.55 l 1
 760.4 113.15 l 1
 520.55 113.15 l 1
 498.4 143.45 l 1
EndSplineSet
Ligature2: "'frac' Diagonal Fractions lookup 11 subtable" one fraction four
Ligature2: "'frac' Diagonal Fractions lookup 11 subtable" one slash four
EndChar

StartChar: brokenbar
Encoding: 166 166 363
Width: 246
VWidth: 0
Flags: HW
LayerCount: 2
Fore
SplineSet
80.3 -72 m 1
 80.3 256 l 1
 166.3 256 l 1
 166.3 -72 l 1
 80.3 -72 l 1
80.3 429 m 1
 80.3 770 l 1
 166.3 770 l 1
 166.3 429 l 1
 80.3 429 l 1
EndSplineSet
EndChar

StartChar: currency
Encoding: 164 164 364
Width: 455
VWidth: 0
Flags: HW
LayerCount: 2
Fore
SplineSet
47.7 446 m 1
 89.95 485.45 l 1
 132.15 442.7 l 1
 158 461.4 189.85 472.25 223.55 472.25 c 0
 260.35 472.25 293.45 459.85 320 439.75 c 1
 367.55 486.9 l 1
 406.45 444.95 l 1
 359 397.2 l 1
 373.7 373.35 382.4 344.65 382.4 314.1 c 0
 382.4 279.1 372.25 246.25 354.1 219.4 c 1
 405.9 167.9 l 1
 362.4 127.3 l 1
 312.35 176.9 l 1
 287.25 158.55 256.75 147.6 223.55 147.6 c 0
 191 147.6 161.15 158.3 136.3 175.85 c 1
 89.45 128.55 l 1
 49.15 172.65 l 1
 94.9 217.7 l 1
 76.1 244.95 65.55 278.45 65.55 314.1 c 0
 65.55 346.9 74.95 376.15 91.9 401.4 c 1
 47.7 446 l 1
127.4 312.4 m 0
 127.4 257.85 169 211.15 223.55 211.15 c 0
 278.1 211.15 320.55 257.85 320.55 312.4 c 0
 320.55 366.1 277.25 408.7 223.55 408.7 c 0
 170.7 408.7 127.4 365.25 127.4 312.4 c 0
EndSplineSet
EndChar

StartChar: onehalf
Encoding: 189 189 365
Width: 978
VWidth: 0
Flags: HW
LayerCount: 2
Fore
SplineSet
14.95 624.85 m 1
 14.95 678.5 l 1
 135.9 733.5 l 1
 210.2 733.5 l 1
 210.2 255.85 l 1
 135.6 255.85 l 1
 135.6 656.55 l 1
 14.95 624.85 l 1
202.1 0 m 1
 567.8 737.7 l 1
 642.7 737.7 l 1
 277 0 l 1
 202.1 0 l 1
617.9 411.45 m 2
 616.2 411.45 617.05 468.6 617.9 467.75 c 1
 682.7 476.5 729.2 483.8 805.7 483.8 c 3
 905.65 483.8 940.5 424.9 940.5 345.25 c 3
 940.5 225.8 792.25 107.5 749.5 72.35 c 9
 939.65 72.35 l 25
 939.65 0 l 25
 621.05 0 l 25
 621.05 68.35 l 17
 686.25 119.35 863.35 238.7 863.35 341.8 c 1
 863.35 390.6 844.6 411.45 786.9 411.45 c 2
 617.9 411.45 l 2
EndSplineSet
Ligature2: "'frac' Diagonal Fractions lookup 11 subtable" one fraction two
Ligature2: "'frac' Diagonal Fractions lookup 11 subtable" one slash two
EndChar

StartChar: threequarters
Encoding: 190 190 366
Width: 1026
VWidth: 0
Flags: HW
LayerCount: 2
Fore
SplineSet
28.05 663.3 m 1
 28.05 716.2 l 1
 85.8 736.65 151.7 734.95 228.75 734.65 c 0
 314.4 734.5 351.7 679.45 351.7 616.6 c 2
 351.7 582.95 l 2
 351.7 535.65 329.6 504.35 300.6 493.6 c 1
 330.6 477.2 351.7 447.55 351.7 398.25 c 2
 351.7 371.6 l 2
 351.7 299.25 320.95 251.7 223.75 251.7 c 0
 148.7 251.7 89.95 249.7 32.05 270.15 c 1
 33.05 323.2 l 1
 60.25 323.2 205.85 324.05 205.85 324.05 c 2
 259.7 324.05 277.1 338.5 277.1 379.2 c 2
 277.1 399.35 l 2
 277.1 445.85 246.2 460.6 209.85 461.6 c 2
 72.35 466.6 l 2
 72.35 524.25 l 1
 209.85 531.4 l 2
 255.3 533.25 278.25 551.95 278.25 589.25 c 2
 278.25 608.7 l 2
 278.25 648 253.5 663.3 209.85 663.3 c 2
 28.05 663.3 l 1
307.75 0 m 1
 673.45 737.7 l 1
 748.35 737.7 l 1
 382.65 0 l 1
 307.75 0 l 1
584.9 144.3 m 1
 782.85 475.95 l 1
 862.15 475.95 l 1
 692.55 185.95 l 1
 850.3 185.95 l 1
 850.3 305.25 l 1
 873.85 353.7 l 1
 921.5 353.7 l 1
 921.5 185.95 l 1
 977.65 185.95 l 1
 977.65 128.35 l 1
 921.5 114 l 1
 921.5 0.3 l 1
 850.3 0.3 l 1
 850.3 114 l 1
 607.05 114 l 1
 584.9 144.3 l 1
EndSplineSet
Ligature2: "'frac' Diagonal Fractions lookup 11 subtable" three fraction four
Ligature2: "'frac' Diagonal Fractions lookup 11 subtable" three slash four
EndChar

StartChar: Hbar
Encoding: 435 294 369
Width: 665
VWidth: 0
Flags: HW
LayerCount: 2
Fore
SplineSet
17.8 516 m 1
 17.8 573 l 1
 79.4 573 l 1
 79.4 732 l 1
 171.4 732 l 1
 171.4 573 l 1
 494.4 573 l 1
 494.4 732 l 1
 586.4 732 l 1
 586.4 573 l 1
 646.3 573 l 1
 646.3 516 l 1
 586.4 516 l 1
 586.4 0 l 1
 494.4 0 l 1
 494.4 309.5 l 1
 171.4 309.5 l 1
 171.4 0 l 1
 79.4 0 l 1
 79.4 516 l 1
 17.8 516 l 1
171.4 398.5 m 1
 494.4 398.5 l 1
 494.4 516 l 1
 171.4 516 l 1
 171.4 398.5 l 1
EndSplineSet
Substitution2: "'c2sc' Capitals to Small Capitals in Latin lookup 17 subtable" hbar.smcp
EndChar

StartChar: hbar
Encoding: 440 295 374
Width: 549
VWidth: 0
Flags: HW
LayerCount: 2
Fore
SplineSet
-14.45 608.5 m 1
 -14.45 665.5 l 1
 60 665.5 l 1
 60 783.7 l 1
 154.4 783.7 l 1
 154.4 665.5 l 1
 282.55 665.5 l 1
 282.55 608.5 l 1
 154.4 608.5 l 1
 154.4 470.5 l 1
 213.15 504.6 279.9 540.85 348.15 540 c 1
 456.4 543.4 503 458.8 503 367.2 c 2
 503 0 l 1
 408.45 0 l 1
 408.45 365.25 l 1
 405.9 421.7 385.55 457.2 322.75 457.2 c 1
 272.15 454.65 221.8 437 154.55 401.5 c 1
 154.55 0 l 1
 60 0 l 1
 60 608.5 l 1
 -14.45 608.5 l 1
EndSplineSet
Substitution2: "'smcp' Lowercase to Small Capitals lookup 16-1" hbar.smcp
EndChar

StartChar: jcircumflex
Encoding: 442 309 376
Width: 224
VWidth: 0
Flags: HW
LayerCount: 2
Fore
SplineSet
-37.3 598.25 m 1
 77.15 755.25 l 1
 157 755.25 l 1
 259.2 598.25 l 1
 191.4 598.25 l 1
 114.2 683.25 l 1
 32.2 598.25 l 1
 -37.3 598.25 l 1
64.95 -270 m 1
 64.95 531 l 1
 161.2 531 l 1
 161.2 -4 l 1
 162.2 -90 157.65 -180.1 132.2 -270 c 1
 64.95 -270 l 1
77.15 755.25 m 1
157 755.25 m 1
EndSplineSet
Substitution2: "'smcp' Lowercase to Small Capitals lookup 16-1" jcircumflex.smcp
EndChar

StartChar: f_f
Encoding: 457 64256 391
Width: 785
VWidth: 0
Flags: HW
LayerCount: 2
Fore
SplineSet
18.65 448 m 1
 18.65 514 l 1
 117.65 531 l 1
 117.65 620 l 2
 117.65 676.7 126.65 776 246.65 776 c 0
 295.65 776 339.3 767.45 386.65 752 c 1
 386.65 693.55 l 1
 385.65 693.55 272.65 694.55 272.65 694.55 c 2
 211.5 695.55 209.65 660.05 209.65 612.05 c 2
 209.65 531 l 1
 496.6 531 l 1
 496.6 630 l 2
 496.6 694.05 508.75 786 628.75 786 c 0
 677.75 786 719.6 777.75 767.1 762 c 1
 767.1 703.7 l 1
 766.1 703.7 651.6 704.7 651.6 704.7 c 2
 589.7 705.7 588.6 671.1 588.6 621 c 2
 588.6 531 l 1
 727.4 531 l 1
 727.4 448 l 1
 586.9 448 l 1
 586.9 0 l 1
 494.9 0 l 1
 494.9 448 l 1
 207.65 448 l 1
 207.65 0 l 1
 115.65 0 l 1
 115.65 448 l 1
 18.65 448 l 1
EndSplineSet
Ligature2: "'dlig' Discretionary Ligatures lookup 14-1" f f
EndChar

StartChar: f_f_i
Encoding: 458 64259 392
Width: 981
VWidth: 0
Flags: HW
LayerCount: 2
Fore
SplineSet
18.65 448 m 1
 18.65 514 l 1
 117.65 531 l 1
 117.65 620 l 2
 117.65 676.7 126.65 776 246.65 776 c 0
 295.65 776 339.3 767.45 386.65 752 c 1
 386.65 693.55 l 1
 385.65 693.55 272.65 694.55 272.65 694.55 c 2
 211.5 695.55 210.8 660.05 209.5 612.05 c 2
 207.8 531 l 1
 478.25 531 l 1
 478.25 580.4 l 2
 478.25 698.85 556.05 785.4 679.95 786 c 0
 728.95 786.15 832.6 769.25 880.1 753.5 c 1
 880.1 695.2 l 1
 879.1 695.2 705.8 704.7 705.8 704.7 c 2
 643.9 708.1 570.25 684.5 570.25 578.9 c 2
 570.25 531 l 1
 925.8 521 l 1
 925.8 0 l 1
 832.95 0 l 1
 832.95 448 l 1
 568.55 448 l 1
 568.55 0 l 1
 476.55 0 l 1
 476.55 448 l 1
 207.8 448 l 1
 207.8 0 l 1
 115.65 0 l 1
 115.65 448 l 1
 18.65 448 l 1
EndSplineSet
Ligature2: "'dlig' Discretionary Ligatures lookup 14-1" f f i
EndChar

StartChar: ffl
Encoding: 459 64260 393
Width: 1083
VWidth: 0
Flags: HW
LayerCount: 2
Fore
SplineSet
18.65 448 m 1
 18.65 514 l 1
 117.65 531 l 1
 117.65 620 l 2
 117.65 676.7 126.65 776 246.65 776 c 0
 295.65 776 339.3 767.45 386.65 752 c 1
 386.65 693.55 l 1
 385.65 693.55 272.65 694.55 272.65 694.55 c 2
 211.5 695.55 210.5 660.05 209.5 612.05 c 2
 207.8 531 l 1
 479 531 l 1
 479 581.9 l 2
 479 701.45 531.15 784.3 651.15 784.3 c 1
 928.1 783.85 l 1
 928.1 195 l 2
 928.1 110.7 942.25 95 982.1 83 c 1
 982.1 83 1058.1 62 1065.1 62 c 1
 1065.1 0 l 1
 969.6 0 l 2
 875.45 0 836.1 48 836.1 189 c 2
 836.1 704.55 l 1
 829.35 704.55 671 704.7 671 704.7 c 2
 609.1 704.7 571 683 571 581.9 c 2
 571 531 l 1
 709.8 531 l 1
 709.8 448 l 1
 569.3 448 l 1
 569.3 0 l 1
 477.3 0 l 1
 477.3 448 l 1
 207.8 448 l 1
 207.8 0 l 1
 115.65 0 l 1
 115.65 448 l 1
 18.65 448 l 1
EndSplineSet
Ligature2: "'dlig' Discretionary Ligatures lookup 14-1" f f l
EndChar

StartChar: c_t
Encoding: 460 -1 394
Width: 857
VWidth: 0
Flags: HW
LayerCount: 2
Fore
SplineSet
37.3 261 m 0
 37.3 493 111.95 533 213.95 533 c 0
 601.8 532.7 l 1
 621.3 679.85 l 1
 693.8 679.85 l 1
 693.8 531.85 l 1
 838.9 531.85 l 1
 838.9 447.15 l 1
 693.8 447.15 l 1
 693.8 195.85 l 2
 693.8 101.05 707.8 93.85 749.35 83.55 c 2
 749.35 83.55 821.1 65.1 823 65.1 c 1
 823 0.55 l 1
 734.2 0.55 l 2
 641.45 0.55 601.8 49.7 601.8 189.85 c 2
 601.8 447.15 l 1
 230.45 447 l 3
 170.45 447 129.3 440.45 129.3 257 c 3
 129.3 107.75 157.25 77.5 229.25 77.5 c 3
 321.25 77.5 452.4 88.05 452.4 88.05 c 1
 452.4 23.35 l 17
 372 -0.85 302.8 -6.15 212.75 -7 c 0
 113.3 -7 37.3 28 37.3 261 c 0
EndSplineSet
Ligature2: "'dlig' Discretionary Ligatures lookup 14-1" c t
EndChar

StartChar: s_t
Encoding: 461 64262 395
Width: 885
VWidth: 0
Flags: HW
LayerCount: 2
Fore
SplineSet
37.3 349.9 m 10
 37.3 397.6 l 18
 37.3 479.6 73.8 531.85 176.8 531.85 c 1
 624.6 531.85 l 1
 644.1 679.85 l 1
 716.6 679.85 l 1
 716.6 531.85 l 1
 861.7 531.85 l 1
 861.7 450.55 l 1
 716.6 450.55 l 1
 716.6 195.85 l 2
 717.45 101.05 730.6 93.85 772.15 83.55 c 2
 772.15 83.55 843.9 65.1 845.8 65.1 c 1
 845.8 0.55 l 1
 757 0.55 l 2
 664.25 0.55 624.6 49.7 624.6 189.85 c 2
 624.6 448.9 l 1
 187 448.05 l 1
 130.65 448.05 129.3 426.8 129.3 395.2 c 10
 129.3 353.5 l 18
 129.3 304.35 153.75 302.65 187 302.65 c 2
 336.3 302.65 l 2
 427.2 302.65 469.3 247 469.3 171.4 c 1
 469.3 126 l 2
 469.3 17 403.3 -5 339.3 -5 c 3
 283.7 -5 97 7.15 59.3 16.7 c 9
 59.3 80.55 l 17
 327 80.55 l 18
 329.55 80.55 377.3 76.5 377.3 129 c 2
 377.3 166.3 l 2
 377.3 197.85 366.8 215.75 327 215.75 c 10
 178.3 215.75 l 2
 84.3 215.75 37.3 246.9 37.3 349.9 c 10
EndSplineSet
Ligature2: "'dlig' Discretionary Ligatures lookup 14-1" s t
EndChar

StartChar: t_t
Encoding: 462 -1 396
Width: 742
VWidth: 0
Flags: HW
LayerCount: 2
Fore
SplineSet
18.65 449 m 1
 18.65 511 l 1
 114.05 532 l 1
 133.55 680 l 1
 206.05 680 l 1
 206.05 532 l 1
 487.05 532 l 1
 506.55 680 l 1
 579.05 680 l 1
 579.05 532 l 1
 724.15 532 l 1
 724.15 449 l 1
 579.05 449 l 1
 579.05 196 l 1
 579.9 101.2 593.2 94.85 634.75 83.7 c 1
 634.75 83.7 706.5 65.25 708.4 65.25 c 1
 708.4 0.7 l 1
 619.6 0.7 l 2
 526.85 0.7 487.05 49.85 487.05 190 c 2
 487.05 449 l 1
 206.05 449 l 1
 206.05 196 l 1
 206.9 101.2 220.05 94.85 261.6 83.7 c 1
 261.6 83.7 333.35 65.25 335.25 65.25 c 1
 335.25 0.7 l 1
 246.45 0.7 l 2
 153.7 0.7 114.05 49.85 114.05 190 c 2
 114.05 449 l 1
 18.65 449 l 1
EndSplineSet
Ligature2: "'dlig' Discretionary Ligatures lookup 14-1" t t
EndChar

StartChar: f_t
Encoding: 463 -1 397
Width: 764
VWidth: 0
Flags: HW
LayerCount: 2
Fore
SplineSet
18.65 448 m 1
 18.65 514 l 1
 113.6 531 l 1
 113.6 630 l 2
 113.6 694.05 125.75 786 245.75 786 c 0
 294.75 786 336.6 777.75 384.1 762 c 1
 384.1 703.7 l 1
 383.1 703.7 268.6 704.7 268.6 704.7 c 2
 206.7 705.7 205.6 671.1 205.6 621 c 2
 205.6 532 l 1
 508.9 532 l 1
 528.4 680 l 1
 600.9 680 l 1
 600.9 532 l 1
 746 532 l 1
 746 449 l 1
 600.9 449 l 1
 600.9 196 l 1
 601.75 101.2 614.9 94.85 656.45 83.7 c 1
 656.45 83.7 728.2 65.25 730.1 65.25 c 1
 730.1 0.7 l 1
 641.3 0.7 l 2
 548.55 0.7 508.9 49.85 508.9 190 c 2
 508.9 449 l 1
 203.9 449 l 1
 203.9 0 l 1
 111.9 0 l 1
 111.9 448 l 1
 18.65 448 l 1
EndSplineSet
Ligature2: "'dlig' Discretionary Ligatures lookup 14-1" f t
EndChar

StartChar: t_y
Encoding: 464 -1 398
Width: 951
VWidth: 0
Flags: HW
LayerCount: 2
Fore
SplineSet
18.65 449 m 1
 18.65 511 l 1
 114.05 532 l 1
 133.55 680 l 1
 206.05 680 l 1
 206.05 532 l 1
 358.2 532 l 1
 475.65 532 500 500.1 527.9 417.35 c 2
 630.2 127.85 l 2
 645.55 82.4 691.2 89 692.75 88.85 c 9
 832.45 531 l 1
 933.4 531 l 9
 713.9 -168 l 17
 637.8 -270 l 1
 573.7 -270 l 1
 669.25 0 l 0
 630.45 0 568.95 18.4 535.35 116.9 c 2
 439.15 385.55 l 2
 425 428.9 404.4 449 346.95 449 c 1
 206.05 449 l 1
 206.05 196 l 2
 206.9 101.2 220.05 94 261.6 83.7 c 2
 261.6 83.7 333.35 65.25 335.25 65.25 c 1
 335.25 0.7 l 1
 246.45 0.7 l 2
 153.7 0.7 114.05 49.85 114.05 190 c 2
 114.05 449 l 1
 18.65 449 l 1
EndSplineSet
Ligature2: "'dlig' Discretionary Ligatures lookup 14-1" t y
EndChar

StartChar: f_y
Encoding: 465 -1 399
Width: 975
VWidth: 0
Flags: HW
LayerCount: 2
Fore
SplineSet
18.65 448 m 1
 18.65 514 l 1
 113.6 531 l 1
 113.6 630 l 2
 113.6 694.05 125.75 786 245.75 786 c 0
 294.75 786 336.6 769.25 384.1 753.5 c 1
 384.1 695.2 l 1
 383.1 695.2 268.6 704.7 268.6 704.7 c 2
 206.7 709.95 205.6 671.1 205.6 621 c 2
 205.6 531 l 1
 373.3 531 l 1
 491.5 531.15 517.55 499.25 547.15 417.35 c 2
 653.7 128.7 l 2
 669.05 83.25 714.7 89.85 716.25 89.7 c 9
 855.1 531.85 l 1
 956.05 531.85 l 9
 736.55 -167.15 l 17
 660.45 -269.15 l 1
 596.35 -269.15 l 1
 691.9 0.85 l 0
 653.25 0.85 590.75 19.25 558 117.75 c 2
 458.4 385.55 l 2
 443.4 428.9 420.25 448.15 362.65 448 c 1
 203.9 448 l 1
 203.9 0 l 1
 111.9 0 l 1
 111.9 448 l 1
 18.65 448 l 1
EndSplineSet
Ligature2: "'dlig' Discretionary Ligatures lookup 14-1" f y
EndChar

StartChar: kgreenlandic
Encoding: 466 312 400
Width: 531
VWidth: 0
Flags: HW
LayerCount: 2
Fore
SplineSet
56.1 0 m 1
 56.1 531 l 1
 148.25 531 l 1
 148.25 304.5 l 1
 223.1 304.5 l 1
 400.6 531 l 1
 513.3 531 l 1
 306.3 264 l 1
 497.8 0 l 1
 385.6 0 l 1
 220.1 221.5 l 1
 149.1 221.5 l 9
 148.25 0 l 17
 56.1 0 l 1
EndSplineSet
EndChar

StartChar: Tbar
Encoding: 472 358 406
Width: 579
VWidth: 0
Flags: HW
LayerCount: 2
Fore
SplineSet
31.4 643 m 1
 31.4 732 l 1
 548.4 732 l 1
 548.4 643 l 1
 332.9 643 l 1
 332.9 441 l 1
 446.9 441 l 1
 446.9 384 l 1
 332.9 384 l 1
 332.9 0 l 1
 240.9 0 l 1
 240.9 384 l 1
 126.9 384 l 1
 126.9 441 l 1
 240.9 441 l 1
 240.9 643 l 1
 31.4 643 l 1
EndSplineSet
Substitution2: "'c2sc' Capitals to Small Capitals in Latin lookup 17 subtable" tbar.smcp
EndChar

StartChar: gcommaaccent
Encoding: 477 291 411
Width: 555
VWidth: 0
Flags: HW
LayerCount: 2
Fore
SplineSet
224.67 617.301 m 2
 224.67 706.401 l 2
 224.67 795.816 318.27 775.702 318.27 775.702 c 1
 318.27 742.851 l 0
 291.27 743.749 290.37 726.066 290.37 716.3 c 2
 290.37 696.5 l 1
 300.27 696.5 l 2
 312.87 696.5 322.77 689.301 322.77 674 c 2
 322.77 617.301 l 2
 322.77 601.1 314.67 593 300.27 593 c 2
 246.27 593 l 2
 230.07 593 224.67 603.801 224.67 617.301 c 2
44.55 110.7 m 0
 44.55 147 62.55 189.1 104.3 197.7 c 1
 60.3 225.7 46.15 291 46.15 344 c 0
 46.15 471 111.7 533 222.15 533 c 2
 537.15 533 l 1
 537.15 469.5 l 1
 462.15 451.5 l 1
 472.7 430.2 490.15 409.95 490.15 339.5 c 0
 490.15 275 464.75 149 320.65 149 c 2
 173.65 149 l 2
 157.65 149 132.8 144.5 132.8 119.1 c 0
 132.8 93.85 151.65 89.9 173.65 87.05 c 2
 360.6 63.85 l 2
 449.45 53 509.65 6.5 509.65 -83 c 2
 509.65 -116 l 2
 509.65 -180.5 486.15 -270 355.15 -270 c 2
 205.15 -270 l 2
 111.15 -270 43.65 -220.3 43.65 -116 c 2
 43.65 -34.15 l 1
 86.95 26.05 l 1
 58.95 44.85 44.55 77.25 44.55 110.7 c 0
135.8 -111.35 m 2
 135.8 -178.8 180.5 -185.5 215.5 -185.5 c 2
 347.2 -185.5 l 2
 403.8 -185.5 417.8 -154.75 417.8 -112.1 c 2
 417.8 -86.35 l 2
 417.8 -44 385.1 -24.1 337.15 -17.85 c 2
 188.55 1.3 l 2
 170.05 4 135.8 9.4 135.8 9.4 c 1
 135.8 -111.35 l 2
138.15 344 m 0
 138.15 295 153.15 232 222.65 232 c 2
 309.25 232 l 2
 381.9 232 399.85 297 398.15 344 c 0
 395.6 411.45 379.15 450 308.25 450 c 2
 228.15 450 l 2
 153.05 450 138.15 394.8 138.15 344 c 0
EndSplineSet
AlternateSubs2: "'salt' Access All Alternates in Latin lookup 4-1" gcommaaccent.salt
Substitution2: "'smcp' Lowercase to Small Capitals lookup 16-1" gcommaaccent.smcp
EndChar

StartChar: gcommaaccent.salt
Encoding: 478 -1 412
Width: 555
VWidth: 0
Flags: HW
LayerCount: 2
Fore
SplineSet
239.77 617.301 m 2
 239.77 706.401 l 2
 239.77 795.816 333.37 775.702 333.37 775.702 c 1
 333.37 742.851 l 0
 306.37 743.749 305.47 726.066 305.47 716.3 c 2
 305.47 696.5 l 1
 315.37 696.5 l 2
 327.97 696.5 337.87 689.301 337.87 674 c 2
 337.87 617.301 l 2
 337.87 601.1 329.77 593 315.37 593 c 2
 261.37 593 l 2
 245.17 593 239.77 603.801 239.77 617.301 c 2
46.7 270.4 m 3
 46.7 441.55 108.55 537.9 233.55 537.9 c 3
 339.55 537.9 451 519.65 499.05 512.95 c 1
 499.05 -92 l 2
 499.05 -219.3 412 -280.65 326.55 -272 c 2
 73.05 -248 l 1
 73.05 -187 l 1
 322.05 -187 l 2
 375.05 -187 407.05 -156 407.05 -92 c 2
 407.05 31.25 l 1
 349.35 4.95 278.55 -7.6 233.55 -7.6 c 3
 80.55 -7.6 46.7 107.3 46.7 270.4 c 3
138.7 271.45 m 3
 138.7 180.7 136.05 76.3 240.75 76.3 c 3
 306.65 76.3 334.7 80.3 407.05 100.4 c 1
 407.05 454.9 l 2
 241.05 454.9 l 2
 141.4 454.9 138.7 334 138.7 271.45 c 3
EndSplineSet
EndChar

StartChar: tbar
Encoding: 479 359 413
Width: 369
VWidth: 0
Flags: HW
LayerCount: 2
Fore
SplineSet
18.65 449 m 1
 18.65 511 l 1
 114.05 532 l 1
 133.55 680 l 1
 206.05 680 l 1
 206.05 532 l 1
 351.15 532 l 1
 351.15 449 l 1
 206.05 449 l 1
 206.05 322 l 1
 304.9 322 l 1
 304.9 265 l 1
 206.05 265 l 1
 206.05 196 l 1
 206.9 101.2 220.05 94.85 261.6 83.7 c 1
 261.6 83.7 333.35 65.25 335.25 65.25 c 1
 335.25 0.7 l 1
 246.45 0.7 l 2
 153.7 0.7 114.05 49.85 114.05 190 c 2
 114.05 265 l 1
 35.9 265 l 1
 35.9 322 l 1
 114.05 322 l 1
 114.05 449 l 1
 18.65 449 l 1
EndSplineSet
AlternateSubs2: "'salt' Access All Alternates in Latin lookup 4-1" tbar.salt
Substitution2: "'smcp' Lowercase to Small Capitals lookup 16-1" tbar.smcp
EndChar

StartChar: Eng
Encoding: 480 330 414
Width: 677
VWidth: 0
Flags: HW
LayerCount: 2
Fore
SplineSet
74.75 0 m 1
 74.75 732 l 1
 168.75 732 l 1
 529.9 179.5 l 1
 529.9 732 l 1
 621.9 732 l 1
 621.9 0 l 1
 621.9 -81 l 1
 621.9 -239.15 515.7 -258.95 397.4 -257 c 1
 397.4 -188 l 1
 454.35 -174.25 529.9 -179.2 529.9 -68.5 c 1
 529.9 0 l 1
 168.6 559.5 l 1
 166.9 0 l 1
 74.75 0 l 1
EndSplineSet
Substitution2: "'c2sc' Capitals to Small Capitals in Latin lookup 17 subtable" eng.smcp
EndChar

StartChar: eng
Encoding: 481 331 415
Width: 555
VWidth: 0
Flags: HW
LayerCount: 2
Fore
SplineSet
56.1 0 m 1
 56.1 531 l 1
 124.6 531 l 1
 148.1 470.5 l 1
 206.85 504.6 255.6 540 336.6 540 c 3
 447.4 540 499.1 457.1 499.1 365.5 c 2
 499.1 0 l 1
 498.1 -84 l 1
 491.3 -226.15 391.95 -251.3 326.1 -268 c 1
 294.6 -219.5 l 1
 337.7 -197.7 405.1 -172 407.1 -88 c 1
 407.1 0 l 1
 407.1 366.1 l 2
 407.1 428.5 372.3 455.5 325.65 455.5 c 3
 252.1 455.5 215.35 437 148.1 401.5 c 1
 148.1 0 l 1
 56.1 0 l 1
EndSplineSet
Substitution2: "'smcp' Lowercase to Small Capitals lookup 16-1" eng.smcp
EndChar

StartChar: exclam.smcp
Encoding: 502 -1 436
Width: 270
VWidth: 0
Flags: HW
LayerCount: 2
Fore
SplineSet
77.65 23 m 2
 77.65 89 l 2
 77.65 104 85.65 114 101.65 114 c 2
 165.65 114 l 2
 180.65 114 188.65 103 188.65 89 c 2
 188.65 23 l 2
 188.65 8 179.65 0 165.65 0 c 2
 101.65 0 l 2
 87.65 0 77.65 9 77.65 23 c 2
81.7 570 m 1
 184.8 570 l 1
 175.55 171.5 l 1
 90.05 171.5 l 1
 81.7 570 l 1
EndSplineSet
EndChar

StartChar: quotedbl.smcp
Encoding: 503 -1 437
Width: 396
VWidth: 0
Flags: HW
LayerCount: 2
Fore
SplineSet
79.45 560.1 m 1
 79.45 627.1 l 1
 169.95 627.1 l 1
 169.95 560.1 l 1
 159.95 426.1 l 1
 90.6 426.1 l 1
 79.45 560.1 l 1
226.9 560.1 m 1
 226.9 627.1 l 1
 317.4 627.1 l 1
 317.4 560.1 l 1
 307.4 426.1 l 1
 237.75 426.1 l 1
 226.9 560.1 l 1
EndSplineSet
EndChar

StartChar: numbersign.smcp
Encoding: 504 -1 438
Width: 577
VWidth: 0
Flags: HW
LayerCount: 2
Fore
SplineSet
18.65 167.7 m 1
 28.45 230.85 l 1
 150.7 230.85 l 1
 170.35 342.25 l 1
 46.4 342.25 l 1
 55.35 405.4 l 1
 180.15 405.4 l 1
 208.65 573.45 l 1
 272.65 573.45 l 1
 244.15 405.4 l 1
 360.5 405.4 l 1
 388.15 573.45 l 1
 452.15 573.45 l 1
 424.5 405.4 l 1
 559.65 405.4 l 1
 550.7 342.25 l 1
 414.7 342.25 l 1
 395.9 230.85 l 1
 532.45 230.7 l 1
 522.95 167.55 l 1
 385.95 167.55 l 1
 357.3 -0.85 l 1
 293.3 -0.85 l 1
 321.1 167.55 l 1
 205.6 167.7 l 1
 176.95 -0.85 l 1
 112.95 -0.85 l 1
 140.75 167.7 l 1
 18.65 167.7 l 1
215.55 230.85 m 1
 331.9 230.85 l 1
 349.85 342.25 l 1
 234.35 342.25 l 1
 215.55 230.85 l 1
EndSplineSet
EndChar

StartChar: dollar.smcp
Encoding: 505 -1 439
Width: 506
VWidth: 0
Flags: HW
LayerCount: 2
Fore
SplineSet
46.7 384.4 m 2
 46.7 416.3 l 1
 46.7 543.4 128.7 573.55 217.35 574.7 c 1
 217.35 642.4 l 1
 287.95 642.4 l 1
 287.95 572.4 l 1
 336.75 568.4 403.2 559.7 436.5 555.65 c 1
 436.5 486.65 l 1
 436.5 486.65 242.7 488 225.6 488 c 1
 178.15 488 138.7 479.7 138.7 415.55 c 2
 138.7 387.4 l 1
 138.7 345.35 167.5 326.3 217.1 326.3 c 2
 303.3 326.3 l 2
 412.6 326.3 457.55 247.4 457.55 178.65 c 2
 457.55 141.85 l 2
 457.55 30.75 375.3 -10.85 287.95 -7.45 c 1
 287.95 -72.15 l 1
 217.35 -72.15 l 1
 217.35 -3.6 l 1
 168.1 1.1 84.45 8.1 65.3 11.75 c 1
 65.3 79.6 l 1
 90.8 79.6 211.75 79.4 286.85 79.4 c 0
 316.95 79.4 364.7 90.05 364.7 142.75 c 1
 364.7 177.15 l 2
 364.7 216.25 336.85 241.35 292.8 241.35 c 2
 208.1 241.35 l 2
 88.2 241.35 46.7 305.4 46.7 384.4 c 2
EndSplineSet
EndChar

StartChar: percent.smcp
Encoding: 506 -1 440
Width: 843
VWidth: 0
Flags: HW
LayerCount: 2
Fore
SplineSet
27.05 373.85 m 2
 27.05 443.5 l 2
 27.05 528.5 56.55 570 157.55 570 c 2
 210.95 570 l 2
 308.95 570 339.45 528.5 339.45 443.5 c 2
 339.45 373.85 l 18
 339.45 288.85 309.95 247.35 208.95 247.35 c 2
 155.55 247.35 l 2
 57.55 247.35 27.05 288.85 27.05 373.85 c 2
101.05 378.35 m 2
 101.05 333.4 114.4 321.35 159.3 321.35 c 2
 205.2 321.35 l 2
 259.6 321.35 265.45 336.8 265.45 378.35 c 10
 265.45 439 l 2
 265.45 485.6 250.9 496 207.2 496 c 2
 161.3 496 l 2
 108.7 496 101.05 482.35 101.05 439 c 2
 101.05 378.35 l 2
215.4 0 m 1
 548.2 570 l 1
 627.3 570 l 1
 295.4 0 l 1
 215.4 0 l 1
503.55 126.1 m 2
 503.55 195.75 l 2
 503.55 280.75 533.2 322.25 634.2 322.25 c 2
 687.45 322.25 l 2
 785.45 322.25 815.95 280.75 815.95 195.75 c 2
 815.95 126.1 l 18
 815.95 41.1 786.45 -0.4 685.45 -0.4 c 2
 632.2 -0.4 l 2
 534.2 -0.4 503.55 41.1 503.55 126.1 c 2
577.55 130.6 m 2
 577.55 85.65 590.9 73.6 635.8 73.6 c 2
 681.85 73.6 l 2
 736.25 73.6 741.95 89.05 741.95 130.6 c 10
 741.95 191.25 l 2
 741.95 237.85 727.55 248.25 683.85 248.25 c 2
 637.8 248.25 l 2
 585.2 248.25 577.55 234.6 577.55 191.25 c 2
 577.55 130.6 l 2
EndSplineSet
EndChar

StartChar: ampersand.smcp
Encoding: 507 -1 441
Width: 574
VWidth: 0
Flags: HW
LayerCount: 2
Fore
SplineSet
66.45 63.2 m 1
 7.1 144.5 23.45 227.25 99.55 290.4 c 2
 167.9 346.95 l 1
 127.5 397.05 l 1
 60 482.15 116.85 560 178.45 569.3 c 0
 254.15 580.6 334.25 572.2 416 553.1 c 1
 416 488.1 l 1
 244.2 488.1 l 2
 184.5 488.1 183.3 463.1 217.4 421.6 c 2
 381.05 222 l 1
 467.95 296.9 l 1
 499.45 262.2 l 1
 456.55 178 l 1
 432.95 154.55 l 1
 552.3 0 l 1
 447.2 0 l 1
 368.75 97.4 l 1
 303.6 33.7 l 1
 243.3 -21.45 130.25 -27.4 66.45 63.2 c 1
138.85 113.3 m 0
 159.35 87.95 209.3 59.05 252.65 102.65 c 1
 315.8 164.2 l 1
 223.05 278.3 l 1
 156.35 225.25 l 18
 102.55 182.95 120.2 135.95 138.85 113.3 c 0
EndSplineSet
EndChar

StartChar: quotesingle.smcp
Encoding: 508 -1 442
Width: 249
VWidth: 0
Flags: HW
LayerCount: 2
Fore
SplineSet
79.45 560.1 m 1
 79.45 627.1 l 1
 169.95 627.1 l 1
 169.95 560.1 l 1
 159.95 426.1 l 1
 90.45 426.1 l 1
 79.45 560.1 l 1
EndSplineSet
EndChar

StartChar: asterisk.smcp
Encoding: 509 -1 443
Width: 435
VWidth: 0
Flags: HW
LayerCount: 2
Fore
SplineSet
46.7 405.75 m 1
 46.7 450.25 l 1
 185.7 477.75 l 1
 189.85 400.75 l 1
 46.7 405.75 l 1
110.85 254.35 m 1
 135.85 389.8 l 1
 210.7 371.75 l 1
 152.35 241 l 1
 110.85 254.35 l 1
173.15 557.5 m 1
 216.35 574.4 l 1
 289.25 455.2 l 1
 218.25 424.6 l 1
 173.15 557.5 l 1
203.2 313.2 m 1
 245.7 378.6 l 1
 356.3 287.05 l 1
 332.15 251.45 l 1
 203.2 313.2 l 1
247.85 411.6 m 1
 366.85 487.5 l 1
 390 449.2 l 1
 297.5 352.2 l 1
 247.85 411.6 l 1
EndSplineSet
EndChar

StartChar: zero.smcp
Encoding: 510 -1 444
Width: 579
VWidth: 0
Flags: HW
LayerCount: 2
Fore
SplineSet
65.35 162 m 10
 65.35 408 l 2
 65.35 520 142.35 570 237.35 570 c 2
 347.35 570 l 2
 501.35 570 514.35 456 514.35 408 c 1
 514.35 162 l 18
 514.35 43 446.35 0 347.35 0 c 2
 237.35 0 l 2
 146.35 0 65.35 42 65.35 162 c 10
157.35 170.1 m 2
 157.35 107.3 201.65 89 245.75 89 c 10
 338.65 89 l 18
 397.7 89 422.35 120.6 422.35 170.25 c 2
 422.35 398.55 l 2
 422.35 441.85 407.1 481 338.35 481 c 2
 245.45 481 l 2
 175.45 481 157.35 443.7 157.35 398.7 c 2
 157.35 170.1 l 2
EndSplineSet
EndChar

StartChar: one.smcp
Encoding: 511 -1 445
Width: 340
VWidth: 0
Flags: HW
LayerCount: 2
Fore
SplineSet
37.3 423.8 m 1
 37.3 487.3 l 1
 174.3 571.7 l 1
 266 571.7 l 1
 266 0 l 1
 174 0 l 1
 174 472.7 l 1
 37.3 423.8 l 1
EndSplineSet
EndChar

StartChar: two.smcp
Encoding: 512 -1 446
Width: 512
VWidth: 0
Flags: HW
LayerCount: 2
Fore
SplineSet
37.3 482.2 m 2
 37.3 547.3 l 1
 136.3 561.05 150.9 572.2 267.7 572.2 c 3
 410.1 572.2 465.95 499.25 465.95 382.2 c 3
 465.95 225.3 279.5 120.4 216.15 89 c 9
 461.7 89 l 25
 461.7 0 l 25
 43.6 0 l 25
 43.6 83 l 17
 142.7 155.2 369.7 244.9 369.7 381.5 c 1
 369.7 449.55 339.7 485.6 249.35 483.05 c 1
 206.85 483.05 37.3 482.2 37.3 482.2 c 2
EndSplineSet
EndChar

StartChar: three.smcp
Encoding: 513 -1 447
Width: 509
VWidth: 0
Flags: HW
LayerCount: 2
Fore
SplineSet
28.05 484.75 m 1
 28.05 551 l 1
 97.05 575 213.05 575.15 304.05 573 c 0
 391.55 570.85 440.05 502.35 440.05 429 c 2
 440.05 396.5 l 2
 440.05 339.5 422 295.85 387.7 284 c 1
 422.85 263.55 440.05 224.5 440.05 165.5 c 2
 440.05 141 l 2
 440.05 55.1 397.65 -4.25 299.05 -5 c 0
 210.05 -5.6 102.05 -8 33.05 16 c 1
 33.05 83.25 l 1
 267.6 83.25 l 2
 305.3 83.25 346.05 90.65 346.05 147 c 2
 346.05 169.85 l 2
 346.05 226.8 311 238.85 271.55 239.85 c 2
 81.05 244.85 l 2
 81.05 322.6 l 1
 271.55 326.6 l 2
 321.8 327.6 348.05 340.35 348.05 393.35 c 2
 348.05 422.7 l 2
 348.05 468.45 320.35 484.75 271.85 484.75 c 2
 28.05 484.75 l 1
EndSplineSet
EndChar

StartChar: four.smcp
Encoding: 514 -1 448
Width: 546
VWidth: 0
Flags: HW
LayerCount: 2
Fore
SplineSet
18.65 179.5 m 1
 236.15 570 l 1
 341.1 570 l 1
 152.1 225 l 1
 352.1 225 l 1
 352.1 378 l 1
 389.1 456 l 1
 444.1 456 l 1
 444.1 225 l 1
 528.1 225 l 1
 528.1 152.5 l 1
 444.1 133.5 l 1
 444.1 2 l 1
 352.1 2 l 1
 352.1 133.5 l 1
 54.6 133.5 l 1
 18.65 179.5 l 1
EndSplineSet
EndChar

StartChar: five.smcp
Encoding: 515 -1 449
Width: 539
VWidth: 0
Flags: HW
LayerCount: 2
Fore
SplineSet
71.05 23 m 1
 71.05 91.5 l 1
 316.3 91.5 l 2
 377.8 91.5 392.05 118.7 392.05 159.55 c 2
 392.05 210.75 l 2
 392.05 241 393.15 275 317.05 275 c 0
 224.55 275 l 2
 189.45 275 155.55 257 155.55 207.5 c 1
 72.05 207.5 l 1
 89.05 570 l 25
 458.05 570 l 1
 458.05 481 l 1
 175.25 481 l 25
 167.55 326 l 1
 184.3 345.3 207.5 358.5 233.05 358.5 c 2
 233.05 358.5 296.55 358.5 324.55 358.5 c 0
 442.55 358.5 484.05 301.65 484.05 212 c 2
 484.05 152 l 2
 484.05 37.65 409.55 0 324.55 -1 c 0
 225.55 -2 154.05 0 71.05 23 c 1
EndSplineSet
EndChar

StartChar: six.smcp
Encoding: 516 -1 450
Width: 546
VWidth: 0
Flags: HW
LayerCount: 2
Fore
SplineSet
60.8 300 m 0
 60.8 520 148.3 575.15 219.3 576 c 0
 298.3 576.85 395.65 571.05 472.8 561 c 1
 472.8 487 l 1
 228.3 487 l 1
 163 487 152.8 380.9 152.8 333.75 c 1
 216.1 342.2 297.65 345.75 355.65 345.75 c 0
 461.65 345.75 490.8 288.2 490.8 218.5 c 2
 490.8 132 l 2
 490.8 36.25 425.65 -1 352.65 -1 c 2
 225.3 -1 l 2
 134.45 -1 60.8 48 60.8 300 c 0
152.8 262 m 1
 152.8 219.35 150 88 230.7 88 c 2
 343.65 88 l 2
 376.1 88 398.8 94.7 398.8 140.5 c 2
 398.8 217.75 l 2
 398.8 254.9 380.35 262 343.65 262 c 2
 152.8 262 l 1
EndSplineSet
EndChar

StartChar: seven.smcp
Encoding: 517 -1 451
Width: 476
VWidth: 0
Flags: HW
LayerCount: 2
Fore
SplineSet
28.05 481 m 1
 28.05 570 l 1
 417.65 570 l 1
 448.4 517.5 l 1
 250.15 0 l 1
 148.55 0 l 1
 334.05 481 l 1
 28.05 481 l 1
EndSplineSet
EndChar

StartChar: eight.smcp
Encoding: 518 -1 452
Width: 573
VWidth: 0
Flags: HW
LayerCount: 2
Fore
SplineSet
70.05 130 m 2
 70.05 200 l 2
 70.05 258 106.2 268 137.2 278 c 1
 87.2 295 70.05 349 70.05 390 c 2
 70.05 433 l 2
 70.05 542.15 118.45 575 208.45 575 c 2
 374.45 575 l 2
 457.9 575 504.05 532.5 504.05 433 c 2
 504.05 390 l 2
 504.05 373 502.05 309 446.05 297 c 1
 488.05 289 504.05 234 504.05 200 c 2
 504.05 130 l 2
 504.05 26.9 430.35 0 374.65 0 c 2
 206.95 0 l 2
 73.85 0 70.05 86.15 70.05 130 c 2
162.05 136.4 m 2
 162.05 99.75 175.85 87 227.75 87 c 2
 354.45 87 l 2
 387.25 87 412.05 97.65 412.05 135.95 c 2
 412.05 193.45 l 2
 412.05 233.85 388.8 247.35 356.45 247.35 c 2
 219.35 247.35 l 2
 186.35 247.35 162.05 237.7 162.05 193.9 c 2
 162.05 136.4 l 2
162.05 384.95 m 2
 162.05 338.95 192.5 331.05 219.2 331.05 c 2
 356.9 331.05 l 2
 408.8 331.05 412.75 359.2 412.75 384.5 c 2
 412.75 426.5 l 2
 412.75 478.05 397.25 488 355.75 488 c 2
 226.85 488 l 2
 182.1 488 162.05 488.25 162.05 426.5 c 2
 162.05 384.95 l 2
EndSplineSet
EndChar

StartChar: nine.smcp
Encoding: 519 -1 453
Width: 546
VWidth: 0
Flags: HW
LayerCount: 2
Fore
SplineSet
56.1 356.5 m 2
 56.1 443 l 2
 56.1 538.75 120.95 576 193.95 576 c 2
 321.6 576 l 2
 412.45 575.15 486.1 527 486.1 275 c 0
 486.1 55 401.6 -0.15 330.6 -1 c 0
 251.6 -1.85 152.95 -0.3 74.1 14 c 1
 74.1 88 l 1
 318.6 88 l 1
 383.9 88 394.1 194.1 394.1 241.25 c 1
 328.7 232.65 248.95 229.25 190.95 229.25 c 0
 84.95 229.25 56.1 286.8 56.1 356.5 c 2
148.1 357.25 m 2
 148.1 320.1 166.25 313 202.95 313 c 2
 394.1 313 l 1
 394.1 355.65 396.6 487 315.9 487 c 2
 202.95 487 l 2
 170.5 487 148.1 480.3 148.1 434.5 c 2
 148.1 357.25 l 2
EndSplineSet
EndChar

